<?xml version="1.0" encoding="UTF-8"?>
<svg width="16px" height="16px" viewBox="0 0 16 16" version="1.1" xmlns="http://www.w3.org/2000/svg" xmlns:xlink="http://www.w3.org/1999/xlink">
    <title>ic_apollo_developer_community</title>
    <g id="ic_apollo_developer_community" stroke="none" stroke-width="1" fill="none" fill-rule="evenodd">
        <g id="官网" transform="translate(0.663880, 0.646457)" fill="#A6B5CC" fill-rule="nonzero">
            <path d="M7.5,0 C11.6421356,0 15,3.35786438 15,7.5 C15,11.6421356 11.6421356,15 7.5,15 C3.35786438,15 0,11.6421356 0,7.5 C0,3.35786438 3.35786438,0 7.5,0 Z M10.0808039,10.4508544 L4.91919612,10.4508544 C5.28740374,11.9865278 5.9692969,13.1164328 6.95665434,13.8530856 L7.13340653,13.9785604 L7.12713089,13.9894842 C7.25053154,13.9964632 7.37485274,14 7.5,14 C7.62514726,14 7.74946846,13.9964632 7.87286911,13.9894842 L7.86659347,13.9785604 L8.04334566,13.8530856 C9.0307031,13.1164328 9.71259626,11.9865278 10.0808039,10.4508544 Z M13.2934903,10.4501633 L11.1054357,10.4513761 C10.8308027,11.7224792 10.3655309,12.7787108 9.70655835,13.6154097 C11.2653092,13.0535928 12.5477822,11.911656 13.2934903,10.4501633 Z M3.89456434,10.4513761 L1.70650968,10.4501633 C2.45221778,11.911656 3.73469077,13.0535928 5.29407306,13.6161182 C4.63446913,12.7787108 4.16919727,11.7224792 3.89456434,10.4513761 Z M3.72296064,5.2558607 L1.39738649,5.25699217 C1.14033531,5.95613809 1,6.71168051 1,7.5 C1,8.1792798 1.10419811,8.83422284 1.29748278,9.44971755 L3.72315871,9.44915103 C3.63873503,8.79762633 3.59668458,8.09841031 3.59668458,7.35199439 C3.59668458,6.60710164 3.63863605,5.90726806 3.72296064,5.2558607 Z M10.268995,5.25553652 L4.73100505,5.25553652 C4.64165427,5.89513299 4.59668458,6.59480049 4.59668458,7.35199439 C4.59668458,8.10984592 4.6418415,8.80912927 4.7317164,9.45051269 L10.2682836,9.45051269 C10.3581585,8.80912927 10.4033154,8.10984592 10.4033154,7.35199439 C10.4033154,6.59480049 10.3583457,5.89513299 10.268995,5.25553652 Z M13.6026135,5.25699217 L11.2770394,5.2558607 C11.361364,5.90726806 11.4033154,6.60710164 11.4033154,7.35199439 C11.4033154,8.09841031 11.361265,8.79762633 11.2768413,9.44915103 L13.7025172,9.44971755 C13.8958019,8.83422284 14,8.1792798 14,7.5 C14,6.71168051 13.8596647,5.95613809 13.6026135,5.25699217 Z M5.04597566,1.47982141 L4.98366285,1.50500257 C3.66791145,2.05793716 2.57243695,3.03139189 1.86545179,4.25715432 L3.89381944,4.25675049 C4.13248601,3.15373146 4.51565989,2.22107578 5.04597566,1.47982141 Z M7.5,1 C7.32190444,1 7.14548179,1.00716257 6.97100439,1.02121535 L7.09505616,0.948997525 C6.03368573,1.53408341 5.30379336,2.65517919 4.91823948,4.2566859 L10.0817605,4.2566859 C9.69620664,2.65517919 8.96631427,1.53408341 7.90494384,0.948997525 L8.02899561,1.02121535 C7.85451821,1.00716257 7.67809556,1 7.5,1 Z M9.95392641,1.4791581 L10.0701962,1.64881424 C10.5406775,2.36110511 10.8853096,3.23597526 11.1061806,4.25675049 L13.1345482,4.25715432 C12.4164141,3.01206197 11.2974413,2.0272977 9.95392641,1.4791581 Z" id="形状结合"></path>
        </g>
    </g>
</svg>