<?xml version="1.0" encoding="UTF-8"?>
<svg width="16px" height="16px" viewBox="0 0 16 16" version="1.1" xmlns="http://www.w3.org/2000/svg" xmlns:xlink="http://www.w3.org/1999/xlink">
    <title>icon/ic_bottom_rail_delete</title>
    <g id="icon/ic_bottom_rail_delete" stroke="none" stroke-width="1" fill="none" fill-rule="evenodd">
        <rect id="矩形" fill="#D8D8D8" opacity="0" x="0" y="0" width="16" height="16"></rect>
        <rect id="矩形备份" fill="#D8D8D8" opacity="0" x="0" y="0" width="16" height="16"></rect>
        <path d="M13.2805755,4.52282963 C13.5567179,4.52282963 13.7805755,4.74668725 13.7805755,5.02282963 L13.7805755,5.02282963 L13.7805755,14.5089925 C13.7805755,14.7851349 13.5567179,15.0089925 13.2805755,15.0089925 L13.2805755,15.0089925 L3.02283161,15.0089925 C2.74668924,15.0089925 2.52283161,14.7851349 2.52283161,14.5089925 L2.52283161,14.5089925 L2.52283161,5.02282963 C2.52283161,4.74668725 2.74668924,4.52282963 3.02283161,4.52282963 L3.02283161,4.52282963 Z M12.78,5.52190883 L3.522,5.52190883 L3.522,14.0089088 L12.78,14.0089088 L12.78,5.52190883 Z M6.5323741,7.94854911 C6.80851648,7.94854911 7.0323741,8.17240674 7.0323741,8.44854911 L7.0323741,11.1751678 C7.0323741,11.4513102 6.80851648,11.6751678 6.5323741,11.6751678 C6.25623173,11.6751678 6.0323741,11.4513102 6.0323741,11.1751678 L6.0323741,8.44854911 C6.0323741,8.17240674 6.25623173,7.94854911 6.5323741,7.94854911 Z M9.55395683,7.94854911 C9.83009921,7.94854911 10.0539568,8.17240674 10.0539568,8.44854911 L10.0539568,11.1751678 C10.0539568,11.4513102 9.83009921,11.6751678 9.55395683,11.6751678 C9.27781446,11.6751678 9.05395683,11.4513102 9.05395683,11.1751678 L9.05395683,8.44854911 C9.05395683,8.17240674 9.27781446,7.94854911 9.55395683,7.94854911 Z M13.5863309,2.00559225 C13.8624733,2.00559225 14.0863309,2.22944988 14.0863309,2.50559225 C14.0863309,2.78173463 13.8624733,3.00559225 13.5863309,3.00559225 L2.5,3.00559225 C2.22385763,3.00559225 2,2.78173463 2,2.50559225 C2,2.22944988 2.22385763,2.00559225 2.5,2.00559225 L13.5863309,2.00559225 Z M8.6587093,1 C8.93485167,1 9.1587093,1.22385763 9.1587093,1.5 L9.1587093,2 L6.92908801,2 L6.92908801,1.5 C6.92908801,1.22385763 7.15294564,1 7.42908801,1 L8.6587093,1 Z" id="形状结合" fill="#282F3C" fill-rule="nonzero"></path>
    </g>
</svg>