<?xml version="1.0" encoding="UTF-8"?>
<svg width="16px" height="16px" viewBox="0 0 16 16" version="1.1" xmlns="http://www.w3.org/2000/svg" xmlns:xlink="http://www.w3.org/1999/xlink">
    <title>ic_not_visual</title>
    <defs>
        <rect id="path-1" x="0" y="0" width="16" height="16"></rect>
    </defs>
    <g id="ic_not_visual" stroke="none" stroke-width="1" fill="none" fill-rule="evenodd">
        <rect id="矩形" fill="#D8D8D8" opacity="0" x="0" y="0" width="16" height="16"></rect>
        <g id="ic_不可视">
            <mask id="mask-2" fill="white">
                <use xlink:href="#path-1"></use>
            </mask>
            <use id="矩形" fill="#055FE7" opacity="0" xlink:href="#path-1"></use>
            <path d="M13.0207704,2 L13.7278772,2.70710678 L12.3088076,4.12603906 L12.3088076,4.12603906 L11.5710942,4.86420153 L11.57,4.864 L9.96684922,6.46707918 C9.96711947,6.46742312 9.96738963,6.46776713 9.9676597,6.46811122 L9.25187634,7.18385561 L7.17236464,9.26164119 C7.1727107,9.26187054 7.17305686,9.26209975 7.17340312,9.26232882 L6.45765873,9.97811219 L6.456,9.978 L5.01111954,11.4236453 C5.01145643,11.4237834 5.01179332,11.4239216 5.01213023,11.4240597 L4.25343546,12.1820292 L4.252,12.182 L2.41416872,14.0208153 L1.70706194,13.3137085 L5.80810337,9.21378397 C5.80791555,9.21344259 5.8077278,9.21310116 5.80754013,9.21275968 L6.5665876,8.45386657 L6.566,8.454 L8.741,6.279 L9.2023072,5.81799262 L9.203,5.817 L13.0207704,2 Z M13.1740625,4.67500443 C14.3674157,5.5319139 15.3427594,6.677348 15.9999103,8.01031594 C14.5389651,10.9738866 11.505386,13.0104076 7.99995498,13.0104076 C7.04719871,13.0104076 6.12929917,12.8599654 5.26835788,12.5813607 L6.07592026,11.7736805 C6.69194826,11.928324 7.33644243,12.0104076 7.99995498,12.0104076 C10.937343,12.0104076 13.5019978,10.4016849 14.8741983,8.01056762 C14.2739613,6.96430865 13.4455569,6.0680748 12.4575948,5.39070834 L13.1740625,4.67500443 Z M7.99995534,3.01040764 C8.79376025,3.01040764 9.56336879,3.11483965 10.2959984,3.31081805 L9.46087794,4.14567367 C8.98734389,4.05684728 8.49902953,4.01040764 7.99995534,4.01040764 C5.06256736,4.01040764 2.49791247,5.6191304 1.12571199,8.01024766 C1.65836149,8.93873249 2.37068745,9.74900809 3.21474497,10.3930635 L2.5044149,11.103885 C1.45699367,10.2781137 0.597133753,9.22172819 1.82076576e-13,8.01049934 C1.46094522,5.04692867 4.49452436,3.01040764 7.99995534,3.01040764 Z M10.4300299,7.4208129 C10.4757366,7.60986766 10.4999552,7.80730938 10.4999552,8.01040764 C10.4999552,9.39111951 9.38066703,10.5104076 7.99995516,10.5104076 C7.79685689,10.5104076 7.59941518,10.4861891 7.41036042,10.4404824 L8.39145788,9.45880258 C8.90521967,9.32027103 9.30981855,8.91567215 9.44835009,8.40191036 L10.4300299,7.4208129 Z M7.99995516,5.51040764 L8.09295516,5.51340764 L5.50167282,8.10394987 C5.50053105,8.07291031 5.49995516,8.04172623 5.49995516,8.01040764 C5.49995516,6.62969577 6.61924328,5.51040764 7.99995516,5.51040764 Z" id="形状结合" fill="#A6B5CC" fill-rule="nonzero" mask="url(#mask-2)"></path>
        </g>
    </g>
</svg>