<?xml version="1.0" encoding="UTF-8"?>
<svg width="16px" height="16px" viewBox="0 0 16 16" version="1.1" xmlns="http://www.w3.org/2000/svg" xmlns:xlink="http://www.w3.org/1999/xlink">
    <title>icon_routing_editing</title>
    <g id="icon_routing_editing" stroke="none" stroke-width="1" fill="none" fill-rule="evenodd">
        <rect id="矩形" fill="#808B9D" opacity="0" x="0" y="0" width="16" height="16"></rect>
        <g id="居乐乐-地点" transform="translate(3.397088, 1.024569)"></g>
        <g id="路线备份" transform="translate(1.971762, 1.712763)" fill="#A6B5CC" fill-rule="nonzero">
            <path d="M6.92454318,2.63412265 L6.92599941,2.72258906 L6.92599941,9.85254884 C6.92599955,10.7573119 7.65947711,11.4907896 8.56426632,11.4907896 C9.43902918,11.4907895 10.1594724,10.8035452 10.2007107,9.92975505 L10.2025309,9.85257442 L10.2025309,2.21198698 C10.2025309,2.14063141 10.2163652,2.0721882 10.2414853,2.00957057 L10.2571399,1.9738927 L10.282624,1.92729305 L10.2979145,1.90362914 L10.3325002,1.85848584 L10.3627172,1.8257205 L10.3874732,1.80278477 L10.428976,1.76929125 L10.4551883,1.75108823 L10.4912301,1.73033685 L10.5472952,1.70448858 C10.5837011,1.68992621 10.6226555,1.67900448 10.6627021,1.67281542 L10.7012923,1.66808264 L10.74862,1.66589828 C10.7915789,1.66589828 10.8338098,1.67099512 10.8749486,1.68046067 L10.9437558,1.70194022 L10.9874429,1.72087125 L11.0194801,1.73761797 L11.055158,1.76018971 L11.0959326,1.79040669 L11.134887,1.82608456 L12.4218361,3.11303366 C12.6353995,3.3259913 12.6358893,3.67175607 12.4229318,3.88531952 C12.2239865,4.08482971 11.9059136,4.10023454 11.6886214,3.92088151 L11.6496669,3.88556782 L11.2947091,3.53060999 L11.2947091,9.85258029 C11.2947092,11.3598687 10.0722481,12.5823298 8.56426436,12.5823298 C7.09125933,12.5823298 5.88376958,11.4139452 5.83530419,9.9417337 L5.83384794,9.85326728 L5.83384794,2.72259076 C5.83384794,1.81782827 5.10037025,1.08435058 4.19558103,1.08435058 C3.32081818,1.08435058 2.60037494,1.7715933 2.55913499,2.64538344 L2.55729204,2.72259069 L2.55729204,11.1244262 C2.55729204,11.4260226 2.31279947,11.6705151 2.01120307,11.6705151 L1.9846268,11.6694229 C1.87140429,11.6767041 1.75526943,11.6493997 1.65442557,11.5849612 L1.61183063,11.5543803 L0.218211578,10.4622023 C-0.0196426464,10.2767675 -0.0621386074,9.9336257 0.123296141,9.69577153 C0.296885879,9.47310888 0.611585007,9.41947953 0.849126882,9.57207811 L0.892085824,9.6026591 L1.46511575,10.0519077 L1.46511575,2.72259099 C1.46511552,1.21460767 2.68757687,-0.00785578518 4.1955606,-0.00785578518 C5.66908293,-0.00785578518 6.87679453,1.16136166 6.92454318,2.63412265 Z" id="路径" transform="translate(6.295093, 6.287237) rotate(-270.000000) translate(-6.295093, -6.287237) "></path>
        </g>
    </g>
</svg>