<?xml version="1.0" encoding="UTF-8"?>
<svg width="16px" height="16px" viewBox="0 0 16 16" version="1.1" xmlns="http://www.w3.org/2000/svg" xmlns:xlink="http://www.w3.org/1999/xlink">
    <title>ic_close</title>
    <g id="ic_close" stroke="none" stroke-width="1" fill="none" fill-rule="evenodd">
        <rect id="Rectangle-24" fill="#D8D8D8" opacity="0" x="0" y="0" width="16" height="16"></rect>
        <path d="M3.36199955,1.93584131 L7.99928792,6.57328792 L12.6380004,1.93584131 C12.8115668,1.76227496 13.0809912,1.74298981 13.2758593,1.87798586 L13.3451072,1.93584131 L14.0641587,2.65489277 C14.2594208,2.85015492 14.2594208,3.16673741 14.0641587,3.36199955 L14.0641587,3.36199955 L9.42528792,7.99928792 L14.0641587,12.6380004 C14.2594208,12.8332626 14.2594208,13.1498451 14.0641587,13.3451072 L13.3451072,14.0641587 C13.1498451,14.2594208 12.8332626,14.2594208 12.6380004,14.0641587 L7.99928792,9.42528792 L3.36199955,14.0641587 C3.1884332,14.237725 2.9190088,14.2570102 2.72414066,14.1220141 L2.65489277,14.0641587 L1.93584131,13.3451072 C1.74057917,13.1498451 1.74057917,12.8332626 1.93584131,12.6380004 L1.93584131,12.6380004 L6.57328792,7.99928792 L1.93584131,3.36199955 C1.74057917,3.16673741 1.74057917,2.85015492 1.93584131,2.65489277 L2.65489277,1.93584131 C2.85015492,1.74057917 3.16673741,1.74057917 3.36199955,1.93584131 Z" id="Combined-Shape" fill="#808B9D"></path>
    </g>
</svg>