<?xml version="1.0" encoding="UTF-8"?>
<svg width="16px" height="16px" viewBox="0 0 16 16" version="1.1" xmlns="http://www.w3.org/2000/svg" xmlns:xlink="http://www.w3.org/1999/xlink">
    <title>ic_底栏_下载_鼠标悬浮</title>
    <g id="ic_底栏_下载_鼠标悬浮" stroke="none" stroke-width="1" fill="none" fill-rule="evenodd">
        <rect id="矩形" fill="#D8D8D8" opacity="0" x="0" y="0" width="16" height="16"></rect>
        <path d="M13.432395,3.89309543 L9.32341278,3.89309543 L9.3234128,3.89309543 C9.09781306,3.89449904 8.88997699,3.77089144 8.78350549,3.57199195 L7.71221439,1.56581283 L7.71221442,1.56581289 C7.50251753,1.17382121 7.09400494,0.929149751 6.64944818,0.929289552 L2.79621177,0.929289552 L2.7962117,0.929289552 C1.96711585,0.929289552 1.29455773,1.60057167 1.29299928,2.42966485 L1.29299928,13.0686893 L1.29299928,13.0686903 C1.29456714,13.8977834 1.96712118,14.5690655 2.7962117,14.5690655 L13.432399,14.5690655 L13.4323989,14.5690655 C14.2610339,14.5690655 14.9327769,13.8973252 14.9327769,13.0686903 L14.9327769,5.39631687 L14.9327769,5.39631262 C14.9343412,4.56768031 14.2638724,3.89467197 13.4352361,3.8931002 C13.434288,3.89309841 13.4333399,3.89309752 13.4323918,3.89309752 L13.432395,3.89309543 Z M8.37082128,11.676012 C8.25197108,11.8092577 8.0476078,11.8209276 7.91436217,11.702077 C7.90518521,11.6938915 7.89648273,11.6851891 7.88829716,11.676012 L6.19946663,9.72419833 C6.08352515,9.58841493 6.09961051,9.38435135 6.23539426,9.26840986 C6.29272196,9.21945953 6.36535345,9.19208141 6.44072899,9.19100964 L7.31409796,9.19100964 L7.31409796,6.40834067 C7.31542273,6.24805698 7.44573543,6.1188261 7.60602465,6.1188261 L8.61208737,6.1188261 C8.7723766,6.1188261 8.90268977,6.24805698 8.90401407,6.40834055 L8.90401407,9.19100953 L9.77979528,9.19100953 C9.95833975,9.19222736 10.1020916,9.33795395 10.1008964,9.51649841 C10.1003539,9.59269002 10.0729403,9.66624976 10.0234698,9.72419902 L8.37082128,11.676012 Z" id="形状" fill="#FFFFFF"></path>
    </g>
</svg>