<?xml version="1.0" encoding="UTF-8"?>
<svg width="16px" height="16px" viewBox="0 0 16 16" version="1.1" xmlns="http://www.w3.org/2000/svg" xmlns:xlink="http://www.w3.org/1999/xlink">
    <title>ic_downloading </title>
    <defs>
        <rect id="path-1" x="0" y="0" width="16" height="16"></rect>
    </defs>
    <g id="ic_downloading-" stroke="none" stroke-width="1" fill="none" fill-rule="evenodd">
        <mask id="mask-2" fill="white">
            <use xlink:href="#path-1"></use>
        </mask>
        <use id="矩形" fill="#055FE7" opacity="0" xlink:href="#path-1"></use>
        <path d="M3.8,1 C3.91045695,1 4,1.08954305 4,1.2 L4,1.8 C4,1.91045695 3.91045695,2 3.8,2 L1,2 L1,14 L3.8,14 C3.91045695,14 4,14.0895431 4,14.2 L4,14.8 C4,14.9104569 3.91045695,15 3.8,15 L1,15 C0.487164161,15 0.0644928393,14.6139598 0.00672773133,14.1166211 L4.75175455e-14,14 L4.6629367e-14,2 C4.6629367e-14,1.44771525 0.44771525,1 1,1 L3.8,1 Z M9.04636576,3.16393102 L9.09827561,3.20142136 L9.52253967,3.62568542 C9.58502356,3.68816931 9.59752034,3.78171121 9.56003001,3.8566183 L9.52253967,3.90852814 L5.94110678,7.48984271 L15.8,7.49 C15.8920475,7.49 15.9695714,7.55218267 15.9928558,7.63683208 L16,7.69 L16,8.29 C16,8.38204746 15.9378173,8.45957137 15.8531679,8.48285581 L15.8,8.49 L5.90410678,8.48984271 L9.52253967,12.1083261 C9.58502356,12.17081 9.59752034,12.2643519 9.56003001,12.339259 L9.52253967,12.3911688 L9.09827561,12.8154329 C9.03579172,12.8779168 8.94224982,12.8904136 8.86734273,12.8529232 L8.81543289,12.8154329 L4.71610678,8.71584271 L4.71421356,8.71685425 L4.00710678,8.00974747 L4.00810678,8.00784271 L4.00710678,8.00710678 L4.71421356,7.3 L4.71510678,7.30084271 L8.81543289,3.20142136 C8.87791678,3.13893747 8.97145867,3.12644069 9.04636576,3.16393102 Z" id="形状结合" fill="#FFFFFF" fill-rule="nonzero" mask="url(#mask-2)" transform="translate(8.000000, 8.000000) rotate(-90.000000) translate(-8.000000, -8.000000) "></path>
    </g>
</svg>