<?xml version="1.0" encoding="UTF-8"?>
<svg width="16px" height="16px" viewBox="0 0 16 16" version="1.1" xmlns="http://www.w3.org/2000/svg" xmlns:xlink="http://www.w3.org/1999/xlink">
    <title>ic_move_hover</title>
    <defs>
        <rect id="path-1" x="0" y="0" width="16" height="16"></rect>
    </defs>
    <g id="ic_move_hover" stroke="none" stroke-width="1" fill="none" fill-rule="evenodd">
        <mask id="mask-2" fill="white">
            <use xlink:href="#path-1"></use>
        </mask>
        <use id="矩形" fill="#055FE7" opacity="0" xlink:href="#path-1"></use>
        <g id="移动" mask="url(#mask-2)">
            <g transform="translate(0.338303, 0.388690)"></g>
        </g>
        <path d="M8.11531584,10.0852218 C8.22577279,10.0852218 8.31531584,10.1747649 8.31531584,10.2852218 L8.31531584,10.2852218 L8.3144421,13.1865207 L9.44166143,12.0599615 C9.51976629,11.9818567 9.64639929,11.9818567 9.72450415,12.0599615 L9.72450415,12.0599615 L10.1487682,12.4842256 C10.2268731,12.5623305 10.2268731,12.6889635 10.1487682,12.7670683 L10.1487682,12.7670683 L8.52171551,14.3927068 L7.95673719,14.9590993 C7.87863233,15.0372042 7.75199934,15.0372042 7.67389448,14.9590993 L7.67389448,14.9590993 L5.48186346,12.7670683 C5.4037586,12.6889635 5.4037586,12.5623305 5.48186346,12.4842256 L5.48186346,12.4842256 L5.90612753,12.0599615 C5.98423239,11.9818567 6.11086538,11.9818567 6.18897024,12.0599615 L6.18897024,12.0599615 L7.3144421,13.1865207 L7.31531584,10.2852218 C7.31531584,10.1747649 7.40485889,10.0852218 7.51531584,10.0852218 L7.51531584,10.0852218 Z M12.6594111,5.54234836 L14.8514421,7.73437938 C14.929547,7.81248424 14.929547,7.93911723 14.8514421,8.01722209 L14.2850496,8.58220041 L12.6594111,10.2092531 C12.5813063,10.287358 12.4546733,10.287358 12.3765684,10.2092531 L11.9523043,9.78498904 C11.8741995,9.70688419 11.8741995,9.58025119 11.9523043,9.50214633 L13.0788635,8.374927 L10.1775646,8.37580074 C10.0671077,8.37580074 9.97756464,8.28625769 9.97756464,8.17580074 L9.97756464,7.57580074 C9.97756464,7.46534379 10.0671077,7.37580074 10.1775646,7.37580074 L13.0788635,7.374927 L11.9523043,6.24945514 C11.8741995,6.17135028 11.8741995,6.04471728 11.9523043,5.96661243 L12.3765684,5.54234836 C12.4546733,5.4642435 12.5813063,5.4642435 12.6594111,5.54234836 Z M2.99522917,5.54234836 C3.07333403,5.4642435 3.19996702,5.4642435 3.27807188,5.54234836 L3.27807188,5.54234836 L3.70233595,5.96661243 C3.78044081,6.04471728 3.78044081,6.17135028 3.70233595,6.24945514 L3.70233595,6.24945514 L2.57577679,7.374927 L5.47707564,7.37580074 C5.58753259,7.37580074 5.67707564,7.46534379 5.67707564,7.57580074 L5.67707564,7.57580074 L5.67707564,8.17580074 C5.67707564,8.28625769 5.58753259,8.37580074 5.47707564,8.37580074 L5.47707564,8.37580074 L2.57577679,8.374927 L3.70233595,9.50214633 C3.78044081,9.58025119 3.78044081,9.70688419 3.70233595,9.78498904 L3.70233595,9.78498904 L3.27807188,10.2092531 C3.19996702,10.287358 3.07333403,10.287358 2.99522917,10.2092531 L2.99522917,10.2092531 L1.36959068,8.58220041 L0.803198147,8.01722209 C0.725093289,7.93911723 0.725093289,7.81248424 0.803198147,7.73437938 L0.803198147,7.73437938 Z M7.95673719,0.934939985 L8.52171551,1.50133252 L10.1487682,3.12697101 C10.2268731,3.20507586 10.2268731,3.33170886 10.1487682,3.40981372 L9.72450415,3.83407779 C9.64639929,3.91218265 9.51976629,3.91218265 9.44166143,3.83407779 L8.3144421,2.70751863 L8.31531584,5.60881748 C8.31531584,5.71927443 8.22577279,5.80881748 8.11531584,5.80881748 L7.51531584,5.80881748 C7.40485889,5.80881748 7.31531584,5.71927443 7.31531584,5.60881748 L7.3144421,2.70751863 L6.18897024,3.83407779 C6.11086538,3.91218265 5.98423239,3.91218265 5.90612753,3.83407779 L5.48186346,3.40981372 C5.4037586,3.33170886 5.4037586,3.20507586 5.48186346,3.12697101 L7.67389448,0.934939985 C7.75199934,0.856835126 7.87863233,0.856835126 7.95673719,0.934939985 Z" id="形状结合" fill="#FFFFFF" fill-rule="nonzero" mask="url(#mask-2)"></path>
    </g>
</svg>