<?xml version="1.0" encoding="UTF-8"?>
<svg width="16px" height="16px" viewBox="0 0 16 16" version="1.1" xmlns="http://www.w3.org/2000/svg" xmlns:xlink="http://www.w3.org/1999/xlink">
    <title>ic_move_click</title>
    <defs>
        <rect id="path-1" x="0" y="0" width="16" height="16"></rect>
    </defs>
    <g id="ic_move_click" stroke="none" stroke-width="1" fill="none" fill-rule="evenodd">
        <mask id="mask-2" fill="white">
            <use xlink:href="#path-1"></use>
        </mask>
        <use id="矩形" fill="#055FE7" opacity="0" xlink:href="#path-1"></use>
        <g id="移动" mask="url(#mask-2)" fill="#5D6573" fill-rule="nonzero">
            <g transform="translate(0.338303, 0.388690)" id="形状结合">
                <path d="M7.7770133,9.69653136 C7.88747025,9.69653136 7.9770133,9.78607441 7.9770133,9.89653136 L7.9770133,9.89653136 L7.97613957,12.7978302 L9.1033589,11.671271 C9.18146376,11.5931662 9.30809675,11.5931662 9.38620161,11.671271 L9.38620161,11.671271 L9.81046568,12.0955351 C9.88857054,12.17364 9.88857054,12.300273 9.81046568,12.3783778 L9.81046568,12.3783778 L8.18341298,14.0040163 L7.61843466,14.5704089 C7.5403298,14.6485137 7.4136968,14.6485137 7.33559195,14.5704089 L7.33559195,14.5704089 L5.14356092,12.3783778 C5.06545607,12.300273 5.06545607,12.17364 5.14356092,12.0955351 L5.14356092,12.0955351 L5.56782499,11.671271 C5.64592985,11.5931662 5.77256285,11.5931662 5.8506677,11.671271 L5.8506677,11.671271 L6.97613957,12.7978302 L6.9770133,9.89653136 C6.9770133,9.78607441 7.06655635,9.69653136 7.1770133,9.69653136 L7.1770133,9.69653136 Z M12.3211086,5.15365787 L14.5131396,7.34568889 C14.5912445,7.42379375 14.5912445,7.55042675 14.5131396,7.62853161 L13.9467471,8.19350992 L12.3211086,9.82056263 C12.2430037,9.89866749 12.1163707,9.89866749 12.0382659,9.82056263 L11.6140018,9.39629856 C11.5358969,9.3181937 11.5358969,9.1915607 11.6140018,9.11345585 L12.740561,7.98623651 L9.83926211,7.98711025 C9.72880516,7.98711025 9.63926211,7.8975672 9.63926211,7.78711025 L9.63926211,7.18711025 C9.63926211,7.0766533 9.72880516,6.98711025 9.83926211,6.98711025 L12.740561,6.98623651 L11.6140018,5.86076465 C11.5358969,5.78265979 11.5358969,5.6560268 11.6140018,5.57792194 L12.0382659,5.15365787 C12.1163707,5.07555301 12.2430037,5.07555301 12.3211086,5.15365787 Z M2.65692663,5.15365787 C2.73503149,5.07555301 2.86166449,5.07555301 2.93976935,5.15365787 L2.93976935,5.15365787 L3.36403341,5.57792194 C3.44213827,5.6560268 3.44213827,5.78265979 3.36403341,5.86076465 L3.36403341,5.86076465 L2.23747426,6.98623651 L5.13877311,6.98711025 C5.24923006,6.98711025 5.33877311,7.0766533 5.33877311,7.18711025 L5.33877311,7.18711025 L5.33877311,7.78711025 C5.33877311,7.8975672 5.24923006,7.98711025 5.13877311,7.98711025 L5.13877311,7.98711025 L2.23747426,7.98623651 L3.36403341,9.11345585 C3.44213827,9.1915607 3.44213827,9.3181937 3.36403341,9.39629856 L3.36403341,9.39629856 L2.93976935,9.82056263 C2.86166449,9.89866749 2.73503149,9.89866749 2.65692663,9.82056263 L2.65692663,9.82056263 L1.03128814,8.19350992 L0.464895612,7.62853161 C0.386790753,7.55042675 0.386790753,7.42379375 0.464895612,7.34568889 L0.464895612,7.34568889 Z M7.61843466,0.546249498 L8.18341298,1.11264203 L9.81046568,2.73828052 C9.88857054,2.81638538 9.88857054,2.94301837 9.81046568,3.02112323 L9.38620161,3.4453873 C9.30809675,3.52349216 9.18146376,3.52349216 9.1033589,3.4453873 L7.97613957,2.31882814 L7.9770133,5.220127 C7.9770133,5.33058395 7.88747025,5.420127 7.7770133,5.420127 L7.1770133,5.420127 C7.06655635,5.420127 6.9770133,5.33058395 6.9770133,5.220127 L6.97613957,2.31882814 L5.8506677,3.4453873 C5.77256285,3.52349216 5.64592985,3.52349216 5.56782499,3.4453873 L5.14356092,3.02112323 C5.06545607,2.94301837 5.06545607,2.81638538 5.14356092,2.73828052 L7.33559195,0.546249498 C7.4136968,0.46814464 7.5403298,0.46814464 7.61843466,0.546249498 Z"></path>
            </g>
        </g>
    </g>
</svg>