<?xml version="1.0" encoding="UTF-8"?>
<svg width="16px" height="16px" viewBox="0 0 16 16" version="1.1" xmlns="http://www.w3.org/2000/svg" xmlns:xlink="http://www.w3.org/1999/xlink">
    <title>ic_way_point</title>
    <g id="ic_way_point" stroke="none" stroke-width="1" fill="none" fill-rule="evenodd">
        <path d="M6.98251208,1.20616587 C7.61027115,1.56860274 7.92852552,2.26124626 7.84454703,2.93803019 L12.0034724,5.33855623 C12.5440435,4.73351978 13.4521205,4.56882227 14.1825514,4.99053675 C15.0195635,5.4737859 15.306345,6.54406911 14.8230959,7.3810812 C14.3398467,8.2180933 13.2695635,8.50487482 12.4325514,8.02162566 C12.1157875,7.8387419 11.8778283,7.57178225 11.7305875,7.26520859 L4.42031285,8.97378374 C4.40053175,9.09580499 4.36752755,9.21695169 4.32075353,9.33518343 L8.93376755,11.9981181 C9.48172438,11.4867511 10.3197949,11.3685156 11.0026205,11.7627452 C11.8396326,12.2459944 12.1264141,13.3162776 11.643165,14.1532897 C11.1599158,14.9903018 10.0896326,15.2770833 9.25262052,14.7938341 C8.56322466,14.3958112 8.24709494,13.5995554 8.42704277,12.8634051 L3.69313766,10.1295191 C3.15368304,10.504865 2.42426312,10.5592422 1.81744857,10.2088976 C0.980436481,9.72564848 0.693654959,8.65536527 1.17690412,7.81835318 C1.66015327,6.98134109 2.73043648,6.69455957 3.56744857,7.17780873 C3.89901858,7.36924076 4.14424467,7.65279202 4.28946346,7.97747006 L11.572316,6.27572673 C11.5735541,6.26637199 11.5748693,6.25702074 11.5762617,6.24767389 L7.43868282,3.85818074 C6.90176635,4.488537 5.9752883,4.66609683 5.23251208,4.23725478 C4.39549999,3.75400563 4.10871847,2.68372242 4.59196763,1.84671033 C5.07521678,1.00969824 6.14549999,0.722916715 6.98251208,1.20616587 Z M9.47810147,12.9032897 C9.27099469,13.2620091 9.39390105,13.7207019 9.75262052,13.9278087 C10.11134,14.1349155 10.5700328,14.0120091 10.7771396,13.6532897 C10.9842464,13.2945702 10.86134,12.8358774 10.5026205,12.6287706 C10.1439011,12.4216638 9.68520825,12.5445702 9.47810147,12.9032897 Z M2.04292952,8.31835318 C1.83582274,8.67707265 1.9587291,9.13576545 2.31744857,9.34287223 C2.67616804,9.54997902 3.13486084,9.42707265 3.34196763,9.06835318 C3.53181551,8.739527 3.44436068,8.32669545 3.15216115,8.10064875 L3.06744857,8.04383413 C2.7087291,7.83672735 2.2500363,7.95963371 2.04292952,8.31835318 Z M12.6580324,6.1310812 C12.4509256,6.48980067 12.573832,6.94849348 12.9325514,7.15560026 C13.2912709,7.36270704 13.7499637,7.23980067 13.9570705,6.8810812 C14.1469184,6.55225503 14.0594635,6.13942347 13.767264,5.91337677 L13.6825514,5.85656215 C13.323832,5.64945537 12.8651392,5.77236174 12.6580324,6.1310812 Z M5.45799303,2.34671033 C5.25088625,2.7054298 5.37379261,3.1641226 5.73251208,3.37122938 C6.09123155,3.57833616 6.54992435,3.4554298 6.75703113,3.09671033 C6.94687902,2.76788415 6.85942419,2.3550526 6.56722466,2.1290059 L6.48251208,2.07219127 C6.12379261,1.86508449 5.66509981,1.98799086 5.45799303,2.34671033 Z" id="形状结合" fill="#A6B5CC" fill-rule="nonzero"></path>
        <path d="M6.98251208,1.20616587 C7.61027115,1.56860274 7.92852552,2.26124626 7.84454703,2.93803019 L12.0034724,5.33855623 C12.5440435,4.73351978 13.4521205,4.56882227 14.1825514,4.99053675 C15.0195635,5.4737859 15.306345,6.54406911 14.8230959,7.3810812 C14.3398467,8.2180933 13.2695635,8.50487482 12.4325514,8.02162566 C12.1157875,7.8387419 11.8778283,7.57178225 11.7305875,7.26520859 L4.42031285,8.97378374 C4.40053175,9.09580499 4.36752755,9.21695169 4.32075353,9.33518343 L8.93376755,11.9981181 C9.48172438,11.4867511 10.3197949,11.3685156 11.0026205,11.7627452 C11.8396326,12.2459944 12.1264141,13.3162776 11.643165,14.1532897 C11.1599158,14.9903018 10.0896326,15.2770833 9.25262052,14.7938341 C8.56322466,14.3958112 8.24709494,13.5995554 8.42704277,12.8634051 L3.69313766,10.1295191 C3.15368304,10.504865 2.42426312,10.5592422 1.81744857,10.2088976 C0.980436481,9.72564848 0.693654959,8.65536527 1.17690412,7.81835318 C1.66015327,6.98134109 2.73043648,6.69455957 3.56744857,7.17780873 C3.89901858,7.36924076 4.14424467,7.65279202 4.28946346,7.97747006 L11.572316,6.27572673 C11.5735541,6.26637199 11.5748693,6.25702074 11.5762617,6.24767389 L7.43868282,3.85818074 C6.90176635,4.488537 5.9752883,4.66609683 5.23251208,4.23725478 C4.39549999,3.75400563 4.10871847,2.68372242 4.59196763,1.84671033 C5.07521678,1.00969824 6.14549999,0.722916715 6.98251208,1.20616587 Z M9.47810147,12.9032897 C9.27099469,13.2620091 9.39390105,13.7207019 9.75262052,13.9278087 C10.11134,14.1349155 10.5700328,14.0120091 10.7771396,13.6532897 C10.9842464,13.2945702 10.86134,12.8358774 10.5026205,12.6287706 C10.1439011,12.4216638 9.68520825,12.5445702 9.47810147,12.9032897 Z M2.04292952,8.31835318 C1.83582274,8.67707265 1.9587291,9.13576545 2.31744857,9.34287223 C2.67616804,9.54997902 3.13486084,9.42707265 3.34196763,9.06835318 C3.53181551,8.739527 3.44436068,8.32669545 3.15216115,8.10064875 L3.06744857,8.04383413 C2.7087291,7.83672735 2.2500363,7.95963371 2.04292952,8.31835318 Z M12.6580324,6.1310812 C12.4509256,6.48980067 12.573832,6.94849348 12.9325514,7.15560026 C13.2912709,7.36270704 13.7499637,7.23980067 13.9570705,6.8810812 C14.1469184,6.55225503 14.0594635,6.13942347 13.767264,5.91337677 L13.6825514,5.85656215 C13.323832,5.64945537 12.8651392,5.77236174 12.6580324,6.1310812 Z M5.45799303,2.34671033 C5.25088625,2.7054298 5.37379261,3.1641226 5.73251208,3.37122938 C6.09123155,3.57833616 6.54992435,3.4554298 6.75703113,3.09671033 C6.94687902,2.76788415 6.85942419,2.3550526 6.56722466,2.1290059 L6.48251208,2.07219127 C6.12379261,1.86508449 5.66509981,1.98799086 5.45799303,2.34671033 Z" id="形状结合备份" fill="#A6B5CC" fill-rule="nonzero"></path>
    </g>
</svg>