<?xml version="1.0" encoding="UTF-8"?>
<svg width="34px" height="34px" viewBox="0 0 34 34" version="1.1" xmlns="http://www.w3.org/2000/svg" xmlns:xlink="http://www.w3.org/1999/xlink">
    <title>ic_add _a_desktop_shortcut</title>
    <defs>
        <rect id="path-1" x="0" y="0" width="34" height="34"></rect>
        <linearGradient x1="36.6847731%" y1="-21.2711845%" x2="57.2128442%" y2="121.77978%" id="linearGradient-3">
            <stop stop-color="#35ACFA" offset="0%"></stop>
            <stop stop-color="#055FE7" offset="100%"></stop>
        </linearGradient>
        <linearGradient x1="15.9743086%" y1="11.0523436%" x2="72.7764029%" y2="100%" id="linearGradient-4">
            <stop stop-color="#FFFFFF" stop-opacity="0.270180869" offset="0%"></stop>
            <stop stop-color="#FFFFFF" stop-opacity="0" offset="100%"></stop>
        </linearGradient>
        <linearGradient x1="35.1917239%" y1="45.7587077%" x2="58.8240931%" y2="51.3804643%" id="linearGradient-5">
            <stop stop-color="#FFFFFF" offset="0%"></stop>
            <stop stop-color="#81C0FF" offset="100%"></stop>
        </linearGradient>
        <linearGradient x1="-4.93357181%" y1="17.2364377%" x2="58.8240931%" y2="72.2222222%" id="linearGradient-6">
            <stop stop-color="#FFFFFF" offset="0%"></stop>
            <stop stop-color="#81C0FF" offset="100%"></stop>
        </linearGradient>
        <linearGradient x1="39.821245%" y1="34.3572331%" x2="69.8364183%" y2="76.6284734%" id="linearGradient-7">
            <stop stop-color="#FFFFFF" stop-opacity="0.580919813" offset="0%"></stop>
            <stop stop-color="#FFFFFF" stop-opacity="0" offset="100%"></stop>
        </linearGradient>
        <rect id="path-8" x="0" y="0" width="12" height="8"></rect>
        <linearGradient x1="35.7541509%" y1="1.33654365%" x2="50%" y2="98.6634563%" id="linearGradient-10">
            <stop stop-color="#2C9EF7" offset="0%"></stop>
            <stop stop-color="#0E6EEA" offset="100%"></stop>
        </linearGradient>
    </defs>
    <g id="ic_add-_a_desktop_shortcut" stroke="none" stroke-width="1" fill="none" fill-rule="evenodd">
        <mask id="mask-2" fill="white">
            <use xlink:href="#path-1"></use>
        </mask>
        <use id="矩形" fill="#000000" opacity="0" xlink:href="#path-1"></use>
        <circle id="椭圆形" stroke="url(#linearGradient-4)" stroke-width="0.5" fill="url(#linearGradient-3)" mask="url(#mask-2)" cx="16.171426" cy="16.4024453" r="11.75"></circle>
        <g id="选用" mask="url(#mask-2)">
            <g transform="translate(17.921158, 13.400626)"></g>
        </g>
        <g id="编组" mask="url(#mask-2)">
            <g transform="translate(10.171426, 11.250000)">
                <rect id="形状结合备份-5" fill="url(#linearGradient-5)" x="2.38903178" y="8.9715572" width="7.22193644" height="1.2" rx="0.266666667"></rect>
                <g id="矩形" stroke-width="1" fill="none">
                    <mask id="mask-9" fill="white">
                        <use xlink:href="#path-8"></use>
                    </mask>
                    <rect stroke="url(#linearGradient-7)" stroke-width="0.5" x="-0.25" y="-0.25" width="12.5" height="8.5"></rect>
                    <circle id="椭圆形" fill="#FFFFFF" opacity="0.157478696" mask="url(#mask-9)" cx="-8.8817842e-16" cy="-1.8699613" r="7.89189291"></circle>
                    <circle id="椭圆形备份-2" fill="#FFFFFF" opacity="0.126185099" mask="url(#mask-9)" cx="2.21506095" cy="-0.530436382" r="7.89189291"></circle>
                </g>
                <g id="编组-2" stroke-width="1" fill="none" transform="translate(6.657148, 4.500000)">
                    <circle id="形状结合备份" fill="#FFFFFF" fill-rule="nonzero" cx="3.5" cy="3.5" r="3.5"></circle>
                    <path d="M3.77190526,1.39657477 C3.90767063,1.39657477 4.01773021,1.50663435 4.01773021,1.64239972 L4.01690774,2.98757477 L5.43813753,2.98829242 C5.54859448,2.98829242 5.63813753,3.07783547 5.63813753,3.18829242 L5.63813753,3.81170758 C5.63813753,3.92216453 5.54859448,4.01170758 5.43813753,4.01170758 L4.01690774,4.01157477 L4.01773021,5.35760028 C4.01773021,5.49336565 3.90767063,5.60342523 3.77190526,5.60342523 L3.24014001,5.60342523 C3.10437464,5.60342523 2.99431506,5.49336565 2.99431506,5.35760028 L2.99390774,4.01157477 L1.57390774,4.01170758 C1.46345079,4.01170758 1.37390774,3.92216453 1.37390774,3.81170758 L1.37390774,3.18829242 C1.37390774,3.07783547 1.46345079,2.98829242 1.57390774,2.98829242 L2.99390774,2.98757477 L2.99431506,1.64239972 C2.99431506,1.50663435 3.10437464,1.39657477 3.24014001,1.39657477 L3.77190526,1.39657477 Z" id="形状结合" fill="url(#linearGradient-10)"></path>
                </g>
            </g>
        </g>
    </g>
</svg>