<?xml version="1.0" encoding="UTF-8"?>
<svg width="16px" height="16px" viewBox="0 0 16 16" version="1.1" xmlns="http://www.w3.org/2000/svg" xmlns:xlink="http://www.w3.org/1999/xlink">
    <title>ic_back_to_ast_point</title>
    <defs>
        <rect id="path-1" x="0" y="0" width="16" height="16"></rect>
    </defs>
    <g id="ic_back_to_ast_point" stroke="none" stroke-width="1" fill="none" fill-rule="evenodd">
        <g id="ic_location">
            <mask id="mask-2" fill="white">
                <use xlink:href="#path-1"></use>
            </mask>
            <use id="矩形" fill="#055FE7" opacity="0" xlink:href="#path-1"></use>
        </g>
        <g id="上一步" fill="#000000" fill-rule="nonzero" opacity="0">
            <rect id="矩形" x="0" y="0" width="16" height="16"></rect>
        </g>
        <path d="M4.66812137,6.7306418 C4.75020688,6.80455193 4.75683434,6.93101138 4.68292421,7.01309689 L4.28144585,7.45898379 C4.20753572,7.5410693 4.08107627,7.54769675 3.99899076,7.47378663 L0.952096978,4.73035114 C0.900930343,4.6842805 0.879082515,4.6177921 0.887783719,4.55436007 C0.882972318,4.502939 0.899733251,4.44976322 0.937294134,4.40804763 L3.68072962,1.36115385 C3.75463975,1.27906834 3.8810992,1.27244088 3.96318471,1.34635101 L4.4090716,1.74782937 C4.49115711,1.82173949 4.49778457,1.94819894 4.42387445,2.03028446 L2.72892139,3.90997826 L9.69159547,3.91006882 C12.9568403,3.91006882 15.6140786,6.43254261 15.6140786,9.55754528 C15.6140786,12.6098735 13.0789957,15.0873715 9.91839099,15.2009532 L9.69159547,15.2050217 L7.66377503,15.2050217 L7.66377503,14.2050217 L9.69159547,14.2050217 C12.4158601,14.2050217 14.6140786,12.1182881 14.6140786,9.55754528 C14.6140786,7.06601171 12.533077,5.02321147 9.91129602,4.91460981 L9.69159547,4.91006882 L2.64692139,4.90997826 L4.66812137,6.7306418 Z" id="形状结合" fill="#A6B5CC" fill-rule="nonzero"></path>
    </g>
</svg>