<?xml version="1.0" encoding="UTF-8"?>
<svg width="16px" height="16px" viewBox="0 0 16 16" version="1.1" xmlns="http://www.w3.org/2000/svg" xmlns:xlink="http://www.w3.org/1999/xlink">
    <title>ic_back_the_starting_point</title>
    <defs>
        <rect id="path-1" x="0" y="0" width="16" height="16"></rect>
    </defs>
    <g id="ic_back_the_starting_point" stroke="none" stroke-width="1" fill="none" fill-rule="evenodd">
        <g id="ic_刷新">
            <mask id="mask-2" fill="white">
                <use xlink:href="#path-1"></use>
            </mask>
            <use id="矩形" fill="#055FE7" opacity="0" xlink:href="#path-1"></use>
        </g>
        <path d="M8,0.5 C8.46245446,0.5 8.91513304,0.541855493 9.35445418,0.621984906 L8.97183514,1.5721625 C8.65480147,1.52463317 8.33027743,1.5 8,1.5 C4.41014913,1.5 1.5,4.41014913 1.5,8 C1.5,11.5898509 4.41014913,14.5 8,14.5 C11.5898509,14.5 14.5,11.5898509 14.5,8 C14.5,5.55189404 13.1466104,3.41988917 11.1472121,2.3113664 L11.5239513,1.37776289 C13.8897761,2.63933866 15.5,5.13162536 15.5,8 C15.5,12.1421356 12.1421356,15.5 8,15.5 C3.85786438,15.5 0.5,12.1421356 0.5,8 C0.5,3.85786438 3.85786438,0.5 8,0.5 Z" id="形状结合" fill="#A5B5CD" fill-rule="nonzero"></path>
        <path d="M10.604119,2.6224799 L13.0129892,-0.0528414685 C13.0868993,-0.134926979 13.2133588,-0.141554438 13.2954443,-0.0676443123 L13.7413312,0.333834052 C13.8234167,0.407744177 13.8300442,0.534203627 13.756134,0.616289138 L11.8767463,2.70198295 L13.9633738,4.58073842 C14.0454594,4.65464855 14.0520868,4.781108 13.9781767,4.86319351 L13.5766983,5.3090804 C13.5027882,5.39116591 13.3763287,5.39779337 13.2942432,5.32388324 L10.6189219,2.91501306 C10.5696706,2.87066699 10.5475841,2.80740315 10.5537598,2.74615699 L10.5537598,2.73607892 C10.5578769,2.69524814 10.574555,2.65531411 10.604119,2.6224799 Z" id="形状结合备份" fill="#A6B5CC" fill-rule="nonzero" transform="translate(12.291148, 2.628119) rotate(48.000000) translate(-12.291148, -2.628119) "></path>
    </g>
</svg>