<?xml version="1.0" encoding="UTF-8"?>
<svg width="16px" height="16px" viewBox="0 0 16 16" version="1.1" xmlns="http://www.w3.org/2000/svg" xmlns:xlink="http://www.w3.org/1999/xlink">
    <title>ic_delete_white</title>
    <g id="ic_delete_white" stroke="none" stroke-width="1" fill="none" fill-rule="evenodd">
        <rect id="矩形" fill="#D8D8D8" opacity="0" x="0" y="0" width="16" height="16"></rect>
        <path d="M14.8,2 C14.9104569,2 15,2.08954305 15,2.2 L15,2.8 C15,2.91045695 14.9104569,3 14.8,3 L14,3 L14,15 C14,15.5128358 13.6139598,15.9355072 13.1166211,15.9932723 L13,16 L3,16 C2.44771525,16 2,15.5522847 2,15 L2,3 L1.2,3 C1.08954305,3 1,2.91045695 1,2.8 L1,2.2 C1,2.08954305 1.08954305,2 1.2,2 L14.8,2 Z M13,3 L3,3 L3,15 L13,15 L13,3 Z M7,6.5 L7,12.5 L6,12.5 L6,6.5 L7,6.5 Z M10,6.5 L10,12.5 L9,12.5 L9,6.5 L10,6.5 Z M9.8,0 C9.91045695,-2.02906125e-17 10,0.08954305 10,0.2 L10,0.8 C10,0.91045695 9.91045695,1 9.8,1 L6.2,1 C6.08954305,1 6,0.91045695 6,0.8 L6,0.2 C6,0.08954305 6.08954305,2.02906125e-17 6.2,0 L9.8,0 Z" id="形状结合" fill="#FFFFFF" fill-rule="nonzero"></path>
    </g>
</svg>