<?xml version="1.0" encoding="UTF-8"?>
<svg width="16px" height="16px" viewBox="0 0 16 16" version="1.1" xmlns="http://www.w3.org/2000/svg" xmlns:xlink="http://www.w3.org/1999/xlink">
    <title>ic_eit_full_screen</title>
    <g id="ic_eit_full_screen" stroke="none" stroke-width="1" fill="none" fill-rule="evenodd">
        <rect id="矩形" fill="#D8D8D8" opacity="0" x="0" y="0" width="16" height="16"></rect>
        <path d="M4.97706682,10.2780904 C5.52935156,10.2780904 5.97706682,10.7258056 5.97706682,11.2780904 L5.97706682,15.0780904 C5.97706682,15.1885473 5.88752377,15.2780904 5.77706682,15.2780904 L5.17706682,15.2780904 C5.06660987,15.2780904 4.97706682,15.1885473 4.97706682,15.0780904 L4.97706682,11.2780904 L1.17706682,11.2780904 C1.06660987,11.2780904 0.977066815,11.1885473 0.977066815,11.0780904 L0.977066815,10.4780904 C0.977066815,10.3676334 1.06660987,10.2780904 1.17706682,10.2780904 L4.97706682,10.2780904 Z M14.8229332,10.2780904 C14.9333901,10.2780904 15.0229332,10.3676334 15.0229332,10.4780904 L15.0229332,10.4780904 L15.0229332,11.0780904 C15.0229332,11.1885473 14.9333901,11.2780904 14.8229332,11.2780904 L14.8229332,11.2780904 L11.0229332,11.2780904 L11.0229332,15.0780904 C11.0229332,15.1885473 10.9333901,15.2780904 10.8229332,15.2780904 L10.8229332,15.2780904 L10.2229332,15.2780904 C10.1124762,15.2780904 10.0229332,15.1885473 10.0229332,15.0780904 L10.0229332,15.0780904 L10.0229332,11.2780904 C10.0229332,10.7258056 10.4706484,10.2780904 11.0229332,10.2780904 L11.0229332,10.2780904 Z M5.77706682,0.977066815 C5.88752377,0.977066815 5.97706682,1.06660987 5.97706682,1.17706682 L5.97706682,1.17706682 L5.97706682,4.97706682 C5.97706682,5.52935156 5.52935156,5.97706682 4.97706682,5.97706682 L4.97706682,5.97706682 L1.17706682,5.97706682 C1.06660987,5.97706682 0.977066815,5.88752377 0.977066815,5.77706682 L0.977066815,5.77706682 L0.977066815,5.17706682 C0.977066815,5.06660987 1.06660987,4.97706682 1.17706682,4.97706682 L1.17706682,4.97706682 L4.97706682,4.97706682 L4.97706682,1.17706682 C4.97706682,1.06660987 5.06660987,0.977066815 5.17706682,0.977066815 L5.17706682,0.977066815 Z M10.8229332,0.977066815 C10.9333901,0.977066815 11.0229332,1.06660987 11.0229332,1.17706682 L11.0229332,4.97706682 L14.8229332,4.97706682 C14.9333901,4.97706682 15.0229332,5.06660987 15.0229332,5.17706682 L15.0229332,5.77706682 C15.0229332,5.88752377 14.9333901,5.97706682 14.8229332,5.97706682 L11.0229332,5.97706682 C10.4706484,5.97706682 10.0229332,5.52935156 10.0229332,4.97706682 L10.0229332,1.17706682 C10.0229332,1.06660987 10.1124762,0.977066815 10.2229332,0.977066815 L10.8229332,0.977066815 Z" id="形状结合" fill="#A6B5CC" fill-rule="nonzero"></path>
    </g>
</svg>