<?xml version="1.0" encoding="UTF-8"?>
<svg width="24px" height="24px" viewBox="0 0 24 24" version="1.1" xmlns="http://www.w3.org/2000/svg" xmlns:xlink="http://www.w3.org/1999/xlink">
    <title> ic_way_point-24</title>
    <g id="-ic_way_point-24" stroke="none" stroke-width="1" fill="none" fill-rule="evenodd">
        <g id="24gl-repeat2" transform="translate(0.967992, 1.435427)" fill="#A6B5CC" fill-rule="nonzero">
            <path d="M18.3805575,3.9572612 C18.4704395,3.9572612 18.5592129,3.97364326 18.6500214,4.00956426 L18.7416247,4.05211516 L18.8249163,4.10585733 C19.6128543,4.69903713 20.2857441,5.4293116 20.8139362,6.26389792 L21.0051676,6.58169338 L21.1787719,6.90222314 C23.2095258,10.8807767 21.6305292,15.7522746 17.6519858,17.7830175 C16.6156801,18.311976 15.4787,18.6104953 14.3190812,18.6598605 L13.9705944,18.6671767 L8.44565147,18.6677927 L9.63850448,19.8614626 C9.93139769,20.1543558 9.93139769,20.6292296 9.63850448,20.9221228 C9.34561126,21.215016 8.87073752,21.215016 8.5778443,20.9221228 L8.12565147,20.4697927 L8.05733551,20.4104624 L6.09737042,18.4504973 C5.95224376,18.3054039 5.87884455,18.1130695 5.88350994,17.9162103 C5.8834275,17.7246449 5.95665075,17.5329087 6.10297057,17.3865889 L8.5778443,14.9117152 C8.87073752,14.6188219 9.34561126,14.6188219 9.63850448,14.9117152 C9.93139769,15.2046084 9.93139769,15.6794821 9.63850448,15.9723753 L8.42365147,17.1877927 L13.9705944,17.1871847 C17.4579015,17.1871847 20.324081,14.47105 20.5642657,11.0436481 L20.5765492,10.808883 L20.580555,10.5772241 C20.580555,8.66295643 19.77959,6.88948426 18.3620986,5.63564086 L18.1554257,5.46009617 L17.9357485,5.28809806 C17.6094353,5.04203586 17.5443784,4.57803342 17.7904411,4.25172295 C17.879218,4.13399232 18.0003894,4.04638667 18.149389,3.99685639 L18.2662852,3.96697204 L18.3805575,3.9572612 Z M13.4868072,0.219669914 L13.939,0.672 L14.007316,0.73133031 L15.967281,2.6912954 C16.1124077,2.8363888 16.1858069,3.02872322 16.1811415,3.22558244 C16.181224,3.4171478 16.1080007,3.608884 15.9616809,3.75520382 L13.4868072,6.23007755 C13.1939139,6.52297077 12.7190402,6.52297077 12.426147,6.23007755 C12.1332538,5.93718434 12.1332538,5.4623106 12.426147,5.16941738 L13.641,3.954 L8.09405705,3.95460801 C4.60675,3.95460801 1.74057045,6.67074266 1.50038577,10.0981446 L1.48810229,10.3329097 L1.48409644,10.5645686 C1.48409644,12.4788363 2.28506151,14.2523085 3.70255289,15.5061519 L3.9092258,15.6816965 L4.12890301,15.8536947 C4.45521619,16.0997569 4.52027307,16.5637593 4.27421032,16.8900698 C4.1854335,17.0078004 4.06426204,17.095406 3.91526244,17.1449363 L3.79836631,17.1748207 L3.68409399,17.1845315 C3.59421197,17.1845315 3.50543855,17.1681495 3.41463005,17.1322285 L3.32302675,17.0896776 L3.23973516,17.0359354 C2.45179716,16.4427556 1.7789074,15.7124811 1.25071528,14.8778948 L1.05948385,14.5600993 L0.885879597,14.2395696 C-1.14487428,10.261016 0.434122281,5.38951806 4.41266566,3.35877519 C5.44897141,2.82981674 6.58595144,2.53129737 7.74557028,2.48193221 L8.09405706,2.474616 L13.619,2.474 L12.426147,1.28033009 C12.1332538,0.987436867 12.1332538,0.512563133 12.426147,0.219669914 C12.7190402,-0.0732233047 13.1939139,-0.0732233047 13.4868072,0.219669914 Z" id="形状结合"></path>
        </g>
    </g>
</svg>