<?xml version="1.0" encoding="UTF-8"?>
<svg width="24px" height="24px" viewBox="0 0 24 24" version="1.1" xmlns="http://www.w3.org/2000/svg" xmlns:xlink="http://www.w3.org/1999/xlink">
    <title> ic_location</title>
    <defs>
        <rect id="path-1" x="0" y="0" width="24" height="24"></rect>
    </defs>
    <g id="-ic_location" stroke="none" stroke-width="1" fill="none" fill-rule="evenodd">
        <g id="ic_location">
            <mask id="mask-2" fill="white">
                <use xlink:href="#path-1"></use>
            </mask>
            <use id="矩形" fill="#055FE7" opacity="0" xlink:href="#path-1"></use>
        </g>
        <g id="编组" transform="translate(0.628170, 0.837173)" fill="#A6B5CC" fill-rule="nonzero">
            <path d="M11.5223184,0 C11.936532,3.49325055e-17 12.2723184,0.335786438 12.2723184,0.75 L12.2728343,2.58041318 C16.4526799,2.91716776 19.7897236,6.23902366 20.1501322,10.4121478 L21.8945612,10.4128266 C22.3087747,10.4128266 22.6445612,10.748613 22.6445612,11.1628266 C22.6445612,11.5770402 22.3087747,11.9128266 21.8945612,11.9128266 L20.1502116,11.9125849 C19.7902143,16.0861411 16.4529872,19.4084607 12.2728343,19.74524 L12.2723184,21.5756532 C12.2723184,21.9898668 11.936532,22.3256532 11.5223184,22.3256532 C11.1081048,22.3256532 10.7723184,21.9898668 10.7723184,21.5756532 L10.7721662,19.7367166 C6.63697484,19.3558863 3.3485762,16.0511118 2.99318192,11.9086047 L2.94022887,11.9128266 L2.94022887,11.9128266 L0.75,11.9128266 C0.335786438,11.9128266 -1.0658141e-14,11.5770402 -1.0658141e-14,11.1628266 C-1.11022302e-14,10.748613 0.335786438,10.4128266 0.75,10.4128266 L2.94022887,10.4128266 L2.99325961,10.4161435 C3.34905513,6.2740601 6.63727597,2.96973919 10.7721662,2.58893664 L10.7723184,0.75 C10.7723184,0.335786438 11.1081048,-1.45954808e-16 11.5223184,0 Z M11.571868,4.05229258 C7.64482847,4.05229258 4.46133394,7.2357871 4.46133394,11.1628266 C4.46133394,15.0898661 7.64482847,18.2733606 11.571868,18.2733606 C15.4989075,18.2733606 18.682402,15.0898661 18.682402,11.1628266 C18.682402,7.2357871 15.4989075,4.05229258 11.571868,4.05229258 Z M11.571868,6.24252145 C14.2892775,6.24252145 16.4921731,8.44541711 16.4921731,11.1628266 C16.4921731,13.8802361 14.2892775,16.0831318 11.571868,16.0831318 C8.85445847,16.0831318 6.65156282,13.8802361 6.65156282,11.1628266 C6.65156282,8.44541711 8.85445847,6.24252145 11.571868,6.24252145 Z" id="形状结合"></path>
        </g>
    </g>
</svg>