<?xml version="1.0" encoding="UTF-8"?>
<svg width="16px" height="16px" viewBox="0 0 16 16" version="1.1" xmlns="http://www.w3.org/2000/svg" xmlns:xlink="http://www.w3.org/1999/xlink">
    <title>ic_loop_routing</title>
    <g id="ic_loop_routing" stroke="none" stroke-width="1" fill="none" fill-rule="evenodd">
        <rect id="矩形" fill="#D8D8D8" opacity="0" x="0" y="0" width="16" height="16"></rect>
        <g id="操作-循环1" fill-rule="nonzero">
            <rect id="矩形" fill="#000000" opacity="0" x="0" y="0" width="16" height="16"></rect>
            <path d="M6.03559502,2.22096022 L6.48148191,2.62243858 C6.56356742,2.6963487 6.57019488,2.82280815 6.49628476,2.90489367 L5.74345741,3.73958747 L10.5394623,3.73965652 C11.5955199,3.73965652 12.593674,4.1216824 13.3756429,4.82096978 L13.5521876,4.98794617 C14.355483,5.7913055 14.7985426,6.86241928 14.7985426,7.99968022 C14.7985426,8.38717748 14.747873,8.77186067 14.6456543,9.14285714 C14.5863025,9.35413791 14.3934412,9.49431486 14.1831358,9.49431486 C14.1402689,9.49431486 14.0974819,9.48852678 14.054615,9.47485605 C13.7985326,9.40479155 13.6485383,9.1408425 13.7196421,8.88476012 C13.7995079,8.59855419 13.8393849,8.3005802 13.8393849,7.99873686 C13.8393849,6.18080141 12.3593164,4.69977355 10.5404376,4.69977355 L10.5404376,4.69977355 L5.79945741,4.69958747 L6.62951035,5.44698944 C6.71159586,5.52089957 6.71822332,5.64735902 6.64431319,5.72944453 L6.24283483,6.17533142 C6.1689247,6.25741694 6.04246525,6.26404439 5.96037974,6.19013427 L4.39545741,4.78058747 L4.0282032,4.45039469 C3.94611769,4.37648457 3.93949023,4.25002512 4.01340035,4.16793961 L5.75313993,2.23576306 C5.82705006,2.15367755 5.95350951,2.14705009 6.03559502,2.22096022 Z M1.88209994,5.68900686 C2.02525087,5.46704534 2.32316089,5.40278492 2.54617769,5.54593586 C2.76815519,5.69004614 2.83249556,5.98795616 2.68836928,6.21097295 C2.34461834,6.74363581 2.1625338,7.36193661 2.1625338,7.99875284 C2.16253381,9.81764762 3.64258633,11.2977002 5.46149711,11.2977002 L5.46149711,11.2977002 L11.1324574,11.2975875 L10.3140031,10.4785002 C10.2358983,10.4003954 10.2358983,10.2737624 10.3140031,10.1956575 L10.7382672,9.77139346 C10.8163721,9.69328861 10.9430051,9.69328861 11.0211099,9.77139346 L12.8595875,11.6098711 C12.9376924,11.687976 12.9376924,11.8146089 12.8595875,11.8927138 L11.0211099,13.7311914 C10.9430051,13.8092963 10.8163721,13.8092963 10.7382672,13.7311914 L10.3140031,13.3069274 C10.2358983,13.2288225 10.2358983,13.1021895 10.3140031,13.0240847 L11.0764574,12.2595875 L5.46149711,12.2597359 C4.40453373,12.2597359 3.40632871,11.8777238 2.62512531,11.1783872 L2.44877173,11.0113983 C1.64451702,10.2071435 1.20145741,9.13796445 1.20145741,7.9996962 C1.20145741,7.17687808 1.43712163,6.37745209 1.88209994,5.68900686 Z" id="形状" fill="#A6B5CC"></path>
        </g>
    </g>
</svg>