<?xml version="1.0" encoding="UTF-8"?>
<svg width="20px" height="20px" viewBox="0 0 20 20" version="1.1" xmlns="http://www.w3.org/2000/svg" xmlns:xlink="http://www.w3.org/1999/xlink">
    <title>ic_model</title>
    <g id="ic_model" stroke="none" stroke-width="1" fill="none" fill-rule="evenodd">
        <path d="M17.2959263,14.660439 L14.4367972,16.1725031 L14.4367972,13.3004425 L17.2959263,11.9156386 L17.2959263,14.6615243 L17.2959263,14.660439 Z M13.9622516,12.389099 L10.9370323,10.9244851 L13.8317416,9.45879332 L16.9874561,10.9244851 L13.9622368,12.389099 L13.9622516,12.389099 Z M10.5099516,7.63719893 L13.4046608,6.25239503 L13.4046608,8.58197871 L10.5099516,10.0012953 L10.5099516,7.63720778 L10.5099516,7.63719893 Z M9.98795432,6.69134717 L6.70174455,5.14584095 L9.98795432,3.55396098 L13.4046741,5.14584095 L9.98795432,6.69027077 L9.98795432,6.69134717 Z M9.50154762,14.5687635 L6.58309856,16.1724987 L6.58309856,13.3112169 L9.50154762,11.9274908 L9.50154762,14.5687591 L9.50154762,14.5687635 Z M6.09669775,12.389102 L3.05962334,10.9244807 L6.09669775,9.45878889 L9.19309222,10.9126181 L6.09669775,12.389102 L6.09669775,12.389102 Z M18.3043302,11.0398813 C18.3280573,10.3474793 17.7348784,10.0940295 17.7348784,10.0940295 L14.4130736,8.54852327 C14.4130736,8.54852327 14.4249372,5.87166 14.4130736,5.1458262 C14.4012101,4.41891157 13.8080313,4.16438389 13.8080313,4.16438389 C13.8080313,4.16438389 11.1743125,3.01253688 10.4031814,2.59730539 C9.99981981,2.37836826 9.5727302,2.59730539 9.5727302,2.59730539 C9.5727302,2.59730539 7.09324655,3.80739162 6.32210067,4.14173522 C5.63401317,4.45342425 5.63401317,5.12317753 5.63401317,5.12317753 L5.63401317,8.53665336 C5.63401317,8.53665336 3.45111501,9.57417767 2.53761871,9.96675459 C1.67157696,10.3463896 1.69513771,11.1423281 1.69513771,11.1423281 C1.69513771,11.1423281 1.70716709,13.8655651 1.69513771,14.5806054 C1.68343993,15.3420327 2.31220989,15.5836185 2.31220989,15.5836185 C2.31220989,15.5836186 4.42393284,16.7484074 5.43232943,17.2552997 C6.19159951,17.6252279 6.67800621,17.2682418 6.67800621,17.2682418 L9.99981096,15.4682182 C9.99981096,15.4682182 12.6216598,16.8292955 13.2385706,17.2563866 C13.9503861,17.7525001 14.4367928,17.3372747 14.4367928,17.3372747 C14.4367928,17.3372747 17.3552419,15.7108909 17.8179176,15.4800838 C18.3043243,15.2374201 18.3043243,14.6259061 18.3043243,14.6259061 C18.3043243,14.6259061 18.2687336,11.7311968 18.3043243,11.0398669 L18.3043302,11.0398813 Z" id="形状" fill="#485566" fill-rule="nonzero"></path>
    </g>
</svg>