<?xml version="1.0" encoding="UTF-8"?>
<svg width="20px" height="20px" viewBox="0 0 20 20" version="1.1" xmlns="http://www.w3.org/2000/svg" xmlns:xlink="http://www.w3.org/1999/xlink">
    <title>ic_map</title>
    <g id="ic_map" stroke="none" stroke-width="1" fill="none" fill-rule="evenodd">
        <g id="地图" transform="translate(0.906401, 0.900000)" fill="#485566" fill-rule="nonzero">
            <path d="M10.2473727,0.00647591697 C10.1876621,0.0842805449 10.1459388,0.143431801 10.1055236,0.194721994 C10.0909686,0.213136948 10.076752,0.230407065 10.0618523,0.247250214 C8.2336781,2.31746092 8.07764441,5.03514999 9.66746795,7.28719523 C9.83210192,7.51940284 10.0262226,7.73318128 10.2277149,7.9346736 C11.356809,9.06868699 12.4908176,10.1965525 13.6248262,11.3244181 C14.0511545,11.7482891 14.2686187,11.7458319 14.6912612,11.3256467 C14.7062592,11.3107005 14.7212573,11.2957543 14.7362554,11.2808081 L14.6912612,11.3256803 C15.7576961,10.2641598 16.8229025,9.20141065 17.8880992,8.14112835 C17.9103588,8.1188688 17.9331106,8.0972 17.9573582,8.07472833 C18.0107112,8.02465116 18.0723705,7.97005217 18.1522507,7.89782004 L18.1253511,7.92227925 C18.1446114,7.90471339 18.1649842,7.88601114 18.1866518,7.86591933 L18.1866518,8.2406459 C18.1866518,10.8047489 18.1878805,13.3676521 18.1866518,15.9317551 C18.1866518,17.3753739 17.3671678,18.1764287 15.917406,18.1997723 C15.5353078,18.2059154 15.2772994,18.0879686 15.009462,17.8201313 L12.6824811,15.4894165 C9.56672659,12.3662712 6.44727669,9.2480691 3.32660299,6.12984301 C3.30602374,6.10957092 3.28406231,6.09060423 3.26031555,6.07179111 L3.18498629,6.01516939 C3.14873645,5.98949242 3.10865739,5.96203288 3.06371021,5.93006367 L2.98750616,5.87552039 C3.25657212,5.62611222 3.45683583,5.45287797 3.6435848,5.26612899 C5.32308739,3.58907403 7.00260918,1.91324767 8.6747497,0.228821039 C8.83815505,0.0641870718 8.99910319,-0.0119868533 9.23008219,0.00152787533 L9.23008219,0.00152787533 L9.2313108,0.00156147018 L9.47023738,0.0101041609 L9.47023738,0.0101041609 L9.71415519,0.0108960395 C9.88093923,0.00982100428 10.0557092,0.00644232211 10.2461441,0.00644232211 L10.2461441,0.00644232211 L10.2473727,0.00647591697 Z M6.74091009,18.1911432 C5.20636928,18.1911432 3.67059986,18.1911432 2.13606386,18.188686 C2.13896419,18.1887173 2.13629741,18.1887137 2.13363063,18.18871 C0.855874466,18.1862528 0.00690378372,17.3299104 0.00321794863,16.0484684 C-0.00292510985,13.7497359 0.000760725241,11.4510131 0.00567517202,9.15350919 C0.00567517202,9.04539136 0.0228757358,8.9028724 0.0892207673,8.83407015 C0.701069392,8.20502096 1.32643274,7.58702928 1.93582415,6.97639007 C5.68677565,10.7138172 9.40699747,14.4205531 13.1653254,18.166595 C13.0449215,18.1764239 12.9601473,18.1899386 12.8741445,18.1899386 L7.50387855,18.191628 L7.50387855,18.191628 Z M16.7368852,0.989374872 C17.6902879,1.87397529 18.186647,2.99324055 18.1841989,4.2587058 C18.1694465,5.41974385 17.7775194,6.42966266 16.9764645,7.27739513 C16.1692666,8.13128026 15.3657546,8.99007984 14.5573233,9.84396977 C14.2255981,10.1941241 14.0818506,10.1892097 13.7538113,9.84151254 C12.9674998,9.01097104 12.1824169,8.17797231 11.3924196,7.35112623 C9.63550485,5.51189452 9.69816404,2.75981392 11.5410816,1.01148988 C12.9269556,-0.303124632 15.3301249,-0.312953525 16.7368852,0.989374872 Z M6.61805852,0.00648071623 L0.0142706546,6.61027338 C0.0105848195,6.5390139 0.00321314937,6.43826774 0.00321314937,6.33752158 C0.00198453767,4.96147648 0.000755925977,3.5866552 0.00321314937,2.2106101 C0.00567037276,0.84930834 0.841126326,0.011395163 2.19751364,0.00893793962 C3.58338763,0.00648071623 4.97048064,0.00770932793 6.35636423,0.00770932793 C6.44851011,0.00648071623 6.53942737,0.00648071623 6.61805852,0.00648071623 Z M14.1654058,2.02386112 C13.0363116,2.01526084 12.1455681,2.88511792 12.1283676,4.01175484 C12.1123956,5.1519065 12.996996,6.05862193 14.1346905,6.06476499 C15.262556,6.07213666 16.1532995,5.19982235 16.1680428,4.07318543 C16.1852434,2.92566211 15.3104719,2.0324614 14.1654058,2.02386112 Z" id="形状结合"></path>
        </g>
    </g>
</svg>