<?xml version="1.0" encoding="UTF-8"?>
<svg width="16px" height="16px" viewBox="0 0 16 16" version="1.1" xmlns="http://www.w3.org/2000/svg" xmlns:xlink="http://www.w3.org/1999/xlink">
    <title>ic_profile_normal</title>
    <defs>
        <rect id="path-1" x="0" y="0" width="16" height="16"></rect>
        <rect id="path-3" x="0" y="0" width="16" height="16"></rect>
    </defs>
    <g id="ic_profile_normal" stroke="none" stroke-width="1" fill="none" fill-rule="evenodd">
        <mask id="mask-2" fill="white">
            <use xlink:href="#path-1"></use>
        </mask>
        <use id="矩形" fill="#000000" opacity="0" xlink:href="#path-1"></use>
        <g id="ic_项目管理" mask="url(#mask-2)">
            <mask id="mask-4" fill="white">
                <use xlink:href="#path-3"></use>
            </mask>
            <use id="矩形" fill="#055FE7" opacity="0" xlink:href="#path-3"></use>
            <path d="M14,11 C14.5522847,11 15,11.4477153 15,12 L15,14 C15,14.5522847 14.5522847,15 14,15 L2,15 C1.44771525,15 1,14.5522847 1,14 L1,12 C1,11.4477153 1.44771525,11 2,11 L14,11 Z M14.125,12 L1.875,12 L1.875,14 L14.125,14 L14.125,12 Z M11.8,12.5 C11.9104569,12.5 12,12.5895431 12,12.7 L12,13.3 C12,13.4104569 11.9104569,13.5 11.8,13.5 L10.2,13.5 C10.0895431,13.5 10,13.4104569 10,13.3 L10,12.7 C10,12.5895431 10.0895431,12.5 10.2,12.5 L11.8,12.5 Z M14,6 C14.5522847,6 15,6.44771525 15,7 L15,9 C15,9.55228475 14.5522847,10 14,10 L2,10 C1.44771525,10 1,9.55228475 1,9 L1,7 C1,6.44771525 1.44771525,6 2,6 L14,6 Z M14.125,7 L1.875,7 L1.875,9 L14.125,9 L14.125,7 Z M11.8,7.5 C11.9104569,7.5 12,7.58954305 12,7.7 L12,8.3 C12,8.41045695 11.9104569,8.5 11.8,8.5 L10.2,8.5 C10.0895431,8.5 10,8.41045695 10,8.3 L10,7.7 C10,7.58954305 10.0895431,7.5 10.2,7.5 L11.8,7.5 Z M14,1 C14.5522847,1 15,1.44771525 15,2 L15,4 C15,4.55228475 14.5522847,5 14,5 L2,5 C1.44771525,5 1,4.55228475 1,4 L1,2 C1,1.44771525 1.44771525,1 2,1 L14,1 Z M14.125,1.99786377 L2.08034058,1.99786377 C1.96988363,1.99786377 1.88034058,2.08740682 1.88034058,2.19786377 L1.88034058,3.99786377 L14.125,3.99786377 L14.125,1.99786377 Z M11.8,2.5 C11.9104569,2.5 12,2.58954305 12,2.7 L12,3.3 C12,3.41045695 11.9104569,3.5 11.8,3.5 L10.2,3.5 C10.0895431,3.5 10,3.41045695 10,3.3 L10,2.7 C10,2.58954305 10.0895431,2.5 10.2,2.5 L11.8,2.5 Z" id="形状结合" fill="#A6B5CC" fill-rule="nonzero" mask="url(#mask-4)" transform="translate(8.000000, 8.000000) scale(-1, 1) translate(-8.000000, -8.000000) "></path>
        </g>
    </g>
</svg>