<?xml version="1.0" encoding="UTF-8"?>
<svg width="16px" height="16px" viewBox="0 0 16 16" version="1.1" xmlns="http://www.w3.org/2000/svg" xmlns:xlink="http://www.w3.org/1999/xlink">
    <title>ic_profile_mpanger_hover</title>
    <defs>
        <rect id="path-1" x="0" y="0" width="16" height="16"></rect>
    </defs>
    <g id="ic_profile_mpanger_hover" stroke="none" stroke-width="1" fill="none" fill-rule="evenodd">
        <mask id="mask-2" fill="white">
            <use xlink:href="#path-1"></use>
        </mask>
        <use id="矩形" fill="#000000" opacity="0" xlink:href="#path-1"></use>
        <path d="M6.58839049,11.0005862 L6.58817423,11.0497107 L6.58817423,11.0497107 C6.58817423,11.3742333 6.61646806,11.6921475 6.67072345,12.0011212 L1.875,12 L1.875,14 L7.45287555,14.0006841 C7.68789955,14.3661914 7.96530758,14.7018575 8.27815691,15.0007398 L2,15 C1.48716416,15 1.06449284,14.6139598 1.00672773,14.1166211 L1,14 L1,12 C1,11.4871642 1.38604019,11.0644928 1.88337887,11.0067277 L2,11 L6.58839049,11.0005862 Z M10.9760042,7.46396914 C11.1095706,7.62059579 11.3030968,7.71173816 11.5131645,7.71173816 C11.7227911,7.71173816 11.9159325,7.62098868 12.0494828,7.46495537 C12.2503617,7.23025595 12.5756583,7.14273779 12.8680162,7.24473674 C13.3517676,7.41351089 13.7984109,7.67125449 14.1858802,8.00298963 C14.4173483,8.20119842 14.5048184,8.5193027 14.4070049,8.80714645 C14.3423064,8.99752953 14.361542,9.20621806 14.4654172,9.38526346 C14.5527817,9.53583106 14.6883386,9.64527219 14.8469199,9.69972679 L14.9446302,9.72569028 C15.2450545,9.78314838 15.480227,10.0165489 15.5387595,10.3153454 C15.5891376,10.5724877 15.6146914,10.8351785 15.6146914,11.1006997 C15.6146914,11.3523094 15.5917435,11.6013934 15.5464569,11.8456585 C15.4902497,12.1489051 15.2522628,12.3864429 14.9476771,12.4433317 C14.7463252,12.4809209 14.5707918,12.6027006 14.4654172,12.7843198 C14.3593129,12.9671979 14.3415928,13.1810582 14.4111503,13.3742957 C14.5154665,13.6640798 14.4301373,13.987877 14.1963359,14.1894214 C13.8064932,14.5254863 13.3561535,14.786373 12.8680162,14.9566786 C12.5756583,15.0586776 12.2503617,14.9711594 12.0494828,14.73646 C11.9159325,14.5804187 11.7227911,14.4896772 11.5131645,14.4896772 C11.3030888,14.4896772 11.1095626,14.5808196 10.9760042,14.7374382 C10.7755664,14.9725065 10.4504382,15.060618 10.1578958,14.9591562 C9.6654207,14.7883455 9.21124833,14.5254141 8.81862332,14.1861099 C8.585736,13.9848461 8.50055112,13.6621555 8.60400136,13.3729807 C8.67302164,13.1800479 8.65513314,12.966773 8.54926943,12.7843198 C8.44426367,12.6033421 8.26959618,12.4817788 8.06906212,12.4437086 C7.76553485,12.3860982 7.52864647,12.1490093 7.47251137,11.8466367 C7.42711257,11.6020669 7.40410047,11.3526542 7.40410047,11.1007077 C7.40410047,10.8348257 7.42972649,10.5718061 7.48023285,10.3143271 C7.53867718,10.0164206 7.77273515,9.78348514 8.07211703,9.72528937 C8.27143234,9.68655366 8.44480089,9.56530312 8.54926142,9.38526346 C8.65290409,9.20664302 8.67227595,8.9985318 8.60811468,8.80847747 C8.51116716,8.52126715 8.59847685,8.20424532 8.82901485,8.00634122 C9.21928252,7.67135873 9.66978257,7.41155446 10.1578958,7.24225913 C10.4504382,7.14079739 10.7755664,7.2289089 10.9760042,7.46396914 Z M10.5170654,8.26768337 C10.1556559,8.39303347 9.82558023,8.58493305 9.54168812,8.82862614 C9.65680482,9.16968412 9.62941014,9.55750893 9.43367214,9.89487972 C9.2363714,10.2349223 8.90891714,10.4532155 8.55123799,10.5227392 C8.51454612,10.7097634 8.49531799,10.9029952 8.49531799,11.1006921 C8.49531799,11.2879682 8.5125657,11.4712332 8.54556318,11.6489961 C8.9054604,11.71731 9.23532718,11.9361145 9.43367214,12.2779503 C9.63363024,12.6225874 9.65790665,13.0198967 9.53404008,13.3661686 C9.81965336,13.6130015 10.152408,13.8072344 10.5170654,13.9337079 C10.7565024,13.6529197 11.1137278,13.4747247 11.5127727,13.4747247 C11.9109605,13.4747247 12.267509,13.6521491 12.5069316,13.9319004 C12.8683483,13.8058013 13.1983015,13.6131024 13.4819272,13.3685955 C13.3570596,13.0217547 13.3809903,12.6234012 13.5814165,12.2779575 C13.7804672,11.9348903 14.1119688,11.7157544 14.4733495,11.6482832 C14.5062606,11.4707363 14.5234579,11.2877162 14.5234579,11.1006921 C14.5234579,10.9032545 14.5042946,10.7102603 14.4676963,10.5234666 C14.108512,10.4547639 13.7794302,10.2361249 13.5814165,9.89486532 C13.3852032,9.55669516 13.358147,9.16781172 13.4742431,8.82617041 C13.1923458,8.58481782 12.865086,8.39445217 12.5069316,8.26949816 C12.267509,8.54923499 11.9109605,8.72666666 11.5127727,8.72666666 C11.1137278,8.72666666 10.7565024,8.54847162 10.5170654,8.26768337 Z M5.8,12.5 C5.89204746,12.5 5.96957137,12.5621827 5.99285581,12.6468321 L6,12.7 L6,13.3 C6,13.3920475 5.93781733,13.4695714 5.85316792,13.4928558 L5.8,13.5 L4.2,13.5 C4.10795254,13.5 4.03042863,13.4378173 4.00714419,13.3531679 L4,13.3 L4,12.7 C4,12.6079525 4.06218267,12.5304286 4.14683208,12.5071442 L4.2,12.5 L5.8,12.5 Z M11.5093879,9.58708845 C12.3510136,9.58708845 13.0332624,10.2660097 13.0332624,11.103498 C13.0332624,11.9409783 12.3510136,12.6199076 11.5093879,12.6199076 C10.6677703,12.6199076 9.98552149,11.9409783 9.98552149,11.103498 C9.98552149,10.2660097 10.6677703,9.58708845 11.5093879,9.58708845 Z M11.5093879,10.332833 C11.0816915,10.332833 10.7349624,10.6778703 10.7349624,11.103498 C10.7349624,11.5291338 11.0816995,11.874171 11.5093879,11.874171 C11.9370924,11.874171 12.2838215,11.5291338 12.2838215,11.103498 C12.2838215,10.6778542 11.9370924,10.332833 11.5093879,10.332833 Z M9.96093081,6.00050135 C9.37742019,6.24239262 8.84491357,6.58248707 8.3840259,7.00016979 L1.875,7 L1.875,9 L6.98542513,9.00061602 C6.85611589,9.32001516 6.75613401,9.65442491 6.68881881,10.0005059 L2,10 C1.48716416,10 1.06449284,9.61395981 1.00672773,9.11662113 L1,9 L1,7 C1,6.48716416 1.38604019,6.06449284 1.88337887,6.00672773 L2,6 L9.96093081,6.00050135 Z M5.8,7.5 C5.89204746,7.5 5.96957137,7.56218267 5.99285581,7.64683208 L6,7.7 L6,8.3 C6,8.39204746 5.93781733,8.46957137 5.85316792,8.49285581 L5.8,8.5 L4.2,8.5 C4.10795254,8.5 4.03042863,8.43781733 4.00714419,8.35316792 L4,8.3 L4,7.7 C4,7.60795254 4.06218267,7.53042863 4.14683208,7.50714419 L4.2,7.5 L5.8,7.5 Z M14,1 C14.5128358,1 14.9355072,1.38604019 14.9932723,1.88337887 L15,2 L15,4 C15,4.51283584 14.6139598,4.93550716 14.1166211,4.99327227 L14,5 L2,5 C1.48716416,5 1.06449284,4.61395981 1.00672773,4.11662113 L1,4 L1,2 C1,1.48716416 1.38604019,1.06449284 1.88337887,1.00672773 L2,1 L14,1 Z M13.9196594,1.99786377 L1.875,1.99786377 L1.875,3.99786377 L14.1196594,3.99786377 L14.1196594,2.19786377 C14.1196594,2.08740682 14.0301164,1.99786377 13.9196594,1.99786377 Z M5.8,2.5 C5.89204746,2.5 5.96957137,2.56218267 5.99285581,2.64683208 L6,2.7 L6,3.3 C6,3.39204746 5.93781733,3.46957137 5.85316792,3.49285581 L5.8,3.5 L4.2,3.5 C4.10795254,3.5 4.03042863,3.43781733 4.00714419,3.35316792 L4,3.3 L4,2.7 C4,2.60795254 4.06218267,2.53042863 4.14683208,2.50714419 L4.2,2.5 L5.8,2.5 Z" id="形状结合" fill="#3288FA" mask="url(#mask-2)"></path>
    </g>
</svg>