<?xml version="1.0" encoding="UTF-8"?>
<svg width="24px" height="24px" viewBox="0 0 24 24" version="1.1" xmlns="http://www.w3.org/2000/svg" xmlns:xlink="http://www.w3.org/1999/xlink">
    <title>ic_personal_center_log_out</title>
    <defs>
        <rect id="path-1" x="0" y="0" width="24" height="24"></rect>
        <circle id="path-3" cx="12" cy="12" r="12"></circle>
    </defs>
    <g id="ic_personal_center_log_out" stroke="none" stroke-width="1" fill="none" fill-rule="evenodd">
        <mask id="mask-2" fill="white">
            <use xlink:href="#path-1"></use>
        </mask>
        <use id="矩形" fill="#000000" opacity="0" xlink:href="#path-1"></use>
        <path d="M13.02,13.7 L19,17.2 L19,19.2 C19,19.7522847 18.5522847,20.2 18,20.2 L6,20.2 C5.44771525,20.2 5,19.7522847 5,19.2 L5,17.2 L10.986,13.7 L13.02,13.7 Z M12,4.2 C14.209139,4.2 16,5.990861 16,8.2 C16,10.409139 14.209139,12.2 12,12.2 C9.790861,12.2 8,10.409139 8,8.2 C8,5.990861 9.790861,4.2 12,4.2 Z" id="形状结合" fill="#3D434E" fill-rule="nonzero" mask="url(#mask-2)"></path>
        <g id="个人中心" mask="url(#mask-2)">
            <g transform="translate(0.000000, 0.200000)">
                <mask id="mask-4" fill="white">
                    <use xlink:href="#path-3"></use>
                </mask>
                <use id="蒙版" stroke="none" fill="#3D434E" fill-rule="evenodd" xlink:href="#path-3"></use>
                <circle id="椭圆形" stroke="none" fill="#5C6170" fill-rule="evenodd" mask="url(#mask-4)" cx="12" cy="8.84305041" r="4.65694959"></circle>
                <path d="M12,35.6497989 C17.5228475,35.6497989 22,28.7463214 22,23.2234739 C22,17.7006264 17.5228475,15.6497989 12,15.6497989 C6.4771525,15.6497989 2,17.7006264 2,23.2234739 C2,28.7463214 6.4771525,35.6497989 12,35.6497989 Z" id="Path" stroke="none" fill="#5C6170" fill-rule="evenodd" mask="url(#mask-4)"></path>
            </g>
        </g>
    </g>
</svg>