<?xml version="1.0" encoding="UTF-8"?>
<svg width="20px" height="20px" viewBox="0 0 20 20" version="1.1" xmlns="http://www.w3.org/2000/svg" xmlns:xlink="http://www.w3.org/1999/xlink">
    <title>ic_recorder</title>
    <defs>
        <rect id="path-1" x="0" y="0" width="18" height="18"></rect>
    </defs>
    <g id="ic_recorder" stroke="none" stroke-width="1" fill="none" fill-rule="evenodd">
        <rect id="矩形" fill="#D8D8D8" opacity="0" x="0" y="0" width="20" height="20"></rect>
        <g id="数据包导出">
            <polygon id="路径" points="0 0 20 0 20 20 0 20"></polygon>
        </g>
        <g id="ic_profile" transform="translate(1.000000, 1.000000)">
            <mask id="mask-2" fill="white">
                <use xlink:href="#path-1"></use>
            </mask>
            <use id="矩形" fill="#000000" opacity="0" xlink:href="#path-1"></use>
            <path d="M16.2619853,1.125 L1.5836956,1.125 L1.58369561,1.125 C1.33036408,1.125 1.125,1.33036544 1.125,1.58369568 C1.125,1.5836957 1.125,1.58369571 1.125,1.58369573 L1.125,4.79456287 L1.125,4.7945628 C1.125,5.04789433 1.33036537,5.25325842 1.58369561,5.25325842 C1.58369562,5.25325842 1.58369563,5.25325842 1.58369564,5.25325842 L16.2619854,5.25325842 L16.2619854,5.25325842 C16.5153169,5.25325842 16.720681,5.04789304 16.720681,4.7945628 C16.720681,4.7945628 16.720681,4.79456279 16.720681,4.79456278 L16.720681,1.58369564 L16.720681,1.58369561 C16.720681,1.33036408 16.5153156,1.125 16.2619854,1.125 C16.2619854,1.125 16.2619853,1.125 16.2619853,1.125 L16.2619853,1.125 Z M3.64348879,2.95978682 L5.48696897,2.95978682 C5.61123303,2.95978682 5.71196897,3.06052276 5.71196897,3.18478682 L5.71196897,3.65217805 C5.71196897,3.77644212 5.61123303,3.87717805 5.48696897,3.87717805 L3.64348879,3.87717805 C3.51922472,3.87717805 3.41848879,3.77644212 3.41848879,3.65217805 L3.41848879,3.18478682 C3.41848879,3.06052276 3.51922472,2.95978682 3.64348879,2.95978682 Z M16.2619853,6.62935596 L1.5836956,6.62935596 L1.58369561,6.62935596 C1.33036408,6.62935596 1.125,6.8347214 1.125,7.08805165 C1.125,7.08805166 1.125,7.08805167 1.125,7.08805169 L1.125,10.2989188 L1.125,10.2989188 C1.125,10.5522503 1.33036537,10.7576144 1.58369561,10.7576144 C1.58369562,10.7576144 1.58369563,10.7576144 1.58369564,10.7576144 L16.2619854,10.7576144 L16.2619854,10.7576144 C16.5153169,10.7576144 16.720681,10.552249 16.720681,10.2989188 C16.720681,10.2989188 16.720681,10.2989187 16.720681,10.2989187 L16.720681,7.0880516 L16.720681,7.08805158 C16.720681,6.83472004 16.5153156,6.62935596 16.2619854,6.62935596 C16.2619854,6.62935596 16.2619853,6.62935596 16.2619853,6.62935596 L16.2619853,6.62935596 Z M3.64348879,8.46414279 L5.48696897,8.46414279 C5.61123303,8.46414279 5.71196897,8.56487872 5.71196897,8.68914279 L5.71196897,9.15653401 C5.71196897,9.28079808 5.61123303,9.38153401 5.48696897,9.38153401 L3.64348879,9.38153401 C3.51922472,9.38153401 3.41848879,9.28079808 3.41848879,9.15653401 L3.41848879,8.68914279 C3.41848879,8.56487872 3.51922472,8.46414279 3.64348879,8.46414279 Z M16.2619853,12.1337119 L1.5836956,12.1337119 L1.58369561,12.1337119 C1.33036408,12.1337119 1.125,12.3390774 1.125,12.5924076 C1.125,12.5924076 1.125,12.5924076 1.125,12.5924077 L1.125,15.8032748 L1.125,15.8032747 C1.125,16.0566063 1.33036537,16.2619703 1.58369561,16.2619703 C1.58369562,16.2619703 1.58369563,16.2619703 1.58369564,16.2619703 L16.2619854,16.2619703 L16.2619854,16.2619703 C16.5153169,16.2619703 16.720681,16.056605 16.720681,15.8032747 C16.720681,15.8032747 16.720681,15.8032747 16.720681,15.8032747 L16.720681,12.5924076 L16.720681,12.5924075 C16.720681,12.339076 16.5153156,12.1337119 16.2619854,12.1337119 C16.2619854,12.1337119 16.2619853,12.1337119 16.2619853,12.1337119 L16.2619853,12.1337119 Z M3.6434888,13.9684988 L5.48696898,13.9684988 C5.61123305,13.9684988 5.71196898,14.0692347 5.71196898,14.1934988 L5.71196898,14.66089 C5.71196898,14.785154 5.61123305,14.88589 5.48696898,14.88589 L3.6434888,14.88589 C3.51922473,14.88589 3.4184888,14.785154 3.4184888,14.66089 L3.4184888,14.1934988 C3.4184888,14.0692347 3.51922473,13.9684988 3.6434888,13.9684988 Z" id="形状" fill="#485566" fill-rule="nonzero" mask="url(#mask-2)"></path>
        </g>
    </g>
</svg>