<?xml version="1.0" encoding="UTF-8"?>
<svg width="16px" height="16px" viewBox="0 0 16 16" version="1.1" xmlns="http://www.w3.org/2000/svg" xmlns:xlink="http://www.w3.org/1999/xlink">
    <title>ic_setting_click</title>
    <defs>
        <rect id="path-1" x="0" y="0" width="16" height="16"></rect>
    </defs>
    <g id="ic_setting_click" stroke="none" stroke-width="1" fill="none" fill-rule="evenodd">
        <mask id="mask-2" fill="white">
            <use xlink:href="#path-1"></use>
        </mask>
        <use id="矩形" fill="#5D6573" opacity="0" xlink:href="#path-1"></use>
        <path d="M6.94201887,0.149984138 C7.75735699,0.0408602906 8.59940891,0.0590938669 9.40786727,0.204962477 L9.40786727,0.204962477 L9.5751386,0.243611484 C9.93647472,0.356918915 10.2112005,0.661090504 10.2805743,1.03975845 L10.2805743,1.03975845 L10.49,2.177 L10.7697381,2.30495761 C11.1249099,2.47804335 11.4633354,2.68430422 11.7820758,2.92189836 L11.7820758,2.92189836 L11.792,2.929 L12.8821505,2.54183418 C13.2451535,2.41507125 13.6435755,2.50068514 13.9204394,2.75491299 L13.9204394,2.75491299 L14.0080099,2.84584053 L14.263399,3.15865137 C14.7705895,3.81345595 15.1690144,4.54027015 15.4508248,5.32661389 L15.4508248,5.32661389 L15.4641102,5.36506687 C15.6083321,5.76888827 15.4892832,6.21944277 15.1641134,6.49631863 L15.1641134,6.49631863 L14.286,7.246 L14.2944852,7.30780455 C14.3069852,7.42304639 14.316393,7.53862362 14.3226758,7.65428149 L14.3226758,7.65428149 L14.3321164,8.00124229 C14.3321164,8.34793552 14.3036962,8.69619568 14.2477414,9.03914464 L14.2477414,9.03914464 L14.286,8.755 L15.1655172,9.50737062 C15.4572202,9.7586395 15.583282,10.1489729 15.5009523,10.5103397 L15.5009523,10.5103397 L15.4657323,10.629492 L15.3216321,11.0089887 C15.0079189,11.7733415 14.5773942,12.4813095 14.0378247,13.1185473 L14.0378247,13.1185473 L14.0106427,13.1502342 C13.7343821,13.4778921 13.2842934,13.5988936 12.8795214,13.4564113 L12.8795214,13.4564113 L11.792,13.069 L11.5414795,13.248867 C11.213611,13.4706089 10.8660293,13.6605784 10.5014075,13.8173753 L10.5014075,13.8173753 L10.49,13.821 L10.2807055,14.9587 C10.2112136,15.33801 9.93647603,15.6422458 9.57582489,15.7554332 L9.57582489,15.7554332 L9.45258955,15.7859274 L9.05815716,15.849334 C8.70855402,15.8963589 8.3536841,15.9201714 8,15.9201714 C7.52908221,15.9201714 7.05716012,15.8779561 6.59213273,15.7942093 L6.59213273,15.7942093 L6.54835168,15.7861008 C6.12711066,15.7089269 5.79650772,15.3801555 5.7194526,14.9595588 L5.7194526,14.9595588 L5.507,13.814 C5.04989138,13.6175338 4.62305687,13.3698915 4.22638189,13.0733034 L4.22638189,13.0733034 L4.217,13.066 L3.11784948,13.4573376 C2.75484654,13.5841006 2.35642451,13.4984867 2.07956062,13.2442588 L2.07956062,13.2442588 L1.99199014,13.1533313 L1.73695204,12.8409052 C1.23041922,12.1867508 0.831566958,11.4589726 0.549175152,10.6725579 L0.549175152,10.6725579 L0.535889807,10.6341049 C0.391667878,10.2302835 0.510716829,9.77972904 0.836164884,9.5026154 L0.836164884,9.5026154 L1.726,8.742 L1.71962404,8.68987285 C1.70733879,8.57638125 1.69813054,8.46191989 1.69199361,8.34677625 L1.69199361,8.34677625 L1.68279105,7.9995859 C1.68279105,7.65265535 1.71037357,7.30764772 1.76564648,6.97244424 L1.726,7.257 L0.834482775,6.49511395 C0.542794952,6.2438581 0.417346305,5.85435026 0.499235698,5.48998101 L0.499235698,5.48998101 L0.534267726,5.36967979 L0.678367875,4.99018312 C0.992081141,4.22583036 1.42260584,3.5178623 1.96217529,2.88062453 L1.96217529,2.88062453 L1.98935728,2.84893759 C2.26561785,2.52127971 2.71570661,2.40027825 3.12041075,2.5427364 L3.12041075,2.5427364 L4.217,2.932 L4.46616286,2.75532942 C4.79209152,2.53458676 5.13720727,2.34509837 5.507,2.184 L5.507,2.184 L5.71929449,1.04047182 C5.7887864,0.661161841 6.06352397,0.356926049 6.42486127,0.243612197 L6.42486127,0.243612197 L6.54741045,0.213244381 Z M8.88096874,1.13535306 C8.1825507,1.04650481 7.46164735,1.06422227 6.77422199,1.18824448 L6.77422199,1.18824448 L6.72949971,1.19652639 C6.7149511,1.19919271 6.70505696,1.20903204 6.70276513,1.22153738 L6.70276513,1.22153738 L6.38983387,2.91295065 L6.12653151,3.01269751 C5.58262933,3.21874401 5.07851114,3.51100301 4.62711936,3.8821137 L4.62711936,3.8821137 L4.40866519,4.06171529 L2.78699278,3.48551437 C2.77451358,3.48112169 2.7613653,3.48465646 2.75124675,3.4966319 L2.75124675,3.4966319 L2.52765219,3.77093323 C2.0845573,4.34386631 1.73726572,4.97687876 1.49416123,5.65372445 L1.49416123,5.65372445 L1.47720447,5.7025948 C1.47293387,5.71445759 1.47661681,5.7283961 1.48544345,5.73600573 L1.48544345,5.73600573 L2.79823136,6.85672663 L2.75232263,7.13514083 C2.70602509,7.41591305 2.68279105,7.70652898 2.68279105,7.9995859 C2.68279105,8.29422385 2.70601139,8.58466851 2.75225263,8.86360756 L2.75225263,8.86360756 L2.79844658,9.14226144 L1.48495649,10.2635813 C1.47628523,10.2709647 1.47278713,10.2842037 1.4792538,10.3023815 L1.4792538,10.3023815 L1.60361855,10.62971 C1.87802897,11.298556 2.25373066,11.9167207 2.72143189,12.4677559 L2.72143189,12.4677559 L2.75230896,12.5037833 C2.76118324,12.5142054 2.77481971,12.5179067 2.78560537,12.5141481 L2.78560537,12.5141481 L4.40866519,11.9374565 L4.62711936,12.1170581 C5.0809887,12.4902057 5.58523979,12.7829229 6.12539095,12.9860438 L6.12539095,12.9860438 L6.38968771,13.0854312 L6.70292324,14.7784932 C6.70505696,14.7901398 6.7149511,14.7999791 6.72949971,14.8026454 L6.72949971,14.8026454 L7.07634025,14.8583254 C7.38217566,14.8994096 7.69141631,14.9201714 8,14.9201714 C8.41202183,14.9201714 8.82617508,14.8831586 9.22577801,14.8109273 L9.22577801,14.8109273 L9.27144152,14.8024721 C9.2850489,14.7999791 9.29494304,14.7901398 9.29720799,14.7777798 L9.29720799,14.7777798 L9.60858321,13.0919904 L9.87309782,12.9926148 C10.4229359,12.7860458 10.9295439,12.4935671 11.3825459,12.1205955 L11.3825459,12.1205955 L11.6010899,11.9406609 L13.2130072,12.5136574 C13.2254864,12.5180501 13.2386347,12.5145153 13.2487533,12.5025399 L13.2487533,12.5025399 L13.2766089,12.4700556 C13.8140903,11.8352716 14.2280051,11.1189853 14.5058388,10.3454474 L14.5058388,10.3454474 L14.5236778,10.294146 C14.5264391,10.2865984 14.5230422,10.2737948 14.5142782,10.2662411 L14.5142782,10.2662411 L13.215482,9.15581989 L13.2607916,8.878116 C13.3080904,8.58822009 13.3321164,8.29380683 13.3321164,8.00124229 C13.3321164,7.70867774 13.3080904,7.41426448 13.2607916,7.12436857 L13.2607916,7.12436857 L13.215482,6.84666468 L14.5150435,5.73559055 C14.5237148,5.7282071 14.5272129,5.71496813 14.5207462,5.69679035 L14.5207462,5.69679035 L14.3965036,5.3692847 C14.1226083,4.70081631 13.7472419,4.08359702 13.2785681,3.5314159 L13.2785681,3.5314159 L13.247691,3.49538854 C13.2388168,3.48496642 13.2251803,3.48126509 13.2144625,3.48499959 L13.2144625,3.48499959 L11.6017085,4.05829096 L11.3833146,3.87920797 C10.9273819,3.50534312 10.4199322,3.21199757 9.87309782,3.00655703 L9.87309782,3.00655703 L9.60858321,2.90718137 L9.29707676,1.22067862 C9.29494304,1.20903204 9.2850489,1.19919271 9.27050029,1.19652639 L9.27050029,1.19652639 Z M8.00117187,5.31408293 C9.42094375,5.31408293 10.5719522,6.4650914 10.5719522,7.88486328 C10.5719522,9.30463516 9.42094375,10.4556436 8.00117187,10.4556436 C6.5814,10.4556436 5.43039152,9.30463516 5.43039152,7.88486328 C5.43039152,6.4650914 6.5814,5.31408293 8.00117187,5.31408293 Z M8.00117187,6.31408293 C7.13368475,6.31408293 6.43039152,7.01737615 6.43039152,7.88486328 C6.43039152,8.75235041 7.13368475,9.45564364 8.00117187,9.45564364 C8.868659,9.45564364 9.57195223,8.75235041 9.57195223,7.88486328 C9.57195223,7.01737615 8.868659,6.31408293 8.00117187,6.31408293 Z" id="形状结合" fill="#5D6573" fill-rule="nonzero" mask="url(#mask-2)"></path>
    </g>
</svg>