<?xml version="1.0" encoding="UTF-8"?>
<svg width="20px" height="20px" viewBox="0 0 20 20" version="1.1" xmlns="http://www.w3.org/2000/svg" xmlns:xlink="http://www.w3.org/1999/xlink">
    <title>ic_v2x</title>
    <g id="ic_v2x" stroke="none" stroke-width="1" fill="none" fill-rule="evenodd">
        <g id="编组" transform="translate(0.000000, 1.827586)" fill="#485566">
            <path d="M12.5312763,-8.8817842e-16 C13.6606127,-2.54201965e-16 14.6738442,0.67418374 15.1155677,1.70065172 L15.1838184,1.87493641 L16.5871813,5.83984315 L16.7505564,5.95657963 C16.8817928,6.05711339 17.0035677,6.1675307 17.1151166,6.28640467 C16.820158,6.23413472 16.5167082,6.20689655 16.2068966,6.20689655 C13.3502513,6.20689655 11.0344828,8.52266509 11.0344828,11.3793103 C11.0344828,11.7659132 11.0768971,12.1426097 11.1573263,12.5050004 L3.48985119,12.504967 L3.48985119,13.1034483 C3.48985119,13.4525938 3.23039934,13.7411411 2.89377814,13.7868077 L2.80019601,13.7931034 L0.937931034,13.7931034 C0.456926385,13.7931034 0.0604898355,13.4310244 0.006310148,12.964555 L0,12.8551724 L0,8.46738509 C-5.31418883e-16,7.54224532 0.426154176,6.67274363 1.14814138,6.10591919 L1.30733349,5.98917965 L2.61580841,1.94718785 C2.97280204,0.844403779 3.96634541,0.0795724082 5.11092007,0.00584623138 L5.29282671,-8.8817842e-16 L12.5312763,-8.8817842e-16 Z M3.22209796,7.37248563 C2.57058238,7.37248563 2.04242464,7.88710086 2.04242464,8.52191092 C2.04242464,9.15672098 2.57058238,9.67133621 3.22209796,9.67133621 C3.87361355,9.67133621 4.40177128,9.15672098 4.40177128,8.52191092 C4.40177128,7.88710086 3.87361355,7.37248563 3.22209796,7.37248563 Z M12.2705334,1.17176275 L5.4501562,1.17176275 C4.82809242,1.17176275 4.27987046,1.58028435 4.10199964,2.17637606 L3.58199816,3.91903728 C3.43388156,4.41541482 3.71620283,4.93788055 4.21258037,5.08599715 C4.29960921,5.11196613 4.38994846,5.12515715 4.4807692,5.12515715 L13.2684636,5.12515715 C13.7864686,5.12515715 14.2063947,4.70523112 14.2063947,4.18722611 C14.2063947,4.09170761 14.1918038,3.99674954 14.1631269,3.9056374 L13.6125283,2.15627623 C13.4281027,1.57031931 12.8848284,1.17176275 12.2705334,1.17176275 Z" id="形状结合"></path>
            <path d="M16.2068966,15.1724138 C18.3017697,15.1724138 20,13.4741835 20,11.3793103 C20,9.28443716 18.3017697,7.5862069 16.2068966,7.5862069 C14.1120234,7.5862069 12.4137931,9.28443716 12.4137931,11.3793103 C12.4137931,13.4741835 14.1120234,15.1724138 16.2068966,15.1724138 Z M13.2219587,10.4420396 L13.7592469,11.0270894 L13.7592468,11.0270894 C14.388797,10.3389949 15.2743593,9.94113838 16.2068966,9.92743916 L16.2068965,9.92743916 C17.1403795,9.93683948 18.0275768,10.3354291 18.6545462,11.0270894 L19.1918344,10.4420396 C17.5811632,8.67495858 14.8756144,8.67495858 13.2219587,10.4420398 L13.2219587,10.4420396 Z M15.4129027,12.7690964 L16.2283867,13.6418918 L17.0426777,12.7690964 L17.0426777,12.7690964 C16.8301713,12.5447614 16.5361642,12.4156223 16.2271936,12.4109041 L16.2271936,12.4109041 C15.918223,12.4156222 15.6242155,12.5447619 15.4117095,12.7690964 L15.4129027,12.7690964 Z M14.3168319,11.6061646 L14.85412,12.1876305 L14.85412,12.1876305 C15.5363902,11.4345795 16.6999451,11.3771974 17.452996,12.0594667 C17.4977969,12.1000565 17.5405699,12.1428296 17.5811598,12.1876305 L18.1172549,11.6061645 L18.1172549,11.6061646 C17.1595021,10.5563796 15.5320648,10.4817718 14.4822798,11.4395246 C14.4242172,11.4924968 14.3686124,11.5481016 14.3156402,11.6061642 L14.3168319,11.6061646 Z" id="形状结合"></path>
        </g>
    </g>
</svg>