<svg width="16px" height="16px" viewBox="0 0 16 16" version="1.1" xmlns="http://www.w3.org/2000/svg" xmlns:xlink="http://www.w3.org/1999/xlink"><title>ic_common_routin</title><g stroke-width="1" fill="none" fill-rule="evenodd"><path d="M10.3524145,6.75832218 C10.4859809,6.91494883 10.6795071,7.0060912 10.8895747,7.0060912 C11.0992014,7.0060912 11.2923427,6.91534171 11.4258931,6.75930841 C11.6267719,6.52460899 11.9520685,6.43709083 12.2444265,6.53908978 C12.7281778,6.70786393 13.1748211,6.96560753 13.5622905,7.29734267 C13.7937586,7.49555146 13.8812286,7.81365574 13.7834152,8.10149949 C13.7187167,8.29188257 13.7379522,8.5005711 13.8418274,8.6796165 C13.9466648,8.86029761 14.1208993,8.98175663 14.3210405,9.02004332 C14.6214647,9.07750142 14.8566372,9.3109019 14.9151698,9.60969846 C14.9655478,9.86684069 14.9911017,10.1295315 14.9911017,10.3950527 C14.9911017,10.6466624 14.9681537,10.8957464 14.9228672,11.1400115 C14.8666599,11.4432581 14.628673,11.680796 14.3240874,11.7376848 C14.1227355,11.7752739 13.947202,11.8970536 13.8418274,12.0786729 C13.7357232,12.261551 13.7180031,12.4754112 13.7875605,12.6686487 C13.8918767,12.9584329 13.8065475,13.28223 13.5727461,13.4837744 C13.1829034,13.8198393 12.7325638,14.0807261 12.2444265,14.2510317 C11.9520685,14.3530306 11.6267719,14.2655125 11.4258931,14.030813 C11.2923427,13.8747717 11.0992014,13.7840303 10.8895747,13.7840303 C10.6794991,13.7840303 10.4859729,13.8751726 10.3524145,14.0317913 C10.1519766,14.2668595 9.82684844,14.354971 9.53430605,14.2535093 C9.04183095,14.0826985 8.58765858,13.8197672 8.19503358,13.4804629 C7.96214626,13.2791992 7.87696138,12.9565085 7.98041161,12.6673338 C8.0494319,12.4744009 8.03154339,12.261126 7.92567969,12.0786729 C7.83817489,11.9278581 7.70229388,11.8183033 7.5433811,11.763943 L7.44547237,11.7380616 C7.1419451,11.6804512 6.90505673,11.4433624 6.84892162,11.1409897 C6.80352283,10.8964199 6.78051072,10.6470072 6.78051072,10.3950607 C6.78051072,10.1291787 6.80613674,9.86615915 6.8566431,9.60868015 C6.91508744,9.31077361 7.14914541,9.07783818 7.44852729,9.01964241 C7.64784259,8.9809067 7.82121114,8.85965616 7.92567167,8.6796165 C8.02931434,8.50099606 8.04868621,8.29288484 7.98452493,8.10283051 C7.88757741,7.81562018 7.97488711,7.49859836 8.20542511,7.30069426 C8.59569278,6.96571177 9.04619283,6.7059075 9.53430605,6.53661217 C9.82684844,6.43515043 10.1519766,6.52326194 10.3524145,6.75832218 Z M9.89347566,7.56203641 C9.53206611,7.68738651 9.20199049,7.87928608 8.91809837,8.12297917 C9.03321507,8.46403716 9.00582039,8.85186197 8.81008239,9.18923276 C8.61278166,9.52927533 8.28532739,9.74756857 7.92764825,9.81709228 C7.89095637,10.0041164 7.87172825,10.1973483 7.87172825,10.3950451 C7.87172825,10.5823213 7.88897595,10.7655862 7.92197343,10.9433491 C8.28187065,11.011663 8.61173743,11.2304676 8.81008239,11.5723033 C9.0100405,11.9169405 9.03431691,12.3142497 8.91045033,12.6605216 C9.19606361,12.9073546 9.52881821,13.1015874 9.89347566,13.228061 C10.1329126,12.9472727 10.4901381,12.7690777 10.8891829,12.7690777 C11.2873708,12.7690777 11.6439193,12.9465022 11.8833418,13.2262534 C12.2447586,13.1001543 12.5747118,12.9074554 12.8583374,12.6629485 C12.7334698,12.3161077 12.7574006,11.9177542 12.9578268,11.5723105 C13.1568775,11.2292433 13.488379,11.0101075 13.8497598,10.9426362 C13.8826708,10.7650893 13.8998681,10.5820692 13.8998681,10.3950451 C13.8998681,10.1976075 13.8807048,10.0046133 13.8441066,9.81781964 C13.4849223,9.7491169 13.1558405,9.53047798 12.9578268,9.18921836 C12.7616135,8.8510482 12.7345573,8.46216475 12.8506534,8.12052345 C12.5687561,7.87917086 12.2414963,7.68880521 11.8833418,7.5638512 C11.6439193,7.84358802 11.2873708,8.0210197 10.8891829,8.0210197 C10.4901381,8.0210197 10.1329126,7.84282466 9.89347566,7.56203641 Z M6.87124319,7.53767782 C6.62797613,7.87241408 6.42634112,8.23936138 6.27394376,8.63091412 L4.70154333,8.6309066 C3.79678024,8.63090674 3.06330255,9.36438429 3.06330255,10.2691735 C3.06330268,11.1439364 3.75054698,11.8643796 4.62433712,11.9056178 L4.70151775,11.9074381 L6.1839231,11.9075246 C6.31066291,12.295408 6.48483004,12.6618409 6.69957297,12.9999718 L4.70151188,12.9996163 C3.19422344,12.9996164 1.97176233,11.7771553 1.97176233,10.2691715 C1.97176233,8.79616651 3.14014698,7.58867677 4.61235847,7.54021137 L4.70082489,7.53875512 L6.87124319,7.53767782 Z M10.8857982,8.88144149 C11.7274238,8.88144149 12.4096726,9.56036275 12.4096726,10.397851 C12.4096726,11.2353313 11.7274238,11.9142606 10.8857982,11.9142606 C10.0441805,11.9142606 9.36193174,11.2353313 9.36193174,10.397851 C9.36193174,9.56036275 10.0441805,8.88144149 10.8857982,8.88144149 Z M10.8857982,9.62718605 C10.4581018,9.62718605 10.1113727,9.97222331 10.1113727,10.397851 C10.1113727,10.8234868 10.4581098,11.1685241 10.8857982,11.1685241 C11.3135026,11.1685241 11.6602317,10.8234868 11.6602317,10.397851 C11.6602317,9.97220727 11.3135026,9.62718605 10.8857982,9.62718605 Z M4.85832064,1.82820333 C5.0809833,2.00179306 5.13461265,2.31649219 4.98201406,2.55403407 L4.95143307,2.59699301 L4.50218445,3.17002294 L11.8315012,3.17002294 C13.3394845,3.17002271 14.561948,4.39248405 14.561948,5.90046779 C14.561948,6.30072746 14.4756768,6.68137419 14.320485,7.02448679 C14.051073,6.74582699 13.7502585,6.49883247 13.4227743,6.28994912 C13.453488,6.1660676 13.4697416,6.03517601 13.4697416,5.90048822 C13.4697416,5.02572536 12.7824989,4.30528213 11.9087087,4.26404217 L11.8315015,4.26219922 L3.42966601,4.26219922 C3.12806961,4.26219922 2.88357704,4.01770666 2.88357704,3.71611025 L2.88466922,3.68953398 C2.87738803,3.57631148 2.90469243,3.46017661 2.96913092,3.35933275 L2.99971191,3.31673781 L4.09188985,1.92311876 C4.27732464,1.68526454 4.62046647,1.64276858 4.85832064,1.82820333 Z" fill="currentColor" fill-rule="nonzero"/></g></svg>