<svg width="16px" height="16px" viewBox="0 0 16 16" version="1.1" xmlns="http://www.w3.org/2000/svg" xmlns:xlink="http://www.w3.org/1999/xlink"><title>ic_fullscreen</title><g stroke-width="1" fill="none" fill-rule="evenodd"><rect fill="currentColor" opacity="0" x="0" y="0" width="16" height="16"/><path d="M14.8229332,10.2780904 C14.9333901,10.2780904 15.0229332,10.3676334 15.0229332,10.4780904 L15.0229332,10.4780904 L15.0229332,14.2780904 C15.0229332,14.8303751 14.5752179,15.2780904 14.0229332,15.2780904 L14.0229332,15.2780904 L10.2229332,15.2780904 C10.1124762,15.2780904 10.0229332,15.1885473 10.0229332,15.0780904 L10.0229332,15.0780904 L10.0229332,14.4780904 C10.0229332,14.3676334 10.1124762,14.2780904 10.2229332,14.2780904 L10.2229332,14.2780904 L14.0229332,14.2780904 L14.0229332,10.4780904 C14.0229332,10.3676334 14.1124762,10.2780904 14.2229332,10.2780904 L14.2229332,10.2780904 Z M1.77706682,10.2780904 C1.88752377,10.2780904 1.97706682,10.3676334 1.97706682,10.4780904 L1.97706682,14.2780904 L5.77706682,14.2780904 C5.88752377,14.2780904 5.97706682,14.3676334 5.97706682,14.4780904 L5.97706682,15.0780904 C5.97706682,15.1885473 5.88752377,15.2780904 5.77706682,15.2780904 L1.97706682,15.2780904 C1.42478207,15.2780904 0.977066815,14.8303751 0.977066815,14.2780904 L0.977066815,10.4780904 C0.977066815,10.3676334 1.06660987,10.2780904 1.17706682,10.2780904 L1.77706682,10.2780904 Z M5.77706682,0.977066815 C5.88752377,0.977066815 5.97706682,1.06660987 5.97706682,1.17706682 L5.97706682,1.17706682 L5.97706682,1.77706682 C5.97706682,1.88752377 5.88752377,1.97706682 5.77706682,1.97706682 L5.77706682,1.97706682 L1.97706682,1.97706682 L1.97706682,5.77706682 C1.97706682,5.88752377 1.88752377,5.97706682 1.77706682,5.97706682 L1.77706682,5.97706682 L1.17706682,5.97706682 C1.06660987,5.97706682 0.977066815,5.88752377 0.977066815,5.77706682 L0.977066815,5.77706682 L0.977066815,1.97706682 C0.977066815,1.42478207 1.42478207,0.977066815 1.97706682,0.977066815 L1.97706682,0.977066815 Z M14.0229332,0.977066815 C14.5752179,0.977066815 15.0229332,1.42478207 15.0229332,1.97706682 L15.0229332,5.77706682 C15.0229332,5.88752377 14.9333901,5.97706682 14.8229332,5.97706682 L14.2229332,5.97706682 C14.1124762,5.97706682 14.0229332,5.88752377 14.0229332,5.77706682 L14.0229332,1.97706682 L10.2229332,1.97706682 C10.1124762,1.97706682 10.0229332,1.88752377 10.0229332,1.77706682 L10.0229332,1.17706682 C10.0229332,1.06660987 10.1124762,0.977066815 10.2229332,0.977066815 L14.0229332,0.977066815 Z" fill="currentColor" fill-rule="nonzero"/></g></svg>