<svg width="16px" height="16px" viewBox="0 0 16 16" version="1.1" xmlns="http://www.w3.org/2000/svg" xmlns:xlink="http://www.w3.org/1999/xlink"><title>ic_global_settings_hover</title><defs><rect id="icon-ic_global_settings_hover-a" x="0" y="0" width="16" height="16"/></defs><g stroke-width="1" fill="none" fill-rule="evenodd"><mask id="icon-ic_global_settings_hover-b" fill="white"><use xlink:href="#icon-ic_global_settings_hover-a"/></mask><use fill="currentColor" opacity="0" xlink:href="#icon-ic_global_settings_hover-a"/><path d="M14,1 C14.5522847,1 15,1.44771525 15,2 L15,14 C15,14.5522847 14.5522847,15 14,15 L2,15 C1.44771525,15 1,14.5522847 1,14 L1,2 C1,1.44771525 1.44771525,1 2,1 L14,1 Z M14,2 L2,2 L2,14 L14,14 L14,2 Z M6.32589499,8.63396959 C6.41794245,8.63396959 6.49546636,8.69615226 6.5187508,8.78080167 L6.52589499,8.83396959 L6.526,9.53396959 L12.3,9.53396959 C12.3920475,9.53396959 12.4695714,9.59615226 12.4928558,9.68080167 L12.5,9.73396959 L12.5,10.3339696 C12.5,10.426017 12.4378173,10.503541 12.3531679,10.5268254 L12.3,10.5339696 L6.526,10.5339696 L6.52589499,11.4339696 C6.52589499,11.526017 6.46371232,11.603541 6.37906291,11.6268254 L6.32589499,11.6339696 L5.72589499,11.6339696 C5.63384753,11.6339696 5.55632361,11.5717869 5.53303918,11.4871375 L5.52589499,11.4339696 L5.526,10.5339696 L3.7,10.5339696 C3.60795254,10.5339696 3.53042863,10.4717869 3.50714419,10.3871375 L3.5,10.3339696 L3.5,9.73396959 C3.5,9.64192213 3.56218267,9.56439821 3.64683208,9.54111378 L3.7,9.53396959 L5.526,9.53396959 L5.52589499,8.83396959 C5.52589499,8.74192213 5.58807766,8.66439821 5.67272707,8.64111378 L5.72589499,8.63396959 L6.32589499,8.63396959 Z M10.274105,4.36603041 C10.384562,4.36603041 10.474105,4.45557346 10.474105,4.56603041 L10.474,5.26603041 L12.3,5.26603041 C12.4104569,5.26603041 12.5,5.35557346 12.5,5.46603041 L12.5,6.06603041 C12.5,6.17648736 12.4104569,6.26603041 12.3,6.26603041 L10.474,6.26603041 L10.474105,7.16603041 C10.474105,7.27648736 10.384562,7.36603041 10.274105,7.36603041 L9.67410501,7.36603041 C9.56364806,7.36603041 9.47410501,7.27648736 9.47410501,7.16603041 L9.474,6.26603041 L3.7,6.26603041 C3.58954305,6.26603041 3.5,6.17648736 3.5,6.06603041 L3.5,5.46603041 C3.5,5.35557346 3.58954305,5.26603041 3.7,5.26603041 L9.474,5.26603041 L9.47410501,4.56603041 C9.47410501,4.45557346 9.56364806,4.36603041 9.67410501,4.36603041 L10.274105,4.36603041 Z" fill="currentColor" mask="url(#icon-ic_global_settings_hover-b)"/></g></svg>