<svg width="16px" height="16px" viewBox="0 0 16 16" version="1.1" xmlns="http://www.w3.org/2000/svg" xmlns:xlink="http://www.w3.org/1999/xlink"><title>ic_auto</title><g stroke-width="1" fill="none" fill-rule="evenodd"><rect fill="currentColor" opacity="0" x="0" y="0" width="16" height="16"/><g transform="translate(1.000000, 0.000000)"><path d="M11.899976,3.23122068 C10.6373526,1.99346029 8.90780532,1.23024713 7,1.23024713 C3.13400675,1.23024713 0,4.36425388 0,8.23024713 C0,12.0962404 3.13400675,15.2302471 7,15.2302471 C10.8659932,15.2302471 14,12.0962404 14,8.23024713 C14,7.4933659 13.8861396,6.7830782 13.6750524,6.1160176" stroke="currentColor"/><path d="M9.85939743,2.81966793 L10.3947019,2.22515207 L10.3990247,2.22836244 L11.9337023,0.525538024 C12.0076124,0.443452513 12.1340719,0.436825054 12.2161574,0.51073518 L12.6620443,0.912213544 C12.7441298,0.986123669 12.7507573,1.11258312 12.6768471,1.19466863 L11.1420247,2.89736244 L12.8470798,4.43328307 C12.9291653,4.5071932 12.9357928,4.63365265 12.8618827,4.71573816 L12.4604043,5.16162505 C12.3864942,5.24371056 12.2600347,5.25033802 12.1779492,5.1764279 L10.4730247,3.64136244 L10.4687161,3.64704655 L9.87420027,3.11174207 C9.82494897,3.06739599 9.80286256,3.00413216 9.80903823,2.942886 L9.80903823,2.93326694 C9.81315534,2.89243617 9.82983338,2.85250213 9.85939743,2.81966793 Z" fill="currentColor" fill-rule="nonzero" transform="translate(11.360640, 2.843582) rotate(-145.000000) translate(-11.360640, -2.843582) "/><path d="M4.91333008,11.7112135 L5.51489258,9.96023697 L8.48510742,9.96023697 L9.09204102,11.7112135 L10.3435059,11.7112135 L7.49682617,3.88015884 L6.50317383,3.88015884 L3.65649414,11.7112135 L4.91333008,11.7112135 Z M8.14672852,8.90750259 L5.85864258,8.90750259 L6.99194336,5.48611587 L7.01342773,5.48611587 L8.14672852,8.90750259 Z" fill="currentColor" fill-rule="nonzero"/></g></g></svg>