<svg width="16px" height="16px" viewBox="0 0 16 16" version="1.1" xmlns="http://www.w3.org/2000/svg" xmlns:xlink="http://www.w3.org/1999/xlink"><title>ic_cancel_use</title><defs><rect id="icon-ic_cancel_use-a" x="0" y="0" width="16" height="16"/></defs><g stroke-width="1" fill="none" fill-rule="evenodd"><mask id="icon-ic_cancel_use-b" fill="white"><use xlink:href="#icon-ic_cancel_use-a"/></mask><use fill="currentColor" opacity="0" xlink:href="#icon-ic_cancel_use-a"/><path d="M4.92,11 L4.91868721,10.8678591 C4.91868721,11.2555998 4.95676834,11.6344462 5.02939457,12.0008622 L1.375,12 L1.375,14 L5.83785844,14.0009675 C6.07163837,14.3640262 6.34486222,14.699284 6.65147383,15.0006848 L1.5,15 C0.94771525,15 0.5,14.5522847 0.5,14 L0.5,14 L0.5,12 C0.5,11.4477153 0.94771525,11 1.5,11 L1.5,11 L4.92,11 Z M5.48550932,13.3705901 L5.47269414,13.4009438 C5.43798087,13.4602031 5.37363797,13.5 5.3,13.5 L5.3,13.5 L3.7,13.5 C3.58954305,13.5 3.5,13.4104569 3.5,13.3 L3.5,13.3 L3.5,12.7 C3.5,12.5895431 3.58954305,12.5 3.7,12.5 L3.7,12.5 L5.15190526,12.5006765 C5.24008294,12.8015184 5.3520067,13.092212 5.48550932,13.3705901 Z M6.39798873,7.00040388 L1.375,7 L1.375,9 L5.22634078,8.99989524 C5.11689573,9.32149313 5.03492831,9.65579833 4.98323625,10.0000131 L1.5,10 C0.94771525,10 0.5,9.55228475 0.5,9 L0.5,9 L0.5,7 C0.5,6.44771525 0.94771525,6 1.5,6 L1.5,6 L7.56896835,5.99954788 C7.13529611,6.28025296 6.74151215,6.61732905 6.39798873,7.00040388 Z M5.3,7.5 C5.41045695,7.5 5.5,7.58954305 5.5,7.7 L5.5,7.7 L5.5,8.3 C5.5,8.31736744 5.49778631,8.33421785 5.49362569,8.35028446 C5.48298901,8.37028825 5.47330224,8.3906405 5.46373106,8.41105774 C5.42930769,8.46536266 5.36869883,8.5 5.3,8.5 L5.3,8.5 L3.7,8.5 C3.58954305,8.5 3.5,8.41045695 3.5,8.3 L3.5,8.3 L3.5,7.7 C3.5,7.58954305 3.58954305,7.5 3.7,7.5 L3.7,7.5 Z M13.5,1 C14.0522847,1 14.5,1.44771525 14.5,2 L14.5,2 L14.5,4 C14.5,4.55228475 14.0522847,5 13.5,5 L13.5,5 L1.5,5 C0.94771525,5 0.5,4.55228475 0.5,4 L0.5,4 L0.5,2 C0.5,1.44771525 0.94771525,1 1.5,1 L1.5,1 Z M13.4196594,1.99786377 L1.375,1.99786377 L1.375,3.99786377 L13.6196594,3.99786377 L13.6196594,2.19786377 C13.6196594,2.08740682 13.5301164,1.99786377 13.4196594,1.99786377 L13.4196594,1.99786377 Z M5.3,2.5 C5.41045695,2.5 5.5,2.58954305 5.5,2.7 L5.5,2.7 L5.5,3.3 C5.5,3.41045695 5.41045695,3.5 5.3,3.5 L5.3,3.5 L3.7,3.5 C3.58954305,3.5 3.5,3.41045695 3.5,3.3 L3.5,3.3 L3.5,2.7 C3.5,2.58954305 3.58954305,2.5 3.7,2.5 L3.7,2.5 Z" fill="currentColor" fill-rule="nonzero" mask="url(#icon-ic_cancel_use-b)"/><circle stroke="currentColor" mask="url(#icon-ic_cancel_use-b)" cx="10.6207769" cy="10.534307" r="4.07"/><path d="M10.8547065,8.03430695 C10.9651634,8.03430695 11.0547065,8.12385 11.0547065,8.23430695 L11.0537769,10.100307 L12.9207769,10.1003774 C13.0312339,10.1003774 13.1207769,10.1899205 13.1207769,10.3003774 L13.1207769,10.7682365 C13.1207769,10.8786934 13.0312339,10.9682365 12.9207769,10.9682365 L11.0537769,10.967307 L11.0547065,12.834307 C11.0547065,12.9447639 10.9651634,13.034307 10.8547065,13.034307 L10.3868474,13.034307 C10.2763905,13.034307 10.1868474,12.9447639 10.1868474,12.834307 L10.1867769,10.967307 L8.32077693,10.9682365 C8.21031998,10.9682365 8.12077693,10.8786934 8.12077693,10.7682365 L8.12077693,10.3003774 C8.12077693,10.1899205 8.21031998,10.1003774 8.32077693,10.1003774 L10.1867769,10.100307 L10.1868474,8.23430695 C10.1868474,8.12385 10.2763905,8.03430695 10.3868474,8.03430695 L10.8547065,8.03430695 Z" fill="currentColor" mask="url(#icon-ic_cancel_use-b)" transform="translate(10.620777, 10.534307) rotate(-315.000000) translate(-10.620777, -10.534307) "/></g></svg>