<svg width="24px" height="24px" viewBox="0 0 24 24" version="1.1" xmlns="http://www.w3.org/2000/svg" xmlns:xlink="http://www.w3.org/1999/xlink"><title> ic_common_routin-24</title><g stroke-width="1" fill="none" fill-rule="evenodd"><path d="M15.4282443,14.256513 C15.9595005,14.256513 16.4406207,14.4705088 16.7888193,14.8170018 C17.135685,15.1621683 17.350541,15.6389245 17.350541,16.1657191 C17.350541,16.69251 17.1356829,17.1692667 16.7888159,17.5144345 C16.4406176,17.860927 15.9594991,18.0749251 15.4282443,18.0749251 C14.8969955,18.0749251 14.4158809,17.8609264 14.0676849,17.5144343 C13.7208196,17.1692664 13.5059617,16.6925098 13.5059617,16.1657191 C13.5059617,15.6389246 13.7208175,15.1621686 14.0676815,14.817002 C14.4158778,14.4705094 14.8969941,14.256513 15.4282443,14.256513 Z" stroke="currentColor" stroke-width="1.5" fill-rule="nonzero"/><path d="M13.3039999,10.1031654 C13.4147805,10.0647436 13.5317299,10.06223 13.6399581,10.0915602 C14.2983426,10.7110841 14.8432788,10.9678613 15.434867,10.9678613 C16.0252196,10.9678613 16.5690733,10.7121807 16.9451583,10.2727827 C17.0208445,10.1843537 17.1200509,10.1238168 17.2277583,10.0948392 C17.3360437,10.065706 17.4529914,10.0684325 17.563702,10.1070577 C18.3236761,10.3722021 19.0253159,10.7771742 19.6339742,11.2982821 C19.7204672,11.3723471 19.7802206,11.4687312 19.8090583,11.5736044 C19.8377336,11.6778868 19.8357988,11.7904968 19.7994476,11.8974703 C19.6169268,12.4345596 19.6700607,13.0235658 19.9632888,13.528991 C20.2214847,13.9739765 20.6296449,14.2906465 21.1047455,14.435171 C21.1188384,14.439458 21.1329668,14.4435864 21.1471315,14.4475316 C21.1561689,14.4491703 21.1652453,14.4509119 21.1743596,14.452755 C21.3471922,14.4877058 21.4933424,14.5510076 21.6000473,14.6481236 C21.6828822,14.7235146 21.737009,14.8195023 21.7582227,14.9277941 C21.837317,15.3315112 21.8773865,15.7439429 21.8773865,16.1608118 C21.8773865,16.55586 21.8414,16.9469479 21.7702896,17.3305008 C21.7493112,17.443682 21.694267,17.5445051 21.6162142,17.6224136 C21.5372915,17.7011905 21.4348761,17.756571 21.3200619,17.7780153 C20.7537394,17.8837385 20.2597197,18.2259235 19.9632766,18.7368604 C19.6637677,19.2530849 19.6149244,19.8566932 19.8111624,20.4018617 C19.849937,20.5095752 19.8534829,20.6236112 19.8255907,20.7294496 C19.7975503,20.8358504 19.7377784,20.9338971 19.6504305,21.0091938 C19.0379989,21.5371421 18.3305577,21.9470468 17.5637035,22.2145936 C17.4529914,22.2532193 17.3360437,22.2559458 17.2277583,22.2268126 C17.1200509,22.197835 17.0208445,22.1372981 16.9451675,22.0488799 C16.5690826,21.6094594 16.025227,21.3537905 15.434867,21.3537905 C14.8432524,21.3537905 14.2983184,21.6105781 13.9221927,22.0516457 C13.8466795,22.1402057 13.7475965,22.2009184 13.6399548,22.2300907 C13.5317277,22.2594217 13.4147794,22.2569078 13.3040087,22.2184895 C12.530333,21.9501467 11.8168675,21.5370278 11.2000674,21.0039927 C11.1130598,20.9287998 11.0534772,20.8310047 11.0254668,20.7248832 C10.9976097,20.6193419 11.0010232,20.5056349 11.0394727,20.398157 C11.234195,19.8538485 11.1848673,19.251879 10.8860347,18.7368495 C10.5906472,18.2277482 10.0991011,17.886171 9.53507585,17.7790942 C9.42061437,17.757369 9.31862538,17.7019402 9.24002972,17.6232758 C9.16227943,17.5454576 9.10745064,17.4448702 9.08650011,17.3320198 C9.0152188,16.9480173 8.97913031,16.556408 8.97913031,16.1608259 C8.97913031,15.7433847 9.01931512,15.3304313 9.09860829,14.9261985 C9.11852245,14.8246907 9.16584847,14.7333456 9.23257047,14.6598739 C9.29526834,14.5908334 9.37502329,14.5374835 9.46554585,14.5061237 C10.179339,14.3479239 10.6127147,14.0000287 10.8860133,13.5289936 C11.1785683,13.0247968 11.2321233,12.4374092 11.0511223,11.9012601 C11.0150874,11.7945053 11.0132845,11.6822093 11.0419247,11.5782105 C11.0707245,11.473632 11.1302667,11.3775078 11.2163749,11.3035887 C11.8294797,10.7773361 12.5371787,10.3691267 13.3039999,10.1031654 Z" stroke="currentColor" stroke-width="1.5" fill-rule="nonzero"/><path d="M7.71566528,12.7582594 L6.40797852,12.7585346 C4.73773581,12.7585346 3.38373658,14.1125339 3.38373658,15.7827766 C3.38373658,17.3887792 4.63558498,18.7023969 6.2167207,18.8010687 L6.40797852,18.8070185 L7.72728024,18.806671 C7.93120332,19.341965 8.18741746,19.85146 8.48967963,20.3289129 L6.40797852,20.3288912 C3.89722873,20.3288912 1.86186387,18.2935264 1.86186387,15.7827766 C1.86186387,13.3504877 3.77200608,11.3643365 6.17403606,11.2425773 L6.40797852,11.2366619 L8.47017712,11.2363029 C8.17065552,11.7139391 7.91708611,12.2233234 7.71566528,12.7582594 Z M7.94609269,1.36742025 C8.22770778,1.61990689 8.27712124,2.03483306 8.0796736,2.34340165 L8.00469461,2.44194996 L5.81375171,4.86938067 L17.0281847,4.87016782 C19.1338867,4.87016782 20.8541852,6.52027622 20.966532,8.59794493 L20.9723682,8.81435123 C20.9723682,8.88873006 20.9703093,8.96262802 20.9662456,9.03599125 C20.4597687,8.63938241 19.9075874,8.29938654 19.3188756,8.02455827 C19.008985,7.12637314 18.1864168,6.46764337 17.2011763,6.39812252 L17.0281847,6.39204052 L4.11039761,6.39204052 C3.49099841,6.39204052 3.14649745,5.70208598 3.47437774,5.21239347 L3.5438318,5.12314028 L6.87156299,1.42602218 C7.1521037,1.11311652 7.63318703,1.08687954 7.94609269,1.36742025 Z" fill="currentColor" fill-rule="nonzero"/></g></svg>