<svg width="24px" height="24px" viewBox="0 0 24 24" version="1.1" xmlns="http://www.w3.org/2000/svg" xmlns:xlink="http://www.w3.org/1999/xlink"><title> ic_Indoor_location_point-24_forbidden</title><g stroke-width="1" fill="none" fill-rule="evenodd"><g transform="translate(2.188938, 0.787357)" stroke="currentColor" stroke-width="1.5"><path d="M9.81104506,0.75 C11.6489634,0.75 13.3967255,1.2731594 14.8606086,2.1992881 C16.3148055,3.11928884 17.4889568,4.43735322 18.1878558,6.03493961 C18.8827986,7.62327767 19.0386946,9.33156361 18.6993865,10.9468051 C18.3589801,12.567275 17.5206263,14.0931965 16.2328393,15.3126448 L16.2328393,15.3126448 L9.98291985,21.2297566 L3.38925893,15.3126946 C2.1014475,14.0932231 1.26314594,12.5673402 0.922747837,10.9469098 C0.583431109,9.33162722 0.739322217,7.62329186 1.43420418,6.03490701 C2.13308952,4.43735172 3.3072425,3.1192864 4.76144649,2.19928567 C6.22533479,1.27315818 7.97310681,0.75 9.81104506,0.75 Z"/><circle fill-rule="nonzero" cx="9.81106234" cy="9.81106234" r="3.454741"/></g></g></svg>