<svg width="16px" height="16px" viewBox="0 0 16 16" version="1.1" xmlns="http://www.w3.org/2000/svg" xmlns:xlink="http://www.w3.org/1999/xlink"><title>icon_loding</title><g stroke-width="1" fill="none" fill-rule="evenodd"><rect stroke="currentColor" fill="currentColor" opacity="0" x="0.5" y="0.5" width="15" height="15"/><path d="M8,2 L8.09732312,2.00785299 C8.38241039,2.05435325 8.6,2.30176624 8.6,2.6 C8.6,2.93137085 8.33137085,3.2 8,3.2 L8,3.2 C5.3490332,3.2 3.2,5.3490332 3.2,8 C3.2,10.6509668 5.3490332,12.8 8,12.8 C10.6509668,12.8 12.8,10.6509668 12.8,8 C12.8,6.17298234 11.7792485,4.58437398 10.2769272,3.77335671 L10.8318896,2.70901758 C12.7175941,3.7204182 14,5.71044813 14,8 C14,11.3137085 11.3137085,14 8,14 C4.6862915,14 2,11.3137085 2,8 C2,4.6862915 4.6862915,2 8,2 Z" fill=""/></g></svg>