<svg width="20px" height="20px" viewBox="0 0 20 20" version="1.1" xmlns="http://www.w3.org/2000/svg" xmlns:xlink="http://www.w3.org/1999/xlink"><title>ic_场景集</title><g stroke-width="1" fill="none" fill-rule="evenodd"><rect fill="currentColor" opacity="0" x="0" y="0" width="20" height="20"/><g transform="translate(1.383126, 1.071986)" fill="currentColor" fill-rule="nonzero"><path d="M16.040642,6.05832512 L10.1546544,9.2531968 C9.61112848,9.54484483 9.27971025,10.1281409 9.27971025,10.7777206 L9.27971025,16.9553563 C9.27971025,17.6181928 9.92928997,18.0556648 10.4728159,17.75076 L16.3588035,14.5558884 C16.8890727,14.2642403 17.2337476,13.6809443 17.2337476,13.0313645 L17.2337476,6.86698559 C17.2337476,6.19089241 16.5841679,5.76667709 16.040642,6.05832512 Z M7.07909325,9.23994007 L1.1931056,6.05832512 C0.649579718,5.76667709 0,6.19089241 0,6.85372886 L0,13.057878 C0,13.7074577 0.331418223,14.2907538 0.87494411,14.5824018 L6.76093176,17.7640168 C7.30445764,18.0556648 7.95403736,17.6181928 7.95403736,16.9553563 L7.95403736,10.7644639 C7.95403736,10.1148842 7.62261914,9.5315881 7.07909325,9.23994007 Z M15.4971161,4.61334167 C15.7755074,4.46751765 15.9080747,4.2156398 15.8815613,3.97701868 C15.9080747,3.72514083 15.7755074,3.48651971 15.4971161,3.34069569 L9.50507465,0.212107663 C9.23994007,0.0662836447 8.92177857,0 8.60361708,0 C8.28545558,0 7.96729409,0.0662836447 7.70215951,0.212107663 L1.71011803,3.32743896 C1.43172673,3.47326298 1.31241616,3.72514083 1.32567289,3.96376195 C1.31241616,4.2156398 1.43172673,4.46751765 1.71011803,4.61334167 L7.70215951,7.72867297 C7.96729409,7.87449699 8.28545558,7.94078063 8.60361708,7.94078063 C8.92177857,7.94078063 9.23994007,7.87449699 9.50507465,7.72867297 L15.4971161,4.61334167 Z"/></g></g></svg>