<svg width="16px" height="16px" viewBox="0 0 16 16" version="1.1" xmlns="http://www.w3.org/2000/svg" xmlns:xlink="http://www.w3.org/1999/xlink"><title>ic_screen </title><g stroke-width="1" fill="none" fill-rule="evenodd"><g transform="translate(-1408.000000, -364.000000)" fill-rule="nonzero"><g transform="translate(1068.000000, 300.000000)"><g transform="translate(340.000000, 64.000000)"><rect fill="currentColor" opacity="0" x="0" y="0" width="16" height="16"/><path d="M8.88363636,14.9090958 C8.65757657,14.9096371 8.4350037,14.8533686 8.23636364,14.7454545 L6.45090909,13.7636364 C6.01706465,13.5254981 5.747898,13.0694489 5.74909091,12.5745455 L5.74909091,6.90909091 C5.74910076,6.82425206 5.70855854,6.74451902 5.64,6.69454545 L1.51636364,3.41090909 L1.45454545,3.35636364 C1.0842876,2.96620666 0.98279461,2.39265178 1.19668136,1.89912792 C1.41056811,1.40560406 1.89849591,1.08749639 2.43636364,1.0908819 L13.5490909,1.0908819 C14.0848383,1.09171453 14.5696295,1.40862617 14.7853168,1.89903915 C15.001004,2.38945214 14.906941,2.96094814 14.5454545,3.35636364 L14.4909091,3.41090909 L10.3309091,6.74545455 C10.268694,6.79908344 10.2339629,6.87789635 10.2363636,6.96 L10.2363636,13.56 C10.2363649,13.9184321 10.0937299,14.2621309 9.83993928,14.5152393 C9.58614863,14.7683477 9.24206715,14.910057 8.88363636,14.9090958 Z M2.21818181,2.60363636 L6.31636364,5.87636364 C6.63525471,6.12486466 6.82390531,6.50484175 6.82909091,6.90909091 L6.82909091,12.5745455 C6.82754377,12.6738751 6.87874333,12.7665878 6.96363636,12.8181818 L8.74909091,13.7890909 C8.83459811,13.8384585 8.93994734,13.8384585 9.02545455,13.7890909 C9.10950531,13.7388658 9.15964133,13.6469497 9.15636364,13.5490909 L9.15636364,6.96 C9.15409674,6.55219307 9.33741392,6.1654875 9.65454545,5.90909091 L13.7672727,2.60363636 C13.8275657,2.52107635 13.8373567,2.41197612 13.7927273,2.32 C13.7431768,2.23256927 13.6495592,2.17947276 13.5490909,2.18174357 L2.43636364,2.18174357 C2.33312395,2.18005581 2.23798027,2.23752344 2.1914937,2.3297218 C2.14500712,2.42192016 2.15537673,2.53258777 2.21818181,2.61454545 L2.21818181,2.60363636 Z M14.3854545,8 L11.4327273,8 C11.131481,8 10.8872727,7.75579168 10.8872727,7.45454545 C10.8872727,7.15329923 11.131481,6.90909091 11.4327273,6.90909091 L14.3854545,6.90909091 C14.6867008,6.90909091 14.9309091,7.15329923 14.9309091,7.45454545 C14.9309091,7.75579168 14.6867008,8 14.3854545,8 Z M14.3854545,10.0145455 L11.4327273,10.0145455 C11.131481,10.0145455 10.8872727,9.77033713 10.8872727,9.46909091 C10.8872727,9.16784468 11.131481,8.92363636 11.4327273,8.92363636 L14.3854545,8.92363636 C14.6867008,8.92363636 14.9309091,9.16784468 14.9309091,9.46909091 C14.9309091,9.77033713 14.6867008,10.0145455 14.3854545,10.0145455 Z M14.3854545,12.0145455 L11.4327273,12.0145455 C11.131481,12.0145455 10.8872727,11.7703371 10.8872727,11.4690909 C10.8872727,11.1678447 11.131481,10.9236364 11.4327273,10.9236364 L14.3854545,10.9236364 C14.6867008,10.9236364 14.9309091,11.1678447 14.9309091,11.4690909 C14.9309091,11.7703371 14.6867008,12.0145455 14.3854545,12.0145455 Z" fill="currentColor"/></g></g></g></g></svg>