<svg width="16px" height="16px" viewBox="0 0 16 16" version="1.1" xmlns="http://www.w3.org/2000/svg" xmlns:xlink="http://www.w3.org/1999/xlink"><title>ic_save_mode_hover</title><defs><rect id="icon-ic_save_mode_hover-a" x="0" y="0" width="16" height="16"/></defs><g stroke-width="1" fill="none" fill-rule="evenodd"><mask id="icon-ic_save_mode_hover-b" fill="white"><use xlink:href="#icon-ic_save_mode_hover-a"/></mask><use fill="currentColor" opacity="0" xlink:href="#icon-ic_save_mode_hover-a"/><path d="M14,1 C14.5128358,1 14.9355072,1.38604019 14.9932723,1.88337887 L15,2 L15,2 L15,14 C15,14.5128358 14.6139598,14.9355072 14.1166211,14.9932723 L14,15 L2,15 C1.44771525,15 1,14.5522847 1,14 L1,2 C1,1.44771525 1.44771525,1 2,1 L14,1 Z M4.5,8 C4.22385763,8 4,7.77614237 4,7.5 L4,2 L2,2 L2,14 L14,14 L14,2 L13,2 L13,7.5 C13,7.74545989 12.8231248,7.94960837 12.5898756,7.99194433 L12.5,8 L4.5,8 Z M9.5,2 L5,2 L5,7 L12,7 L12,2 L10.5,2 L10.5,5.8 C10.5,5.91045695 10.4104569,6 10.3,6 L9.7,6 C9.58954305,6 9.5,5.91045695 9.5,5.8 L9.5,2 Z" fill="currentColor" mask="url(#icon-ic_save_mode_hover-b)"/></g></svg>