<svg width="20px" height="20px" viewBox="0 0 20 20" version="1.1" xmlns="http://www.w3.org/2000/svg" xmlns:xlink="http://www.w3.org/1999/xlink"><title>ic_vehicle</title><g stroke-width="1" fill="none" fill-rule="evenodd"><path d="M19.3159536,9.24919809 L17.8541101,9.23402733 C17.7565492,9.23290521 17.6599345,9.25324371 17.5711063,9.29360274 L15.4511319,4.93609414 C15.0323362,4.16189818 14.2181343,3.91332201 13.7218659,3.83362633 L13.5307245,3.8087706 L13.5307245,3.8087706 L13.3443034,3.79660986 L13.3443034,3.79660986 L6.75193928,3.75744726 C5.28236156,3.69120143 4.64761941,4.43767658 4.39614047,4.9033177 L4.32588965,5.04663007 L4.32588965,5.04663007 L4.28031206,5.16013947 L4.28031206,5.16013947 L4.24830996,5.26174753 L4.24830996,5.26174753 L2.35321887,9.16205318 C2.25257244,9.10262232 2.13803683,9.07077555 2.02115854,9.06972299 L0.559335496,9.05452339 C0.192339559,9.05073619 -0.107994639,9.34298897 -0.111429083,9.70729458 L-0.118344451,10.432933 C-0.121758013,10.7972907 0.172895161,11.095694 0.539854667,11.0995173 L1.53905524,11.109871 C1.5245166,11.2016493 1.51213769,11.2958071 1.50160247,11.3890016 L1.46557208,11.7905951 L1.46557208,11.7905951 L1.44234221,12.2968691 L1.44234221,12.2968691 L1.39943894,16.90956 C1.35241065,17.2856246 1.5698179,17.4603372 1.69190164,17.5276633 L1.77005958,17.5630566 L1.77005958,17.5630566 L3.88056428,17.6118972 C4.29014912,17.5914471 4.39353755,17.315397 4.41838394,17.1474561 L4.4258106,17.055503 L4.4258106,17.055503 L4.42495514,17.0195303 L4.42495514,17.0195303 L4.45852374,15.8103876 L15.3851997,15.9570168 L15.4228725,17.2475771 C15.4835991,17.5468147 15.6687064,17.6665047 15.7743054,17.7113873 L15.8502153,17.736118 L15.8502153,17.736118 L17.8474775,17.7533202 C18.2366825,17.7209046 18.3398265,17.4090055 18.366452,17.2201365 L18.375332,17.0871854 L18.375332,17.0871854 L18.4112233,11.8654193 C18.4076082,11.6764796 18.3805366,11.4765711 18.3426076,11.2842919 L19.2964942,11.2941826 C19.6635048,11.2980151 19.9637558,11.0057393 19.9672295,10.6413965 L19.9741602,9.91580443 C19.9775878,9.55149099 19.6829203,9.25304342 19.3159536,9.24919809 Z M5.81884036,6.30198986 C6.11721175,5.7502883 6.58223436,5.62201777 6.89879455,5.60568815 L7.0548462,5.60601044 L7.0548462,5.60601044 L7.17008678,5.61730259 L7.17008678,5.61730259 L7.24156819,5.63023643 L7.24156819,5.63023643 L12.8451854,5.66691722 C13.6517369,5.65039362 13.9956881,6.05378936 14.1282415,6.29251036 L14.1780647,6.3954415 L14.1780647,6.3954415 L14.2020017,6.46285515 L14.2020017,6.46285515 L15.94358,10.259298 L3.91489544,10.1004667 L5.81884036,6.30198986 Z M5.36666658,12.5971448 C5.5390362,13.2565567 5.14500928,13.930505 4.48653319,14.1025212 C3.82807907,14.2745297 3.15456161,13.8793619 2.98221966,13.2200412 C2.80982727,12.5606366 3.2038985,11.8867473 3.86235305,11.7146648 C4.52079979,11.5427087 5.19432463,11.937824 5.36666658,12.5971448 Z M16.8260291,12.6796989 C17.001733,13.351914 16.600037,14.0391398 15.9286207,14.2145346 C15.2572654,14.3898842 14.5705292,13.9870778 14.3948429,13.3147568 C14.219056,12.6425173 14.6208593,11.955308 15.2922364,11.7799504 C15.9187934,11.6162342 16.5588326,11.9562169 16.7842336,12.5489149 L16.8260291,12.6796989 Z" fill="currentColor" fill-rule="nonzero"/></g></svg>