<svg t="1689753317800" viewBox="0 0 1152 1024" version="1.1" xmlns="http://www.w3.org/2000/svg" p-id="4916" xmlns:xlink="http://www.w3.org/1999/xlink" width="225" height="200"><path d="M18.855 387.602c20.196-15.328 48.955-11.376 64.267 8.826l47.732 62.925C142.74 342.515 193.955 234.201 278.13 150.01c199.647-199.656 524.464-199.656 724.085 0 199.646 199.647 199.646 524.463 0 724.084-99.811 99.81-230.921 149.734-362.026 149.734-131.105 0-262.207-49.91-362.026-149.734-17.909-17.899-17.909-46.945 0-64.85 17.9-17.91 46.945-17.91 64.85 0 163.873 163.872 430.499 163.872 594.368 0 163.844-163.872 163.844-430.498 0-594.368-163.872-163.872-430.498-163.872-594.367 0-70.181 70.181-112.423 160.844-121.295 258.483l58.752-60.631c17.62-18.178 46.637-18.633 64.85-0.99 18.178 17.62 18.633 46.678 0.99 64.85l-140.937 145.38c-8.643 8.965-20.556 13.936-32.92 13.936-0.927 0-1.837-0.002-2.775-0.008a45.852 45.852 0 0 1-33.758-18.042L10.046 451.953c-15.31-20.172-11.375-48.94 8.84-64.249l-0.031-0.102z" fill="currentColor" p-id="4917"/></svg>