<?xml version="1.0" encoding="UTF-8"?>
<svg width="61px" height="60px" viewBox="0 0 61 60" version="1.1" xmlns="http://www.w3.org/2000/svg" xmlns:xlink="http://www.w3.org/1999/xlink">
    <title>ic_aiming circle</title>
    <defs>
        <linearGradient x1="50%" y1="-11.1225308%" x2="55.4428501%" y2="257.916438%" id="linearGradient-1">
            <stop stop-color="#FFFFFF" offset="0%"></stop>
            <stop stop-color="#41A5FF" offset="100%"></stop>
        </linearGradient>
        <path d="M30.0379494,6 C43.2424102,6 54,16.7575898 54,30.0379494 C54,43.2424102 43.2423576,54 30.0379494,54 C16.7575898,54 6,43.2423576 6,30.0379494 C6,16.7575898 16.7575898,6 30.0379494,6 Z M25.6732064,50.0957032 C26.8130563,32.5755481 13.5901881,33.0980897 9.68329216,33.1511352 C10.9649865,41.5836626 17.3733478,48.3190645 25.6732064,50.0957032 Z M49.7774531,33.1511352 C45.8705572,33.0980897 32.6476889,32.5755481 33.7875389,50.0957032 C42.0873974,48.3190645 48.4957588,41.5836626 49.7774531,33.1511352 Z M30,9.27272727 C19.8186653,9.27272727 11.351865,16.6135215 9.60362195,26.291087 L9.60362195,26.291087 L23.0680282,26.2900334 C22.6849375,27.192749 22.4727273,28.1833514 22.4727273,29.2205107 C22.4727273,33.3677724 25.8818215,36.7089453 30.0388382,36.7089453 C34.1860999,36.7089453 37.5272727,33.367833 37.5272727,29.2205107 C37.5272727,28.1833514 37.3192942,27.192749 36.942706,26.2900334 L50.396378,26.291087 C48.648135,16.6135215 40.1813347,9.27272727 30,9.27272727 Z M30.0239221,24.5453089 C32.5784322,24.5453089 34.6363636,26.6451133 34.6363636,29.2055946 C34.6363636,31.7601047 32.5783948,33.8180362 30.0239221,33.8180362 C27.4634408,33.8180362 25.3636364,31.7600674 25.3636364,29.2055946 C25.3636364,26.6451133 27.4634408,24.5453089 30.0239221,24.5453089 Z" id="path-2"></path>
        <filter x="-7.3%" y="-5.2%" width="114.6%" height="114.6%" filterUnits="objectBoundingBox" id="filter-3">
            <feOffset dx="0" dy="1" in="SourceAlpha" result="shadowOffsetOuter1"></feOffset>
            <feGaussianBlur stdDeviation="1" in="shadowOffsetOuter1" result="shadowBlurOuter1"></feGaussianBlur>
            <feColorMatrix values="0 0 0 0 0.149019608   0 0 0 0 0.454901961   0 0 0 0 1  0 0 0 0.2 0" type="matrix" in="shadowBlurOuter1"></feColorMatrix>
        </filter>
    </defs>
    <g id="控件" stroke="none" stroke-width="1" fill="none" fill-rule="evenodd">
        <g id="Vehicle-Dashboard" transform="translate(-243.000000, -214.000000)">
            <g id="编组-5备份-3" transform="translate(16.000000, 136.000000)">
                <g id="Rotation-ratio" transform="translate(175.000000, 0.000000)">
                    <g id="方向盘" transform="translate(26.000000, 78.000000)">
                        <g id="ic_aiming-circle" transform="translate(26.500000, 0.000000)">
                            <rect id="矩形" stroke="#979797" fill="#D8D8D8" opacity="0" x="0.5" y="0.5" width="59" height="59"></rect>
                            <g id="形状结合">
                                <use fill="black" fill-opacity="1" filter="url(#filter-3)" xlink:href="#path-2"></use>
                                <use fill="url(#linearGradient-1)" fill-rule="evenodd" xlink:href="#path-2"></use>
                            </g>
                        </g>
                    </g>
                </g>
            </g>
        </g>
    </g>
</svg>