<?xml version="1.0" encoding="UTF-8"?>
<svg width="16px" height="16px" viewBox="0 0 16 16" version="1.1" xmlns="http://www.w3.org/2000/svg" xmlns:xlink="http://www.w3.org/1999/xlink">
    <title>icon/ic_bottom_rail_download</title>
    <defs>
        <rect id="path-1" x="0" y="0" width="16" height="16"></rect>
    </defs>
    <g id="icon/ic_bottom_rail_download" stroke="none" stroke-width="1" fill="none" fill-rule="evenodd">
        <rect id="矩形" fill="#D8D8D8" opacity="0" x="0" y="0" width="16" height="16"></rect>
        <g id="ic_导入">
            <mask id="mask-2" fill="white">
                <use xlink:href="#path-1"></use>
            </mask>
            <use id="矩形" fill="#A3A7B3" opacity="0" xlink:href="#path-1"></use>
        </g>
        <path d="M7.56854814,0.680112025 C7.64292904,0.680112025 7.71116561,0.721389702 7.74569364,0.78727091 L7.74569364,0.78727091 L9.23695525,3.63267275 C9.27148076,3.69854914 9.33971015,3.739826 9.41408561,3.73983163 L9.41408561,3.73983163 L14.8198888,3.7402408 C15.0960164,3.74029955 15.319851,3.96415105 15.3198888,4.24027865 L15.3198888,4.24027865 L15.3198888,14.819888 C15.3198888,15.0960303 15.0960312,15.319888 14.8198888,15.319888 L14.8198888,15.319888 L1.1801112,15.319888 C0.903968826,15.319888 0.6801112,15.0960303 0.6801112,14.819888 L0.6801112,14.819888 L0.6801112,1.18011203 C0.6801112,0.90396965 0.903968826,0.680112025 1.1801112,0.680112025 L1.1801112,0.680112025 Z M6.9631588,1.67982247 L1.67911192,1.67982247 L1.67911192,14.3198225 L14.3191119,14.3198225 L14.3191119,4.73982247 L8.80992966,4.74026885 C8.7355592,4.74027487 8.66732707,4.6990142 8.63278898,4.63315005 L8.63278898,4.63315005 L7.14028328,1.78694127 C7.10574789,1.72108228 7.03752343,1.67982247 6.9631588,1.67982247 L6.9631588,1.67982247 Z M8.00000137,6.36964858 C8.27614374,6.36964858 8.50000137,6.5935062 8.50000137,6.86964858 L8.4991112,10.171112 L9.28290448,9.25690685 C9.46255248,9.04715701 9.778203,9.0227071 9.98800828,9.20229035 C10.1977946,9.38185737 10.2222922,9.69749061 10.0427252,9.90727692 L8.15721069,12.1101042 C8.08538388,12.1940187 7.95913059,12.2038178 7.87521606,12.1319909 C7.86886334,12.1265533 7.86285789,12.1207226 7.85723509,12.1145332 L5.85323201,9.90858502 C5.6675498,9.70419145 5.68271836,9.38797256 5.88711192,9.20229035 C6.09151328,9.01660107 6.40773886,9.03174931 6.59345476,9.23612649 L7.4991112,10.232112 L7.50000137,6.86964858 C7.50000137,6.5935062 7.72385899,6.36964858 8.00000137,6.36964858 Z" id="形状结合" fill="#282F3C" fill-rule="nonzero"></path>
    </g>
</svg>