<?xml version="1.0" encoding="UTF-8"?>
<svg width="16px" height="16px" viewBox="0 0 16 16" version="1.1" xmlns="http://www.w3.org/2000/svg" xmlns:xlink="http://www.w3.org/1999/xlink">
    <title>ic_coverage_hover</title>
    <g id="ic_coverage_hover" stroke="none" stroke-width="1" fill="none" fill-rule="evenodd">
        <rect id="矩形" fill="#D8D8D8" opacity="0" x="0" y="0" width="16" height="16"></rect>
        <path d="M7.97123328,8.6056034 C7.5152137,8.63429338 7.10449407,8.41836357 6.68773445,8.21602376 C5.02371597,7.4036445 3.35667749,6.59428524 1.68963901,5.78492597 C1.49786919,5.69130606 1.38310929,5.54483619 1.38460457,5.33041639 C1.38612929,5.11750658 1.50239918,4.97254671 1.698699,4.8834568 C3.55901731,4.04389756 5.41631561,3.19829833 7.27663392,2.3617591 C7.75681348,2.14582929 8.24907303,2.14582929 8.73076259,2.36326909 C10.5910809,3.20282833 12.4498892,4.04540756 14.3086975,4.88647679 C14.5034873,4.97405671 14.6152272,5.11599658 14.6152272,5.33494638 C14.6152272,5.55389618 14.5019773,5.69432606 14.3102075,5.78643597 C12.5435091,6.64562519 10.7768107,7.5063244 9.00860234,8.36702362 C8.68999263,8.52255348 8.35930293,8.61919339 7.97123328,8.6056034 L7.97123328,8.6056034 Z M2.30571845,7.79322414 C2.6832181,7.97744397 3.0184378,8.14354382 3.35516749,8.30813367 C4.70812626,8.96649307 6.06108502,9.62334247 7.41404379,10.2817019 C7.80211344,10.4704517 8.18867308,10.4764917 8.57825273,10.2862319 C10.2317012,9.4814026 11.8836397,8.67808334 13.5355782,7.87476407 C13.5778582,7.85513409 13.6171181,7.82946411 13.6895981,7.78869415 C13.4177983,7.66336426 13.1716685,7.55011436 12.9255388,7.43988446 C12.7866189,7.37797452 12.700549,7.27529461 12.680919,7.12429475 C12.640149,6.80719504 12.9391288,6.58220525 13.2411285,6.70904513 C13.5280282,6.82984502 13.810398,6.9642349 14.0927677,7.09258478 C14.3177575,7.19526469 14.5412373,7.29945459 14.7677371,7.3991145 C14.9293069,7.47008444 15.0289668,7.58182434 15.0350068,7.76604417 C15.0410468,7.95630399 14.9428969,8.07710388 14.7783071,8.15713381 C13.4344083,8.80945322 12.0920195,9.46328262 10.7496307,10.117112 C10.1320413,10.4176017 9.51596187,10.7241315 8.89384244,11.0170712 C8.29890298,11.2979309 7.69490353,11.2994409 7.10298407,11.0125412 C5.15357585,10.0703021 3.20869763,9.12051293 1.2607994,8.17525379 C1.08714956,8.09069387 0.963329673,7.97593398 0.966295612,7.77359416 C0.969369668,7.57125434 1.09469955,7.45951445 1.27287939,7.38099452 C1.74550896,7.17412471 2.21209853,6.95668491 2.6832181,6.7452851 C2.93538787,6.6320352 3.16188767,6.70149514 3.26154758,6.91591494 C3.36422748,7.13788474 3.26607757,7.35532454 3.00786781,7.47310443 C2.78740801,7.57276434 2.56845821,7.67242425 2.30571845,7.79322414 L2.30571845,7.79322414 Z M2.30873845,10.3707918 C2.64093814,10.5338716 2.94293787,10.6833615 3.24493759,10.8298314 C4.60695635,11.4927208 5.9735051,12.1495702 7.33099387,12.8215196 C7.78701345,13.0465094 8.21585306,13.0480194 8.67187264,12.8230296 C10.2860612,12.0272603 11.9077997,11.243571 13.5250082,10.4568617 C13.5718182,10.4342117 13.6171181,10.4085418 13.6911081,10.3692818 C13.4434683,10.2560319 13.2199885,10.159392 13.0010387,10.0521821 C12.8258789,9.96762216 12.7428289,9.79246232 12.7790689,9.61126248 C12.8122889,9.44667263 12.9512087,9.31379276 13.1263686,9.30020277 C13.1973385,9.29416277 13.2788784,9.30926276 13.3438084,9.33946273 C13.8300279,9.55388254 14.3147375,9.77434234 14.7979371,9.99480213 C14.9534669,10.0657721 15.0350068,10.191102 15.0335174,10.3662618 C15.0319868,10.5504816 14.9323269,10.6622215 14.7737771,10.7392315 C13.9810278,11.1242811 13.1897885,11.5108408 12.3970392,11.8958904 C11.2569903,12.4500599 10.1154313,13.0012094 8.97689237,13.5599089 C8.32306296,13.8815386 7.67678355,13.8785186 7.02446415,13.5599089 C5.1022359,12.6221997 3.18000765,11.6875106 1.25626941,10.7543314 C1.08714956,10.6727915 0.967859669,10.5610516 0.964783629,10.3662618 C0.961819675,10.163922 1.08110957,10.0446321 1.2607994,9.96611216 C1.65943904,9.79095232 2.05354868,9.60673249 2.45067832,9.43006265 C2.70133809,9.31832275 2.93085788,9.38627269 3.02900779,9.5991825 C3.1316877,9.82266229 3.03353779,10.0385921 2.77532802,10.157882 C2.63036815,10.2213019 2.48691828,10.2877419 2.30873845,10.3707918 L2.30873845,10.3707918 Z" id="形状" fill="#FFFFFF" fill-rule="nonzero"></path>
    </g>
</svg>