<?xml version="1.0" standalone="no"?><!DOCTYPE svg PUBLIC "-//W3C//DTD SVG 1.1//EN" "http://www.w3.org/Graphics/SVG/1.1/DTD/svg11.dtd"><svg t="1702553694704" class="icon" viewBox="0 0 1024 1024" version="1.1" xmlns="http://www.w3.org/2000/svg" p-id="4481" xmlns:xlink="http://www.w3.org/1999/xlink" width="200" height="200"><path d="M853.333 96H448c-64 0-117.333 53.333-117.333 117.333v53.334h-160c-64 0-117.334 53.333-117.334 117.333v341.333c0 64 53.334 117.334 117.334 117.334h132.266l-12.8 68.266c-4.266 17.067 8.534 34.134 25.6 38.4 8.534 2.134 14.934 0 21.334-4.266l185.6-102.4h202.666c64 0 117.334-53.334 117.334-117.334v-160h10.666c64 0 117.334-53.333 117.334-117.333V213.333c0-64-53.334-117.333-117.334-117.333z m-74.666 629.333c0 29.867-23.467 53.334-53.334 53.334H512c-6.4 0-10.667 2.133-14.933 4.266L364.8 855.467l8.533-38.4c4.267-17.067-8.533-34.134-25.6-38.4H170.667c-29.867 0-53.334-23.467-53.334-53.334V384c0-29.867 23.467-53.333 53.334-53.333h554.666c29.867 0 53.334 23.466 53.334 53.333v341.333z m128-277.333c0 29.867-23.467 53.333-53.334 53.333h-10.666V384c0-64-53.334-117.333-117.334-117.333H394.667v-53.334C394.667 183.467 418.133 160 448 160h405.333c29.867 0 53.334 23.467 53.334 53.333V448z" p-id="4482"></path><path d="M456.533 362.667c-36.266-2.134-70.4 10.666-96 34.133-19.2 19.2-27.733 44.8-27.733 72.533 0 17.067 14.933 32 32 32s32-14.933 32-32c0-10.666 4.267-19.2 10.667-25.6 14.933-10.666 32-17.066 49.066-14.933 14.934-2.133 29.867 4.267 40.534 14.933 6.4 10.667 8.533 23.467 6.4 34.134-4.267 12.8-14.934 19.2-32 32-25.6 14.933-64 40.533-64 98.133 0 17.067 14.933 32 32 32s32-14.933 32-32c0-21.333 8.533-27.733 34.133-42.667 29.867-14.933 51.2-38.4 61.867-70.4C582.4 441.6 550.4 384 497.067 369.067c-17.067-4.267-27.734-6.4-40.534-6.4zM405.333 697.6a32 32 0 1 0 64 0 32 32 0 1 0-64 0z" p-id="4483"></path></svg>