<?xml version="1.0" encoding="UTF-8"?>
<svg width="16px" height="16px" viewBox="0 0 16 16" version="1.1" xmlns="http://www.w3.org/2000/svg" xmlns:xlink="http://www.w3.org/1999/xlink">
    <title>ic_help_click</title>
    <defs>
        <rect id="path-1" x="0" y="0" width="16" height="16"></rect>
    </defs>
    <g id="ic_help_click" stroke="none" stroke-width="1" fill="none" fill-rule="evenodd">
        <mask id="mask-2" fill="white">
            <use xlink:href="#path-1"></use>
        </mask>
        <use id="矩形" fill="#055FE7" opacity="0" xlink:href="#path-1"></use>
        <path d="M8,0 C12.418278,0 16,3.581722 16,8 C16,12.418278 12.418278,16 8,16 C3.581722,16 0,12.418278 0,8 C0,3.581722 3.581722,0 8,0 Z M8,1 C4.13400675,1 1,4.13400675 1,8 C1,11.8659932 4.13400675,15 8,15 C11.8659932,15 15,11.8659932 15,8 C15,4.13400675 11.8659932,1 8,1 Z M8.00075209,10.5380274 C8.33449348,10.5380274 8.60504433,10.8085783 8.60504433,11.1423197 C8.60504433,11.476061 8.33449348,11.7466119 8.00075209,11.7466119 C7.6670107,11.7466119 7.39645985,11.476061 7.39645985,11.1423197 C7.39645985,10.8085783 7.6670107,10.5380274 8.00075209,10.5380274 Z M8.00075209,4.2533881 C8.63525894,4.2533881 9.23350826,4.47093331 9.68672744,4.86825546 C10.1580754,5.28068491 10.4179211,5.83512305 10.4164169,6.42884017 C10.4164169,7.30204246 9.84082196,8.08762237 8.94949091,8.43055822 C8.70494139,8.52441236 8.53094772,8.74434169 8.49127038,8.99723563 L8.48267515,9.10736553 L8.48267515,9.45030138 C8.48267515,9.5034791 8.44786792,9.54892187 8.39991129,9.56497187 L8.3618167,9.57115983 L7.63666601,9.57115983 C7.5834883,9.57115983 7.53804552,9.53635259 7.52199552,9.48839596 L7.51580757,9.45030138 L7.51580757,9.1254943 C7.51580757,8.77651553 7.61853725,8.43206895 7.81644296,8.14503014 C8.0113272,7.86403425 8.28325871,7.6495105 8.6035336,7.52714132 C9.11869274,7.32923561 9.45105347,6.89867739 9.45105347,6.42884017 C9.45105347,5.76260798 8.79992858,5.22025569 8.00075209,5.22025569 C7.24858598,5.22025569 6.62756593,5.70067848 6.5571074,6.31264091 L6.55045071,6.42884017 L6.55045071,6.5436557 C6.55045071,6.59683342 6.51564348,6.64227619 6.46768685,6.65832619 L6.42959226,6.66451415 L5.70444157,6.66451415 C5.65126386,6.66451415 5.60582108,6.62970691 5.58977108,6.58175028 L5.58358313,6.5436557 L5.58358313,6.42884017 C5.58358313,5.83512305 5.84342879,5.28068491 6.31477674,4.86825546 C6.76799592,4.47244404 7.36624524,4.2533881 8.00075209,4.2533881 Z" id="形状结合" fill="#5D6573" fill-rule="nonzero" mask="url(#mask-2)"></path>
    </g>
</svg>