<?xml version="1.0" encoding="UTF-8"?>
<svg width="20px" height="20px" viewBox="0 0 20 20" version="1.1" xmlns="http://www.w3.org/2000/svg" xmlns:xlink="http://www.w3.org/1999/xlink">
    <title>ic_图片</title>
    <defs>
        <rect id="path-1" x="0" y="0" width="20" height="16" rx="2"></rect>
    </defs>
    <g id="ic_图片" stroke="none" stroke-width="1" fill="none" fill-rule="evenodd">
        <rect id="矩形" fill="#D8D8D8" opacity="0" x="0" y="0" width="20" height="20"></rect>
        <g id="路径" transform="translate(0.000000, 2.000000)">
            <mask id="mask-2" fill="white">
                <use xlink:href="#path-1"></use>
            </mask>
            <rect stroke="#485566" x="0.5" y="0.5" width="19" height="15" rx="2"></rect>
            <circle id="椭圆形" fill="#485566" mask="url(#mask-2)" cx="4.5" cy="4.5" r="1.5"></circle>
            <path d="M13.8677083,5.84096096 L13.7911458,5.92231211 L9.98359375,10.4021182 C9.51901042,10.9488188 8.68932292,10.9943336 8.16536458,10.5258452 L8.07630208,10.4379545 L6.24401042,8.44184336 L6.18151042,8.37906434 C5.76588542,7.99428127 5.12578125,7.98748021 4.70234375,8.34610535 L4.62057292,8.42274807 L8.91731133e-13,13.2188035 L8.91731133e-13,13.940239 C8.91731133e-13,14.8649216 0.74609375,15.6143461 1.66666667,15.6143461 L18.3333333,15.6143461 C19.2539062,15.6143461 20,14.8649216 20,13.940239 L20,13.0906296 L15.5794271,6.04813172 L15.5794271,6.04813172 C15.5163747,5.94789979 15.4374753,5.85866439 15.3458333,5.78393669 C14.9067708,5.42504997 14.2674479,5.45722422 13.8677083,5.84096097 L13.8677083,5.84096096 Z" fill="#485566" fill-rule="nonzero" mask="url(#mask-2)"></path>
        </g>
    </g>
</svg>