<?xml version="1.0" encoding="UTF-8"?>
<svg width="24px" height="24px" viewBox="0 0 24 24" version="1.1" xmlns="http://www.w3.org/2000/svg" xmlns:xlink="http://www.w3.org/1999/xlink">
    <title> ic_Indoor_location_point-24_浅色</title>
    <g id="-ic_Indoor_location_point-24_浅色" stroke="none" stroke-width="1" fill="none" fill-rule="evenodd">
        <g id="ic_定位" transform="translate(2.188938, 0.787357)" stroke="#232A33">
            <path d="M9.81104506,0.5 C11.6976842,0.5 13.4916373,1.03737528 14.9942689,1.9880183 C16.4904595,2.93458651 17.697878,4.29116114 18.4168927,5.93472946 C19.13329,7.57210315 19.2938227,9.33312671 18.9440466,10.9982 C18.5935328,12.6667852 17.7308652,14.2384145 16.4047163,15.494189 L16.4047163,15.494189 L10.1547968,21.4113008 L3.2173644,15.4942222 C1.89120846,14.238441 1.0285933,12.6668506 0.678087735,10.9983047 C0.328303733,9.33319373 0.488830363,7.57212405 1.20516247,5.93470773 C1.92416843,4.2911595 3.13158858,2.93458383 4.62778667,1.98801558 C6.13042321,1.03737405 7.92438595,0.5 9.81104506,0.5 Z" id="Fill-1"></path>
            <circle id="椭圆形" fill-rule="nonzero" cx="9.81106234" cy="9.81106234" r="3.704741"></circle>
        </g>
    </g>
</svg>