<?xml version="1.0" encoding="UTF-8"?>
<svg width="16px" height="16px" viewBox="0 0 16 16" version="1.1" xmlns="http://www.w3.org/2000/svg" xmlns:xlink="http://www.w3.org/1999/xlink">
    <title>ic_location</title>
    <defs>
        <rect id="path-1" x="0" y="0" width="16" height="16"></rect>
    </defs>
    <g id="ic_location" stroke="none" stroke-width="1" fill="none" fill-rule="evenodd">
        <g>
            <mask id="mask-2" fill="white">
                <use xlink:href="#path-1"></use>
            </mask>
            <use id="矩形" fill="#055FE7" opacity="0" xlink:href="#path-1"></use>
        </g>
        <circle id="椭圆形" fill="#A7B6CC" cx="8" cy="8" r="3"></circle>
        <path d="M7.7,1.05693232e-13 L8.3,1.05693232e-13 C8.41045695,1.05700697e-13 8.5,0.08954305 8.5,0.2 L8.5,2.95740114 L8.5,2.95740114 L7.5,2.95740114 L7.5,0.2 C7.5,0.08954305 7.58954305,1.05463722e-13 7.7,1.05693232e-13 Z" id="矩形" fill="#A6B5CC"></path>
        <path d="M1.17870057,6.52129943 L1.77870057,6.52129943 C1.88915752,6.52129943 1.97870057,6.61084248 1.97870057,6.72129943 L1.97870057,9.47870057 L1.97870057,9.47870057 L0.978700572,9.47870057 L0.978700572,6.72129943 C0.978700572,6.61084248 1.06824362,6.52129943 1.17870057,6.52129943 Z" id="矩形备份-2" fill="#A6B5CC" transform="translate(1.478701, 8.000000) rotate(-90.000000) translate(-1.478701, -8.000000) "></path>
        <path d="M7.7,13.0425989 L8.3,13.0425989 C8.41045695,13.0425989 8.5,13.1321419 8.5,13.2425989 L8.5,16 L8.5,16 L7.5,16 L7.5,13.2425989 C7.5,13.1321419 7.58954305,13.0425989 7.7,13.0425989 Z" id="矩形备份-3" fill="#A6B5CC" transform="translate(8.000000, 14.521299) rotate(-180.000000) translate(-8.000000, -14.521299) "></path>
        <circle id="椭圆形" stroke="#A6B5CC" cx="8" cy="8" r="5.5"></circle>
        <path d="M14.2212994,6.52129943 L14.8212994,6.52129943 C14.9317564,6.52129943 15.0212994,6.61084248 15.0212994,6.72129943 L15.0212994,9.47870057 L15.0212994,9.47870057 L14.0212994,9.47870057 L14.0212994,6.72129943 C14.0212994,6.61084248 14.1108425,6.52129943 14.2212994,6.52129943 Z" id="矩形备份" fill="#A6B5CC" transform="translate(14.521299, 8.000000) rotate(-270.000000) translate(-14.521299, -8.000000) "></path>
    </g>
</svg>