<?xml version="1.0" encoding="UTF-8"?>
<svg width="24px" height="24px" viewBox="0 0 24 24" version="1.1" xmlns="http://www.w3.org/2000/svg" xmlns:xlink="http://www.w3.org/1999/xlink">
    <title>icon/ic_play</title>
    <defs>
        <linearGradient x1="14.2011834%" y1="0%" x2="85.7988166%" y2="100%" id="linearGradient-1">
            <stop stop-color="#515C6F" offset="0%"></stop>
            <stop stop-color="#282F3C" offset="100%"></stop>
        </linearGradient>
    </defs>
    <g id="icon/ic_play" stroke="none" stroke-width="1" fill="none" fill-rule="evenodd">
        <rect id="矩形" fill="#D8D8D8" opacity="0" x="0" y="0" width="24" height="24"></rect>
        <path d="M8.5,5.5 C9.05228475,5.5 9.5,5.94771525 9.5,6.5 L9.5,17.5 C9.5,18.0522847 9.05228475,18.5 8.5,18.5 L7.5,18.5 C6.94771525,18.5 6.5,18.0522847 6.5,17.5 L6.5,6.5 C6.5,5.94771525 6.94771525,5.5 7.5,5.5 L8.5,5.5 Z M16.5,5.5 C17.0522847,5.5 17.5,5.94771525 17.5,6.5 L17.5,17.5 C17.5,18.0522847 17.0522847,18.5 16.5,18.5 L15.5,18.5 C14.9477153,18.5 14.5,18.0522847 14.5,17.5 L14.5,6.5 C14.5,5.94771525 14.9477153,5.5 15.5,5.5 L16.5,5.5 Z" id="形状结合" fill="url(#linearGradient-1)" fill-rule="nonzero"></path>
    </g>
</svg>