<?xml version="1.0" encoding="UTF-8"?>
<svg width="16px" height="16px" viewBox="0 0 16 16" version="1.1" xmlns="http://www.w3.org/2000/svg" xmlns:xlink="http://www.w3.org/1999/xlink">
    <title>ic_use</title>
    <defs>
        <rect id="path-1" x="0" y="0" width="16" height="16"></rect>
        <rect id="path-3" x="0" y="0" width="16" height="16"></rect>
    </defs>
    <g id="ic_use" stroke="none" stroke-width="1" fill="none" fill-rule="evenodd">
        <mask id="mask-2" fill="white">
            <use xlink:href="#path-1"></use>
        </mask>
        <use id="矩形" fill="#055FE7" opacity="0" xlink:href="#path-1"></use>
        <g id="ic_资源管理" mask="url(#mask-2)">
            <mask id="mask-4" fill="white">
                <use xlink:href="#path-3"></use>
            </mask>
            <use id="矩形" fill="#055FE7" opacity="0" xlink:href="#path-3"></use>
            <path d="M4.92,11 L4.91868721,10.8678591 C4.91868721,11.2555998 4.95676834,11.6344462 5.02939457,12.0008622 L1.375,12 L1.375,14 L5.83785844,14.0009675 C6.07163837,14.3640262 6.34486222,14.699284 6.65147383,15.0006848 L1.5,15 C0.94771525,15 0.5,14.5522847 0.5,14 L0.5,14 L0.5,12 C0.5,11.4477153 0.94771525,11 1.5,11 L1.5,11 L4.92,11 Z M5.48550932,13.3705901 L5.47269414,13.4009438 C5.43798087,13.4602031 5.37363797,13.5 5.3,13.5 L5.3,13.5 L3.7,13.5 C3.58954305,13.5 3.5,13.4104569 3.5,13.3 L3.5,13.3 L3.5,12.7 C3.5,12.5895431 3.58954305,12.5 3.7,12.5 L3.7,12.5 L5.15190526,12.5006765 C5.24008294,12.8015184 5.3520067,13.092212 5.48550932,13.3705901 Z M6.39798873,7.00040388 L1.375,7 L1.375,9 L5.22634078,8.99989524 C5.11689573,9.32149313 5.03492831,9.65579833 4.98323625,10.0000131 L1.5,10 C0.94771525,10 0.5,9.55228475 0.5,9 L0.5,9 L0.5,7 C0.5,6.44771525 0.94771525,6 1.5,6 L1.5,6 L7.56896835,5.99954788 C7.13529611,6.28025296 6.74151215,6.61732905 6.39798873,7.00040388 Z M5.3,7.5 C5.41045695,7.5 5.5,7.58954305 5.5,7.7 L5.5,7.7 L5.5,8.3 C5.5,8.31736744 5.49778631,8.33421785 5.49362569,8.35028446 C5.48298901,8.37028825 5.47330224,8.3906405 5.46373106,8.41105774 C5.42930769,8.46536266 5.36869883,8.5 5.3,8.5 L5.3,8.5 L3.7,8.5 C3.58954305,8.5 3.5,8.41045695 3.5,8.3 L3.5,8.3 L3.5,7.7 C3.5,7.58954305 3.58954305,7.5 3.7,7.5 L3.7,7.5 Z M13.5,1 C14.0522847,1 14.5,1.44771525 14.5,2 L14.5,2 L14.5,4 C14.5,4.55228475 14.0522847,5 13.5,5 L13.5,5 L1.5,5 C0.94771525,5 0.5,4.55228475 0.5,4 L0.5,4 L0.5,2 C0.5,1.44771525 0.94771525,1 1.5,1 L1.5,1 Z M13.4196594,1.99786377 L1.375,1.99786377 L1.375,3.99786377 L13.6196594,3.99786377 L13.6196594,2.19786377 C13.6196594,2.08740682 13.5301164,1.99786377 13.4196594,1.99786377 L13.4196594,1.99786377 Z M5.3,2.5 C5.41045695,2.5 5.5,2.58954305 5.5,2.7 L5.5,2.7 L5.5,3.3 C5.5,3.41045695 5.41045695,3.5 5.3,3.5 L5.3,3.5 L3.7,3.5 C3.58954305,3.5 3.5,3.41045695 3.5,3.3 L3.5,3.3 L3.5,2.7 C3.5,2.58954305 3.58954305,2.5 3.7,2.5 L3.7,2.5 Z" id="形状结合" fill="#FFFFFF" fill-rule="nonzero" mask="url(#mask-4)"></path>
        </g>
        <circle id="椭圆形" stroke="#FFFFFF" mask="url(#mask-2)" cx="10.6207769" cy="10.534307" r="4.06979175"></circle>
        <path d="M12.1707769,7.38016412 C12.2812339,7.38016412 12.3707769,7.46970717 12.3707769,7.58016412 L12.3707769,12.1801641 C12.3707769,12.2906211 12.2812339,12.3801641 12.1707769,12.3801641 L11.7029179,12.3801641 L11.687981,12.3794345 C11.6823105,12.3799176 11.6765725,12.3801641 11.6707769,12.3801641 L9.07077693,12.3801641 C8.96031998,12.3801641 8.87077693,12.2906211 8.87077693,12.1801641 L8.87077693,11.7123051 C8.87077693,11.6018481 8.96031998,11.5123051 9.07077693,11.5123051 L11.5027769,11.5121641 L11.5029179,7.58016412 C11.5029179,7.46970717 11.5924609,7.38016412 11.7029179,7.38016412 L12.1707769,7.38016412 Z" id="形状结合" fill="#FFFFFF" mask="url(#mask-2)" transform="translate(10.620777, 9.880164) rotate(-315.000000) translate(-10.620777, -9.880164) "></path>
    </g>
</svg>