<?xml version="1.0" encoding="UTF-8"?>
<svg width="16px" height="16px" viewBox="0 0 16 16" version="1.1" xmlns="http://www.w3.org/2000/svg" xmlns:xlink="http://www.w3.org/1999/xlink">
    <title>ic_visual</title>
    <defs>
        <rect id="path-1" x="0" y="0" width="16" height="16"></rect>
    </defs>
    <g id="ic_visual" stroke="none" stroke-width="1" fill="none" fill-rule="evenodd">
        <rect id="矩形" fill="#D8D8D8" opacity="0" x="0" y="0" width="16" height="16"></rect>
        <g id="ic_可视">
            <mask id="mask-2" fill="white">
                <use xlink:href="#path-1"></use>
            </mask>
            <use id="矩形" fill="#055FE7" opacity="0" xlink:href="#path-1"></use>
            <path d="M1.12575647,8.00015998 C2.49795696,10.3912772 5.06261184,12 7.99999982,12 C10.9373878,12 13.5020427,10.3912772 14.8742432,8.00015998 L15.9999548,8.0000917 C14.5390099,10.963479 11.5054308,13 7.99999982,13 C4.49456884,13 1.4609897,10.963479 4.4843942e-05,8.0000917 L1.12575647,8.00015998 Z M8,5.5 C9.38071187,5.5 10.5,6.61928813 10.5,8 C10.5,9.38071187 9.38071187,10.5 8,10.5 C6.61928813,10.5 5.5,9.38071187 5.5,8 C5.5,6.61928813 6.61928813,5.5 8,5.5 Z M8,6.5 C7.17157288,6.5 6.5,7.17157288 6.5,8 C6.5,8.82842712 7.17157288,9.5 8,9.5 C8.82842712,9.5 9.5,8.82842712 9.5,8 C9.5,7.17157288 8.82842712,6.5 8,6.5 Z M8.00000018,3 C11.5054312,3 14.5390103,5.03652103 15.9999552,7.9999083 L14.8742435,7.99984002 C13.502043,5.60872276 10.9373882,4 8.00000018,4 C5.0626122,4 2.49795732,5.60872276 1.12575683,7.99984002 L4.52052981e-05,7.9999083 C1.46099006,5.03652103 4.4945692,3 8.00000018,3 Z" id="合并形状" fill="#A6B5CC" fill-rule="nonzero" mask="url(#mask-2)"></path>
        </g>
    </g>
</svg>