<?xml version="1.0" encoding="UTF-8"?>
<svg width="16px" height="16px" viewBox="0 0 16 16" version="1.1" xmlns="http://www.w3.org/2000/svg" xmlns:xlink="http://www.w3.org/1999/xlink">
    <title>icon_loding_blue</title>
    <defs>
        <rect id="path-1" x="0" y="0" width="16" height="16"></rect>
    </defs>
    <g id="icon_loding_blue" stroke="none" stroke-width="1" fill="none" fill-rule="evenodd">
        <rect id="矩形" stroke="#979797" fill="#D8D8D8" opacity="0" x="0.5" y="0.5" width="15" height="15"></rect>
        <g id="步骤条/圆形/刷新样式2">
            <mask id="mask-2" fill="white">
                <use xlink:href="#path-1"></use>
            </mask>
            <use id="矩形" fill="#D8D8D8" opacity="0" xlink:href="#path-1"></use>
            <path d="M8,0 C12.418278,0 16,3.581722 16,8 C16,12.418278 12.418278,16 8,16 C3.581722,16 -6.06329801e-14,12.418278 -6.06329801e-14,8 C-6.06329801e-14,3.581722 3.581722,0 8,0 Z M8,1 C4.13400675,1 1,4.13400675 1,8 C1,11.8659932 4.13400675,15 8,15 C11.8659932,15 15,11.8659932 15,8 C15,4.13400675 11.8659932,1 8,1 Z" id="形状结合" fill="#2D3140" mask="url(#mask-2)"></path>
            <path d="M8,0 C12.418278,0 16,3.581722 16,8 C16,12.418278 12.418278,16 8,16 L8,15 C11.8659932,15 15,11.8659932 15,8 C15,4.13400675 11.8659932,1 8,1 L8,0 L8,0 Z" id="形状结合" fill="#3288FA" mask="url(#mask-2)"></path>
        </g>
        <circle id="椭圆形" fill="#3288FA" cx="8" cy="15.5" r="1"></circle>
        <circle id="椭圆形备份" fill="#3288FA" cx="8" cy="0.5" r="1"></circle>
    </g>
</svg>