<?xml version="1.0" standalone="no"?><!DOCTYPE svg PUBLIC "-//W3C//DTD SVG 1.1//EN" "http://www.w3.org/Graphics/SVG/1.1/DTD/svg11.dtd"><svg t="1689752286483" class="icon" viewBox="0 0 1024 1024" version="1.1" xmlns="http://www.w3.org/2000/svg" p-id="2295" xmlns:xlink="http://www.w3.org/1999/xlink" width="200" height="200"><path d="M896 629.333333c-17.066667 0-32 14.933333-32 32v170.666667c0 6.4-4.266667 10.666667-10.666667 10.666667H170.666667c-6.4 0-10.666667-4.266667-10.666667-10.666667v-170.666667c0-17.066667-14.933333-32-32-32s-32 14.933333-32 32v170.666667c0 40.533333 34.133333 74.666667 74.666667 74.666667h682.666666c40.533333 0 74.666667-34.133333 74.666667-74.666667v-170.666667c0-17.066667-14.933333-32-32-32z" fill="#666666" p-id="2296"></path><path d="M322.133333 407.466667l157.866667-157.866667V704c0 17.066667 14.933333 32 32 32s32-14.933333 32-32V247.466667l157.866667 157.866666c6.4 6.4 14.933333 8.533333 23.466666 8.533334s17.066667-2.133333 23.466667-8.533334c12.8-12.8 12.8-32 0-44.8l-213.333333-213.333333c-12.8-12.8-32-12.8-44.8 0l-213.333334 213.333333c-12.8 12.8-12.8 32 0 44.8 10.666667 12.8 32 12.8 44.8 2.133334z" fill="#666666" p-id="2297"></path></svg>