<?xml version="1.0" standalone="no"?><!DOCTYPE svg PUBLIC "-//W3C//DTD SVG 1.1//EN" "http://www.w3.org/Graphics/SVG/1.1/DTD/svg11.dtd"><svg t="1704769901502" class="icon" viewBox="0 0 1024 1024" version="1.1" xmlns="http://www.w3.org/2000/svg" p-id="1272" xmlns:xlink="http://www.w3.org/1999/xlink" width="64" height="64"><path d="M513.123 795.991c-76.156 0-147.753-29.658-201.603-83.508-53.849-53.849-83.504-125.444-83.504-201.596 0-76.153 29.657-147.749 83.504-201.598 53.85-53.851 125.446-83.508 201.603-83.508 76.147 0 147.742 29.658 201.593 83.508 53.853 53.852 83.511 125.447 83.511 201.598s-29.659 147.747-83.511 201.597c-53.852 53.85-125.445 83.507-201.593 83.507zM513.123 272.352c-131.529 0-238.534 107.007-238.534 238.535s107.006 238.533 238.534 238.533 238.533-107.005 238.533-238.533c0-131.529-107.006-238.535-238.533-238.535z" fill="currentColor" p-id="1273"></path><path d="M513.123 149.007c-12.861 0-23.285-10.426-23.285-23.285v-91.359c0-12.861 10.426-23.285 23.285-23.285s23.285 10.426 23.285 23.285v91.358c0 12.862-10.426 23.286-23.285 23.286z" fill="currentColor" p-id="1274"></path><path d="M513.123 1010.674c-12.861 0-23.285-10.426-23.285-23.285v-91.346c0-12.861 10.426-23.285 23.285-23.285s23.285 10.426 23.285 23.285v91.346c0 12.861-10.426 23.285-23.285 23.285z" fill="currentColor" p-id="1275"></path><path d="M240.764 261.825c-5.959 0-11.919-2.274-16.466-6.821l-64.592-64.591c-9.094-9.093-9.094-23.838 0-32.931 9.093-9.094 23.838-9.094 32.931 0l64.593 64.592c9.094 9.093 9.094 23.838 0 32.931-4.546 4.545-10.507 6.82-16.467 6.82z" fill="currentColor" p-id="1276"></path><path d="M850.050 871.111c-5.958 0-11.919-2.272-16.467-6.82l-64.593-64.593c-9.093-9.094-9.093-23.839 0-32.932 9.094-9.094 23.839-9.094 32.932 0l64.593 64.593c9.093 9.094 9.093 23.839 0 32.932-4.546 4.545-10.507 6.82-16.466 6.82z" fill="currentColor" p-id="1277"></path><path d="M36.59 534.183c-12.861 0.001-23.286-10.423-23.289-23.283-0.001-12.861 10.423-23.286 23.283-23.289l91.348-0.011c12.861-0.001 23.286 10.423 23.289 23.283 0.001 12.861-10.423 23.286-23.283 23.289l-91.348 0.011z" fill="currentColor" p-id="1278"></path><path d="M989.613 534.173h-91.346c-12.861 0-23.285-10.426-23.285-23.285s10.426-23.285 23.285-23.285h91.346c12.861 0 23.285 10.426 23.285 23.285s-10.426 23.285-23.285 23.285z" fill="currentColor" p-id="1279"></path><path d="M176.173 871.122c-5.959 0-11.919-2.272-16.466-6.82-9.094-9.094-9.094-23.839 0-32.932l64.593-64.593c9.094-9.094 23.838-9.094 32.931 0s9.094 23.839 0 32.932l-64.593 64.593c-4.546 4.546-10.506 6.82-16.466 6.82z" fill="currentColor" p-id="1280"></path><path d="M785.457 261.825c-5.959 0-11.918-2.272-16.467-6.821-9.094-9.094-9.093-23.838 0.001-32.931l64.593-64.592c9.094-9.093 23.838-9.094 32.931 0s9.093 23.838-0.001 32.931l-64.593 64.592c-4.545 4.546-10.506 6.821-16.465 6.821z" fill="currentColor" p-id="1281"></path></svg>