<svg width="16px" height="16px" viewBox="0 0 16 16" version="1.1" xmlns="http://www.w3.org/2000/svg" xmlns:xlink="http://www.w3.org/1999/xlink"><title>ic_arrows_down_white</title><defs><rect id="icon-ic_arrows_down_white-a" x="0" y="0" width="16" height="16"/></defs><g stroke-width="1" fill="none" fill-rule="evenodd"><mask id="icon-ic_arrows_down_white-b" fill="white"><use xlink:href="#icon-ic_arrows_down_white-a"/></mask><use fill="currentColor" opacity="0" xlink:href="#icon-ic_arrows_down_white-a"/><path d="M7.91614216,9.24264075 L11.7946521,5.36413079 C11.9899143,5.16886864 12.3064968,5.16886864 12.5017589,5.36413079 L13.2088657,6.07123757 C13.4041278,6.26649971 13.4041278,6.5830822 13.2088657,6.77834435 L8.26903257,11.7181775 C8.07402953,11.9131805 7.75795872,11.9134771 7.56259001,11.7188404 L2.60421637,6.77904517 C2.4082546,6.58448459 2.40766039,6.26790266 2.6025557,6.07227436 C2.6026669,6.07216273 2.60277817,6.07205116 2.60322389,6.07227342 L3.32027758,5.35388258 C3.51502825,5.15810974 3.8316106,5.15781484 4.02705455,5.35289501 C4.02716444,5.35300469 4.02727427,5.35311442 4.02705486,5.35355339 L7.91614216,9.24264075 L7.91614216,9.24264075 Z" fill="currentColor" mask="url(#icon-ic_arrows_down_white-b)"/></g></svg>