<svg width="16px" height="16px" viewBox="0 0 16 16" version="1.1" xmlns="http://www.w3.org/2000/svg" xmlns:xlink="http://www.w3.org/1999/xlink"><title>ic_cloud_profile</title><defs><rect id="icon-ic_cloud_profile-a" x="0" y="0" width="16" height="16"/><rect id="icon-ic_cloud_profile-c" x="0" y="0" width="16" height="16"/></defs><g stroke-width="1" fill="none" fill-rule="evenodd"><mask id="icon-ic_cloud_profile-b" fill="white"><use xlink:href="#icon-ic_cloud_profile-a"/></mask><use fill="currentColor" opacity="0" xlink:href="#icon-ic_cloud_profile-a"/><g mask="url(#icon-ic_cloud_profile-b)"><mask id="icon-ic_cloud_profile-d" fill="white"><use xlink:href="#icon-ic_cloud_profile-c"/></mask><use fill="currentColor" opacity="0" xlink:href="#icon-ic_cloud_profile-c"/><path d="M4.3825792,11.99985 L1.875,12 L1.875,14 L4.59519623,14.0012574 C4.68683432,14.346419 4.80583439,14.6804364 4.94973321,15.0008464 L2,15 C1.44771525,15 1,14.5522847 1,14 L1,14 L1,12 C1,11.4477153 1.44771525,11 2,11 L2,11 L4.50569722,10.9999979 C4.4400225,11.3252291 4.39834095,11.6591553 4.3825792,11.99985 Z M4.378,12.5 L4.37544395,12.3089623 C4.37544395,12.7158764 4.41239518,13.1141601 4.48312521,13.5006409 L4.2,13.5 C4.08954305,13.5 4,13.4104569 4,13.3 L4,13.3 L4,12.7 C4,12.5895431 4.08954305,12.5 4.2,12.5 L4.2,12.5 L4.378,12.5 Z M7.06929768,6.99991493 L1.875,7 L1.875,9 L5.26722284,8.999887 C5.0820787,9.31731249 4.92275598,9.6516455 4.79213402,10.0000067 L2,10 C1.44771525,10 1,9.55228475 1,9 L1,9 L1,7 C1,6.44771525 1.44771525,6 2,6 L2,6 L9.08833867,5.99959087 C8.35360443,6.2163713 7.67240402,6.5579994 7.06929768,6.99991493 Z M5.8,7.5 C5.91045695,7.5 6,7.58954305 6,7.7 L6,7.7 L6.0001822,7.98063269 C5.85493484,8.14669381 5.71790454,8.32012488 5.58972569,8.50029152 L4.2,8.5 C4.08954305,8.5 4,8.41045695 4,8.3 L4,8.3 L4,7.7 C4,7.58954305 4.08954305,7.5 4.2,7.5 L4.2,7.5 Z M14,1 C14.5522847,1 15,1.44771525 15,2 L15,2 L15,4 C15,4.55228475 14.5522847,5 14,5 L14,5 L2,5 C1.44771525,5 1,4.55228475 1,4 L1,4 L1,2 C1,1.44771525 1.44771525,1 2,1 L2,1 Z M13.9196594,1.99786377 L1.875,1.99786377 L1.875,3.99786377 L14.1196594,3.99786377 L14.1196594,2.19786377 C14.1196594,2.08740682 14.0301164,1.99786377 13.9196594,1.99786377 L13.9196594,1.99786377 Z M5.8,2.5 C5.91045695,2.5 6,2.58954305 6,2.7 L6,2.7 L6,3.3 C6,3.41045695 5.91045695,3.5 5.8,3.5 L5.8,3.5 L4.2,3.5 C4.08954305,3.5 4,3.41045695 4,3.3 L4,3.3 L4,2.7 C4,2.58954305 4.08954305,2.5 4.2,2.5 L4.2,2.5 Z" fill="currentColor" fill-rule="nonzero" mask="url(#icon-ic_cloud_profile-d)"/></g><path d="M10.6900129,8.18842491 C11.3597257,8.18842491 11.9807832,8.39689271 12.4916137,8.75273696 C13.0172638,9.11890449 13.4264736,9.64074934 13.6519877,10.251638 C14.4342033,10.6744124 14.8132031,10.9300526 15.0814319,11.2757954 C15.3439041,11.6141182 15.5,12.0390592 15.5,12.5004232 C15.5,13.0528248 15.276095,13.5529306 14.9140896,13.914936 C14.5520842,14.2769414 14.0519784,14.5008464 13.4995768,14.5008464 L13.4995768,14.5008464 L7.88044893,14.5008464 C7.32804732,14.5008464 6.82794151,14.2769414 6.46593612,13.914936 C6.10393072,13.5529306 5.88002572,13.0528248 5.88002572,12.5004232 C5.88002572,12.039066 6.0361189,11.6141335 6.29857402,11.2757448 C6.56686617,10.9298303 6.94597676,10.6739919 7.38288298,10.562246 C7.95354299,9.64042729 8.36279046,9.11871107 8.88847661,8.75261581 C9.39929745,8.39687296 10.0203295,8.18842491 10.6900129,8.18842491 Z" stroke="currentColor" mask="url(#icon-ic_cloud_profile-b)"/></g></svg>