<svg width="16px" height="16px" viewBox="0 0 16 16" version="1.1" xmlns="http://www.w3.org/2000/svg" xmlns:xlink="http://www.w3.org/1999/xlink"><title>ic_dextroversion_highlight</title><g stroke-width="1" fill="none" fill-rule="evenodd"><rect fill="currentColor" opacity="0" transform="translate(8.000000, 8.000000) scale(-1, 1) translate(-8.000000, -8.000000) " x="0" y="0" width="16" height="16"/><path d="M13.3745783,5.21302291 L13.367716,5.21302291 L13.367716,5.21165044 L12.6252117,5.21165044 L12.6252117,5.21027798 L8.03568413,5.21027798 C7.89020269,5.17871125 7.77766045,5.06067914 7.75570098,4.91245277 L7.75570098,3.0623681 C7.75570098,3.05276083 7.75570098,3.04452604 7.75432852,3.03491877 C7.75432852,3.03080137 7.75432852,3.02668397 7.75295605,3.02119411 C7.75295605,3.01707671 7.75295605,3.01158684 7.75158359,3.00746944 C7.75158359,3.00197958 7.75021112,2.99648971 7.75021112,2.99099985 C7.75021112,2.98688245 7.74883865,2.98413751 7.74883865,2.98002012 C7.74746619,2.97453025 7.74746619,2.96766792 7.74609372,2.96217805 C7.74609372,2.95943312 7.74472125,2.95668819 7.74472125,2.95257079 C7.74334879,2.94708092 7.74197632,2.94021859 7.74060385,2.93472872 C7.74060385,2.93198379 7.73923139,2.92923886 7.73923139,2.92649393 L7.73511399,2.91002433 C7.73374152,2.9072794 7.73374152,2.903162 7.73236906,2.90041707 C7.73099659,2.8949272 7.72962412,2.88943733 7.72687919,2.88531994 C7.72550672,2.88120254 7.72413426,2.8784576 7.72276179,2.8743402 C7.72138933,2.87022281 7.71864439,2.86473294 7.71727193,2.86061554 L7.71315453,2.84826334 C7.71178206,2.84414594 7.70903713,2.84002854 7.70766466,2.83591115 C7.7062922,2.83179375 7.70354726,2.82630388 7.7021748,2.82218648 C7.70080233,2.81944155 7.69942986,2.81532415 7.69668493,2.81257922 C7.69394,2.80708935 7.69119507,2.80297195 7.6898226,2.79748209 C7.68845013,2.79473715 7.68707767,2.79199222 7.68433273,2.78924729 C7.6815878,2.78375742 7.67884287,2.77964002 7.67609794,2.77415016 C7.67472547,2.77140523 7.673353,2.76866029 7.67060807,2.76591536 C7.66786314,2.7604255 7.66374574,2.7563081 7.6610008,2.75081823 C7.65962834,2.7480733 7.65688341,2.74532836 7.65551094,2.74258343 C7.65276601,2.73709357 7.64864861,2.73297617 7.64453121,2.7274863 C7.64178628,2.72474137 7.64041381,2.72199644 7.63766888,2.7192515 C7.63492394,2.7151341 7.63080654,2.71101671 7.62806161,2.70689931 C7.62531668,2.70278191 7.62119928,2.70003697 7.61845435,2.69591958 C7.61570941,2.69317464 7.61296448,2.68905724 7.61021955,2.68631231 C7.60335722,2.67944998 7.59786735,2.67258765 7.59100502,2.66572532 C7.58414269,2.65886298 7.57728036,2.65337312 7.57041802,2.64651079 C7.56767309,2.64376585 7.56355569,2.64102092 7.56081076,2.63827599 C7.55669336,2.63553105 7.55394843,2.63141366 7.54983103,2.62866872 C7.54571363,2.62455132 7.54159623,2.62180639 7.53747883,2.61906146 C7.5347339,2.61631653 7.53198897,2.61494406 7.52924403,2.61219913 C7.52375417,2.60808173 7.51963677,2.60533679 7.5141469,2.6012194 C7.51140197,2.59984693 7.50865704,2.597102 7.5059121,2.59572953 C7.50042224,2.5929846 7.49630484,2.5888672 7.49081497,2.58612227 C7.48807004,2.5847498 7.48532511,2.58337733 7.48258018,2.5806324 C7.47709031,2.57788747 7.47297291,2.57514253 7.46748305,2.5723976 C7.46473811,2.57102514 7.46199318,2.56965267 7.45924825,2.56690774 C7.45375838,2.5641628 7.44964098,2.56141787 7.44415112,2.5600454 C7.44140618,2.55867294 7.43728879,2.55730047 7.43454385,2.55455554 C7.43042645,2.55181061 7.42493659,2.55043814 7.42081919,2.54906567 C7.41670179,2.54769321 7.41258439,2.54494827 7.40846699,2.54357581 L7.39611479,2.53945841 C7.3919974,2.53808594 7.38650753,2.53534101 7.38239013,2.53396854 C7.37827273,2.53259608 7.3755278,2.53122361 7.3714104,2.52985114 C7.36592053,2.52847868 7.36043067,2.52573374 7.35631327,2.52436128 C7.35356834,2.52298881 7.34945094,2.52298881 7.346706,2.52161635 L7.33023641,2.51749895 C7.32749148,2.51612648 7.32474654,2.51612648 7.32062914,2.51475401 C7.31513928,2.51338155 7.30827695,2.51200908 7.30278708,2.51063661 C7.30004215,2.51063661 7.29729722,2.50926415 7.29317982,2.50926415 C7.28768995,2.50789168 7.28082762,2.50651922 7.27533775,2.50651922 C7.27122035,2.50651922 7.26847542,2.50514675 7.26435802,2.50514675 C7.25886816,2.50377428 7.25337829,2.50377428 7.24788843,2.50377428 C7.24377103,2.50377428 7.23828116,2.50240182 7.23416376,2.50240182 C7.23004636,2.50240182 7.22592896,2.50102935 7.22181156,2.50102935 C7.2039695,2.49965688 7.18475497,2.49965688 7.16554044,2.50102935 C7.16142304,2.50102935 7.15730564,2.50102935 7.15318825,2.50240182 C7.14907085,2.50240182 7.14358098,2.50240182 7.13946358,2.50377428 C7.13397372,2.50377428 7.12848385,2.50514675 7.12299399,2.50514675 C7.11887659,2.50514675 7.11613165,2.50651922 7.11201425,2.50651922 C7.10652439,2.50789168 7.09966206,2.50789168 7.09417219,2.50926415 C7.09142726,2.50926415 7.08868233,2.51063661 7.08456493,2.51063661 C7.07907506,2.51200908 7.07221273,2.51338155 7.06672286,2.51475401 C7.06397793,2.51612648 7.061233,2.51612648 7.0571156,2.51749895 L7.040646,2.52161635 C7.03790107,2.52298881 7.03378367,2.52298881 7.03103874,2.52436128 C7.02554887,2.52573374 7.02005901,2.52710621 7.01594161,2.52985114 C7.01182421,2.53122361 7.00907928,2.53259608 7.00496188,2.53396854 C7.00084448,2.53534101 6.99535461,2.53808594 6.99123721,2.53945841 C6.98711981,2.54083087 6.98300241,2.54220334 6.97888502,2.54494827 C6.97476762,2.54632074 6.97065022,2.54906567 6.96653282,2.55043814 C6.96241542,2.55181061 6.95692555,2.55455554 6.95280815,2.555928 C6.95006322,2.55730047 6.94594582,2.55867294 6.94320089,2.56141787 C6.93771102,2.5641628 6.93359363,2.56690774 6.92810376,2.56965267 C6.92535883,2.57102514 6.92261389,2.5723976 6.91986896,2.57514253 C6.9143791,2.57788747 6.90888923,2.5806324 6.90477183,2.58337733 C6.9020269,2.5847498 6.89928197,2.58612227 6.89653703,2.5888672 C6.89104717,2.59161213 6.8855573,2.59572953 6.8814399,2.59847446 C6.87869497,2.59984693 6.87595004,2.60259186 6.8732051,2.60396433 C6.86771524,2.60670926 6.86359784,2.61082666 6.85810797,2.61494406 C6.85536304,2.61768899 6.85261811,2.61906146 6.84987318,2.62180639 C6.84575578,2.62455132 6.84163838,2.62866872 6.83614851,2.63141366 C6.83203111,2.63415859 6.82928618,2.63690352 6.82516878,2.64102092 C6.82242385,2.64376585 6.81830645,2.64651079 6.81556152,2.64925572 C6.80869918,2.65474558 6.80183685,2.66160792 6.79634699,2.66847025 L1.87193763,7.59013468 L1.85958543,7.60248687 C1.74978812,7.71228418 1.69488946,7.85639315 1.69488946,8.00050212 C1.69488946,8.14461109 1.74978812,8.28872006 1.85958543,8.39851737 L1.87193763,8.41086957 L6.79634699,13.3352789 C6.90751676,13.4464487 7.05437067,13.5013474 7.1998521,13.5 L7.20534197,13.5 C7.51551937,13.5 7.76805318,13.2488135 7.76805318,12.9372637 L7.76805318,10.739945 L13.5694686,10.739945 C13.9510142,10.6617144 14.2488394,10.3487921 14.3051105,9.96038411 L14.3051105,6.05159987 C14.2557017,5.5808439 13.8576865,5.21302291 13.3745783,5.21302291 L13.3745783,5.21302291 Z" fill="currentColor" transform="translate(8.000000, 8.000000) scale(-1, 1) translate(-8.000000, -8.000000) "/></g></svg>