<svg width="16px" height="16px" viewBox="0 0 16 16" version="1.1" xmlns="http://www.w3.org/2000/svg" xmlns:xlink="http://www.w3.org/1999/xlink"><title>ic_downloading_cancel</title><defs><rect id="icon-ic_downloading_cancel-a" x="0" y="0" width="16" height="16"/><circle id="icon-ic_downloading_cancel-b" cx="8" cy="8" r="8"/></defs><g stroke-width="1" fill="none" fill-rule="evenodd"><mask fill="white"><use xlink:href="#icon-ic_downloading_cancel-a"/></mask><use fill="currentColor" opacity="0" xlink:href="#icon-ic_downloading_cancel-a"/><mask id="icon-ic_downloading_cancel-c" fill="white"><use xlink:href="#icon-ic_downloading_cancel-b"/></mask><circle stroke="currentColor" cx="8" cy="8" r="7.5"/><path d="M5.66654762,4.95944084 L8.00001948,7.29301948 L10.3334524,4.95944084 C10.3959363,4.89695695 10.4894782,4.88446018 10.5643852,4.92195051 L10.6162951,4.95944084 L11.0405592,5.38370491 C11.118664,5.46180977 11.118664,5.58844276 11.0405592,5.66654762 L11.0405592,5.66654762 L8.70701948,8.00001948 L11.0405592,10.3334524 C11.118664,10.4115572 11.118664,10.5381902 11.0405592,10.6162951 L10.4748737,11.1819805 L8.00001948,8.70701948 L5.66654762,11.0405592 C5.60406374,11.103043 5.51052184,11.1155398 5.43561475,11.0780495 L5.38370491,11.0405592 L4.95944084,10.6162951 C4.88133598,10.5381902 4.88133598,10.4115572 4.95944084,10.3334524 L4.95944084,10.3334524 L7.29301948,8.00001948 L4.95944084,5.66654762 C4.88133598,5.58844276 4.88133598,5.46180977 4.95944084,5.38370491 L5.38370491,4.95944084 C5.46180977,4.88133598 5.58844276,4.88133598 5.66654762,4.95944084 Z" fill="currentColor" fill-rule="nonzero" mask="url(#icon-ic_downloading_cancel-c)"/></g></svg>