<svg width="16px" height="16px" viewBox="0 0 16 16" version="1.1" xmlns="http://www.w3.org/2000/svg" xmlns:xlink="http://www.w3.org/1999/xlink"><title>icon/ic_error_message</title><defs><circle id="icon-ic_error_message-a" cx="6" cy="6" r="6"/></defs><g stroke-width="1" fill="none" fill-rule="evenodd"><g transform="translate(2.000000, 2.000000)"><mask id="icon-ic_error_message-b" fill="white"><use xlink:href="#icon-ic_error_message-a"/></mask><circle stroke="currentColor" cx="6" cy="6" r="5.5"/><path d="M4.28526606,3.75493597 L5.99951461,5.46951461 L7.71473394,3.75493597 C7.77721783,3.69245208 7.87075973,3.67995531 7.94566682,3.71744564 L7.99757666,3.75493597 L8.24506403,4.00242334 C8.32316889,4.0805282 8.32316889,4.2071612 8.24506403,4.28526606 L8.24506403,4.28526606 L6.52951461,5.99951461 L8.24506403,7.71473394 C8.32316889,7.7928388 8.32316889,7.9194718 8.24506403,7.99757666 L7.8561553,8.38648539 L5.99951461,6.52951461 L4.28526606,8.24506403 C4.22278217,8.30754792 4.12924027,8.32004469 4.05433318,8.28255436 L4.00242334,8.24506403 L3.75493597,7.99757666 C3.67683111,7.9194718 3.67683111,7.7928388 3.75493597,7.71473394 L3.75493597,7.71473394 L5.46951461,5.99951461 L3.75493597,4.28526606 C3.67683111,4.2071612 3.67683111,4.0805282 3.75493597,4.00242334 L4.00242334,3.75493597 C4.0805282,3.67683111 4.2071612,3.67683111 4.28526606,3.75493597 Z" fill="currentColor" fill-rule="nonzero" mask="url(#icon-ic_error_message-b)"/></g></g></svg>