<svg width="16px" height="16px" viewBox="0 0 16 16" version="1.1" xmlns="http://www.w3.org/2000/svg" xmlns:xlink="http://www.w3.org/1999/xlink"><title>ic_location</title><defs><rect id="icon-ic_location-a" x="0" y="0" width="16" height="16"/></defs><g stroke-width="1" fill="none" fill-rule="evenodd"><g><mask fill="white"><use xlink:href="#icon-ic_location-a"/></mask><use fill="currentColor" opacity="0" xlink:href="#icon-ic_location-a"/></g><circle fill="currentColor" cx="8" cy="8" r="3"/><path d="M7.7,1.05693232e-13 L8.3,1.05693232e-13 C8.41045695,1.05700697e-13 8.5,0.08954305 8.5,0.2 L8.5,2.95740114 L8.5,2.95740114 L7.5,2.95740114 L7.5,0.2 C7.5,0.08954305 7.58954305,1.05463722e-13 7.7,1.05693232e-13 Z" fill="currentColor"/><path d="M1.17870057,6.52129943 L1.77870057,6.52129943 C1.88915752,6.52129943 1.97870057,6.61084248 1.97870057,6.72129943 L1.97870057,9.47870057 L1.97870057,9.47870057 L0.978700572,9.47870057 L0.978700572,6.72129943 C0.978700572,6.61084248 1.06824362,6.52129943 1.17870057,6.52129943 Z" fill="currentColor" transform="translate(1.478701, 8.000000) rotate(-90.000000) translate(-1.478701, -8.000000) "/><path d="M7.7,13.0425989 L8.3,13.0425989 C8.41045695,13.0425989 8.5,13.1321419 8.5,13.2425989 L8.5,16 L8.5,16 L7.5,16 L7.5,13.2425989 C7.5,13.1321419 7.58954305,13.0425989 7.7,13.0425989 Z" fill="currentColor" transform="translate(8.000000, 14.521299) rotate(-180.000000) translate(-8.000000, -14.521299) "/><circle stroke="currentColor" cx="8" cy="8" r="5.5"/><path d="M14.2212994,6.52129943 L14.8212994,6.52129943 C14.9317564,6.52129943 15.0212994,6.61084248 15.0212994,6.72129943 L15.0212994,9.47870057 L15.0212994,9.47870057 L14.0212994,9.47870057 L14.0212994,6.72129943 C14.0212994,6.61084248 14.1108425,6.52129943 14.2212994,6.52129943 Z" fill="currentColor" transform="translate(14.521299, 8.000000) rotate(-270.000000) translate(-14.521299, -8.000000) "/></g></svg>