<svg width="16px" height="16px" viewBox="0 0 16 16" version="1.1" xmlns="http://www.w3.org/2000/svg" xmlns:xlink="http://www.w3.org/1999/xlink"><title>icon/ic_regular_message</title><g stroke-width="1" fill="none" fill-rule="evenodd"><path d="M8,2 C11.3137085,2 14,4.6862915 14,8 C14,11.3137085 11.3137085,14 8,14 C4.6862915,14 2,11.3137085 2,8 C2,4.6862915 4.6862915,2 8,2 Z M8,3 C5.23857625,3 3,5.23857625 3,8 C3,10.7614237 5.23857625,13 8,13 C10.7614237,13 13,10.7614237 13,8 C13,5.23857625 10.7614237,3 8,3 Z M8,9.6875 C8.31066017,9.6875 8.5625,9.93933983 8.5625,10.25 C8.5625,10.5606602 8.31066017,10.8125 8,10.8125 C7.68933983,10.8125 7.4375,10.5606602 7.4375,10.25 C7.4375,9.93933983 7.68933983,9.6875 8,9.6875 Z M8.3625,5.1875 C8.47295695,5.1875 8.5625,5.27704305 8.5625,5.3875 L8.5625,8.7375 C8.5625,8.84795695 8.47295695,8.9375 8.3625,8.9375 L7.6375,8.9375 C7.52704305,8.9375 7.4375,8.84795695 7.4375,8.7375 L7.4375,5.3875 C7.4375,5.27704305 7.52704305,5.1875 7.6375,5.1875 L8.3625,5.1875 Z" fill="currentColor"/></g></svg>