<svg width="16px" height="16px" viewBox="0 0 16 16" version="1.1" xmlns="http://www.w3.org/2000/svg" xmlns:xlink="http://www.w3.org/1999/xlink"><title>icon/ic_succeed_blue</title><defs><circle id="icon-ic_succeed-a" cx="8" cy="8" r="8"/></defs><g stroke-width="1" fill="none" fill-rule="evenodd"><mask id="icon-ic_succeed-b" fill="white"><use xlink:href="#icon-ic_succeed-a"/></mask><use fill="currentColor" fill-rule="nonzero" xlink:href="#icon-ic_succeed-a"/><path d="M10.979899,5.31018356 C11.0580038,5.2320787 11.1846368,5.2320787 11.2627417,5.31018356 L11.2627417,5.31018356 L11.6870058,5.73444763 C11.7651106,5.81255249 11.7651106,5.93918549 11.6870058,6.01729034 L11.6870058,6.01729034 L7.02010101,10.6841951 L7.02010101,10.6841951 C6.94324735,10.7627999 6.81665277,10.7659188 6.73664789,10.6897614 C6.73546878,10.688639 6.73430343,10.6875022 6.73315208,10.6863514 L4.31302451,8.26726006 C4.25050303,8.20481378 4.23798138,8.11127941 4.2754547,8.03636526 L4.31299423,7.98444763 L4.31299423,7.98444763 L4.7372583,7.56018356 C4.81527251,7.48198806 4.94190551,7.48198806 5.02001037,7.56009292 L6.87357288,9.41576221 Z" fill-noparse="#FFFFFF" fill-rule="nonzero" mask="url(#icon-ic_succeed-b)" fill="#ffffff"/></g></svg>