<svg xmlns="http://www.w3.org/2000/svg" xmlns:xlink="http://www.w3.org/1999/xlink" width="16px" height="16px" viewBox="0 0 16 16" version="1.1"><title>ic_tost_fail</title><defs><circle id="icon-ic_toast_fail-a" cx="8" cy="8" r="8"/></defs><g stroke-width="1" fill="none" fill-rule="evenodd"><mask id="icon-ic_toast_fail-b" fill="white"><use xlink:href="#icon-ic_toast_fail-a"/></mask><use fill="currentColor" xlink:href="#icon-ic_toast_fail-a"/><path d="M5.66852814,4.96142136 L8.002,7.295 L10.3354329,4.96142136 C10.3979168,4.89893747 10.4914587,4.88644069 10.5663658,4.92393102 L10.6182756,4.96142136 L11.0425397,5.38568542 C11.1206445,5.46379028 11.1206445,5.59042328 11.0425397,5.66852814 L11.0425397,5.66852814 L8.709,8.002 L11.0425397,10.3354329 C11.1206445,10.4135378 11.1206445,10.5401707 11.0425397,10.6182756 L10.6182756,11.0425397 C10.5401707,11.1206445 10.4135378,11.1206445 10.3354329,11.0425397 L8.002,8.709 L5.66852814,11.0425397 C5.60604425,11.1050236 5.51250236,11.1175203 5.43759527,11.08003 L5.38568542,11.0425397 L4.96142136,10.6182756 C4.8833165,10.5401707 4.8833165,10.4135378 4.96142136,10.3354329 L4.96142136,10.3354329 L7.295,8.002 L4.96142136,5.66852814 C4.8833165,5.59042328 4.8833165,5.46379028 4.96142136,5.38568542 L5.38568542,4.96142136 C5.46379028,4.8833165 5.59042328,4.8833165 5.66852814,4.96142136 Z" fill="currentColor" fill-rule="nonzero" mask="url(#icon-ic_toast_fail-b)"/></g></svg>