<svg width="16px" height="16px" viewBox="0 0 16 16" version="1.1" xmlns="http://www.w3.org/2000/svg" xmlns:xlink="http://www.w3.org/1999/xlink"><title>ic_bottom_rail_delete_click</title><g stroke-width="1" fill="none" fill-rule="evenodd"><rect fill="currentColor" opacity="0" x="0" y="0" width="16" height="16"/><path d="M14.6999578,3.46966359 C14.8104148,3.46966359 14.8999578,3.55920664 14.8999578,3.66966359 L14.8999578,4.76966359 C14.8999578,4.88012054 14.8104148,4.96966359 14.6999578,4.96966359 L13.1739767,4.969 L13.1749767,13.9 C13.1749767,14.4522847 12.7272615,14.9 12.1749767,14.9 L3.82497674,14.9 C3.27269199,14.9 2.82497674,14.4522847 2.82497674,13.9 L2.82397674,4.969 L1.29997674,4.96966359 C1.18951979,4.96966359 1.09997674,4.88012054 1.09997674,4.76966359 L1.09997674,3.66966359 C1.09997674,3.55920664 1.18951979,3.46966359 1.29997674,3.46966359 L14.6999578,3.46966359 Z M7.15309229,7.0460818 L6.05309229,7.0460818 C5.94263534,7.0460818 5.85309229,7.13562485 5.85309229,7.2460818 L5.85309229,7.2460818 L5.85309229,12.1585818 C5.85309229,12.2690387 5.94263534,12.3585818 6.05309229,12.3585818 L6.05309229,12.3585818 L7.15309229,12.3585818 C7.26354924,12.3585818 7.35309229,12.2690387 7.35309229,12.1585818 L7.35309229,12.1585818 L7.35309229,7.2460818 C7.35309229,7.13562485 7.26354924,7.0460818 7.15309229,7.0460818 L7.15309229,7.0460818 Z M9.94684229,7.0460818 L8.84684229,7.0460818 C8.73638534,7.0460818 8.64684229,7.13562485 8.64684229,7.2460818 L8.64684229,7.2460818 L8.64684229,12.1585818 C8.64684229,12.2690387 8.73638534,12.3585818 8.84684229,12.3585818 L8.84684229,12.3585818 L9.94684229,12.3585818 C10.0572992,12.3585818 10.1468423,12.2690387 10.1468423,12.1585818 L10.1468423,12.1585818 L10.1468423,7.2460818 C10.1468423,7.13562485 10.0572992,7.0460818 9.94684229,7.0460818 L9.94684229,7.0460818 Z M11.3613682,1.1 C11.4718251,1.1 11.5613682,1.18954305 11.5613682,1.3 L11.5613682,2.4 C11.5613682,2.51045695 11.4718251,2.6 11.3613682,2.6 L4.6385664,2.6 C4.52810945,2.6 4.4385664,2.51045695 4.4385664,2.4 L4.4385664,1.3 C4.4385664,1.18954305 4.52810945,1.1 4.6385664,1.1 L11.3613682,1.1 Z" fill="currentColor"/></g></svg>