<svg width="16px" height="16px" viewBox="0 0 16 16" version="1.1" xmlns="http://www.w3.org/2000/svg" xmlns:xlink="http://www.w3.org/1999/xlink"><title>ic_copy</title><defs><rect id="icon-ic_copy-a" x="0" y="0" width="16" height="16"/></defs><g stroke-width="1" fill="none" fill-rule="evenodd"><rect fill="currentColor" opacity="0" x="0" y="0" width="16" height="16"/><g><mask id="icon-ic_copy-b" fill="white"><use xlink:href="#icon-ic_copy-a"/></mask><use fill="currentColor" opacity="0" xlink:href="#icon-ic_copy-a"/><path d="M10.5,5 C10.7761424,5 11,5.22385763 11,5.5 L11,14.5 C11,14.7761424 10.7761424,15 10.5,15 L1.5,15 C1.22385763,15 1,14.7761424 1,14.5 L1,5.5 C1,5.22385763 1.22385763,5 1.5,5 L10.5,5 Z M10,6 L2,6 L2,14 L10,14 L10,6 Z M14.5,1 C14.7761424,1 15,1.22385763 15,1.5 L15,10.5 C15,10.7761424 14.7761424,11 14.5,11 L12,11 L12,10 L14,10 L14,2 L6,2 L6,4 L5,4 L5,1.5 C5,1.22385763 5.22385763,1 5.5,1 L14.5,1 Z" fill="currentColor" fill-rule="nonzero" mask="url(#icon-ic_copy-b)"/></g></g></svg>