<svg width="16px" height="16px" viewBox="0 0 16 16" version="1.1" xmlns="http://www.w3.org/2000/svg" xmlns:xlink="http://www.w3.org/1999/xlink"><title>ic_cloud_profile_blue</title><defs><rect id="icon-ic_cloud_profile_blue-a" x="0" y="0" width="16" height="16"/><rect id="icon-ic_cloud_profile_blue-c" x="0" y="0" width="16" height="16"/></defs><g stroke-width="1" fill="none" fill-rule="evenodd"><mask id="icon-ic_cloud_profile_blue-b" fill="white"><use xlink:href="#icon-ic_cloud_profile_blue-a"/></mask><use fill="currentColor" opacity="0" xlink:href="#icon-ic_cloud_profile_blue-a"/><g mask="url(#icon-ic_cloud_profile_blue-b)"><mask id="icon-ic_cloud_profile_blue-d" fill="white"><use xlink:href="#icon-ic_cloud_profile_blue-c"/></mask><use fill="currentColor" opacity="0" xlink:href="#icon-ic_cloud_profile_blue-c"/><path d="M4.50569722,10.9999979 C4.4400225,11.3252291 4.39834095,11.6591553 4.3825792,11.99985 L1.875,12 L1.875,14 L4.59519623,14.0012574 C4.68683432,14.346419 4.80583439,14.6804364 4.94973321,15.0008464 L2,15 C1.48716416,15 1.06449284,14.6139598 1.00672773,14.1166211 L1,14 L1,12 C1,11.4871642 1.38604019,11.0644928 1.88337887,11.0067277 L2,11 L4.50569722,10.9999979 Z M10.6900129,7.68842491 C12.2641745,7.68842491 13.6059842,8.68324197 14.1210471,10.0784813 C15.2013362,10.3541431 16,11.3340142 16,12.5004232 C16,13.8813688 14.8805224,15.0008464 13.4995768,15.0008464 L7.88044893,15.0008464 C6.49950333,15.0008464 5.38002572,13.8813688 5.38002572,12.5004232 C5.38002572,11.3340142 6.17868953,10.3541431 7.25898799,10.0778391 C7.77404151,8.68324197 9.1158512,7.68842491 10.6900129,7.68842491 Z M10.6900129,8.68842491 C9.63077063,8.68842491 8.68939089,9.31419468 8.26626504,10.2550471 L8.19705706,10.4242874 L8.01523321,10.9166071 L7.50677796,11.0466529 C6.84925587,11.2148249 6.38002572,11.8110749 6.38002572,12.5004232 C6.38002572,13.2803393 6.97508165,13.9212727 7.73594816,13.9939779 L7.88044893,14.0008464 L13.4995768,14.0008464 C14.3282376,14.0008464 15,13.3290841 15,12.5004232 C15,11.857064 14.5913387,11.2949843 14.002622,11.0865784 L13.8737958,11.0474327 L13.3648359,10.9175593 L13.1829283,10.4247948 C12.8009382,9.39003261 11.8116356,8.68842491 10.6900129,8.68842491 Z M4.37544395,12.3089623 C4.37544395,12.7158764 4.41239518,13.1141601 4.48312521,13.5006409 L4.2,13.5 C4.10795254,13.5 4.03042863,13.4378173 4.00714419,13.3531679 L4,13.3 L4,12.7 C4,12.6079525 4.06218267,12.5304286 4.14683208,12.5071442 L4.2,12.5 L4.378,12.5 L4.37544395,12.3089623 Z M9.08833867,5.99959087 C8.35360443,6.2163713 7.67240402,6.5579994 7.06929768,6.99991493 L1.875,7 L1.875,9 L5.26722284,8.999887 C5.0820787,9.31731249 4.92275598,9.6516455 4.79213402,10.0000067 L2,10 C1.48716416,10 1.06449284,9.61395981 1.00672773,9.11662113 L1,9 L1,7 C1,6.48716416 1.38604019,6.06449284 1.88337887,6.00672773 L2,6 L9.08833867,5.99959087 Z M5.8,7.5 C5.89204746,7.5 5.96957137,7.56218267 5.99285581,7.64683208 L6,7.7 L6.0001822,7.98063269 C5.85493484,8.14669381 5.71790454,8.32012488 5.58972569,8.50029152 L4.2,8.5 C4.10795254,8.5 4.03042863,8.43781733 4.00714419,8.35316792 L4,8.3 L4,7.7 C4,7.60795254 4.06218267,7.53042863 4.14683208,7.50714419 L4.2,7.5 L5.8,7.5 Z M14,1 C14.5128358,1 14.9355072,1.38604019 14.9932723,1.88337887 L15,2 L15,4 C15,4.51283584 14.6139598,4.93550716 14.1166211,4.99327227 L14,5 L2,5 C1.48716416,5 1.06449284,4.61395981 1.00672773,4.11662113 L1,4 L1,2 C1,1.48716416 1.38604019,1.06449284 1.88337887,1.00672773 L2,1 L14,1 Z M13.9196594,1.99786377 L1.875,1.99786377 L1.875,3.99786377 L14.1196594,3.99786377 L14.1196594,2.19786377 C14.1196594,2.08740682 14.0301164,1.99786377 13.9196594,1.99786377 Z M5.8,2.5 C5.89204746,2.5 5.96957137,2.56218267 5.99285581,2.64683208 L6,2.7 L6,3.3 C6,3.39204746 5.93781733,3.46957137 5.85316792,3.49285581 L5.8,3.5 L4.2,3.5 C4.10795254,3.5 4.03042863,3.43781733 4.00714419,3.35316792 L4,3.3 L4,2.7 C4,2.60795254 4.06218267,2.53042863 4.14683208,2.50714419 L4.2,2.5 L5.8,2.5 Z" fill="currentColor" mask="url(#icon-ic_cloud_profile_blue-d)"/></g></g></svg>