<svg width="16px" height="16px" viewBox="0 0 16 16" version="1.1" xmlns="http://www.w3.org/2000/svg" xmlns:xlink="http://www.w3.org/1999/xlink"><title>ic_warning_message备份</title><defs><circle id="icon-ic_default_prompt-a" cx="8" cy="8" r="8"/></defs><g stroke-width="1" fill="none" fill-rule="evenodd"><mask id="icon-ic_default_prompt-b" fill="white"><use xlink:href="#icon-ic_default_prompt-a"/></mask><circle stroke="currentColor" cx="8" cy="8" r="7.5"/><path d="M8,10.25 C8.41421356,10.25 8.75,10.5857864 8.75,11 C8.75,11.4142136 8.41421356,11.75 8,11.75 C7.58578644,11.75 7.25,11.4142136 7.25,11 C7.25,10.5857864 7.58578644,10.25 8,10.25 Z M8.55,4.25 C8.66045695,4.25 8.75,4.33954305 8.75,4.45 L8.75,9.05 C8.75,9.16045695 8.66045695,9.25 8.55,9.25 L7.45,9.25 C7.33954305,9.25 7.25,9.16045695 7.25,9.05 L7.25,4.45 C7.25,4.33954305 7.33954305,4.25 7.45,4.25 L8.55,4.25 Z" fill="currentColor" fill-rule="nonzero" mask="url(#icon-ic_default_prompt-b)"/></g></svg>