<svg width="16px" height="16px" viewBox="0 0 16 16" version="1.1" xmlns="http://www.w3.org/2000/svg" xmlns:xlink="http://www.w3.org/1999/xlink"><title>ic_suggest</title><defs><rect id="icon-ic_suggest-a" x="0" y="0" width="16" height="16"/></defs><g stroke-width="1" fill="none" fill-rule="evenodd"><g fill="currentColor" fill-rule="nonzero" opacity="0"><rect x="0" y="0" width="16" height="16"/></g><g fill="currentColor" fill-rule="nonzero" opacity="0"><rect x="0" y="0" width="16" height="16"/></g><g><mask id="icon-ic_suggest-b" fill="white"><use xlink:href="#icon-ic_suggest-a"/></mask><use fill="currentColor" opacity="0" xlink:href="#icon-ic_suggest-a"/><path d="M14.025886,1.85234979 C14.5781707,1.85234979 15.025886,2.30006504 15.025886,2.85234979 L15.025886,13.1476502 C15.025886,13.699935 14.5781707,14.1476502 14.025886,14.1476502 L1.97411404,14.1476502 C1.42182929,14.1476502 0.974114044,13.699935 0.974114044,13.1476502 L0.974114044,2.85234979 C0.974114044,2.30006504 1.42182929,1.85234979 1.97411404,1.85234979 L14.025886,1.85234979 Z M1.99211404,3.59534979 L1.99242668,13.1493486 L14.0075733,13.1493486 L14.007114,3.59634979 L8.32513994,8.46230247 C8.13793545,8.62259191 7.86185331,8.62256606 7.67467884,8.46224158 L1.99211404,3.59534979 Z M13.457114,2.85034979 L2.54311404,2.85034979 L7.99999725,7.5236661 L13.457114,2.85034979 Z" fill="currentColor" fill-rule="nonzero" mask="url(#icon-ic_suggest-b)"/></g></g></svg>