<svg width="16px" height="16px" viewBox="0 0 16 16" version="1.1" xmlns="http://www.w3.org/2000/svg" xmlns:xlink="http://www.w3.org/1999/xlink"><title>ic_to_be_updated</title><g stroke-width="1" fill="none" fill-rule="evenodd"><rect fill="currentColor" opacity="0" x="0" y="0" width="16" height="16"/><g fill-rule="nonzero"><rect fill="currentColor" opacity="0" x="0" y="0" width="16" height="16"/><path d="M12.678125,5.7640625 C11.9625,3.875 10.1390625,2.53125 8.003125,2.53125 C5.8671875,2.53125 4.04375,3.8734375 3.328125,5.7625 C1.9828125,6.1171875 0.9921875,7.346875 0.999954113,8.80625 C1.009375,10.4375 2.275,11.7640625 3.86875,11.90625 C3.9421875,11.9125 4.0046875,11.8546875 4.0046875,11.78125 L4.0046875,10.8375 C4.0046875,10.775 3.9578125,10.721875 3.8953125,10.7140625 C3.4734375,10.6609375 3.075,10.4765625 2.76875,10.175 C2.39375,9.8078125 2.1875,9.3140625 2.1875,8.790625 C2.1875,8.353125 2.3296875,7.940625 2.596875,7.596875 C2.8578125,7.2625 3.225,7.0203125 3.6296875,6.9140625 L4.221875,6.7578125 L4.4390625,6.184375 C4.5734375,5.828125 4.7609375,5.49375 4.996875,5.1921875 C5.2296875,4.8921875 5.50625,4.6296875 5.815625,4.4109375 C6.4578125,3.959375 7.2140625,3.7203125 8.003125,3.7203125 C8.7921875,3.7203125 9.5484375,3.959375 10.190625,4.4125 C10.5015625,4.63125 10.7765625,4.89375 11.009375,5.19375 C11.2453125,5.4953125 11.4328125,5.8296875 11.5671875,6.1859375 L11.7828125,6.7578125 L12.3734375,6.9140625 C13.2203125,7.1390625 13.8125,7.909375 13.8125,8.7890625 C13.8125,9.3140625 13.60625,9.80625 13.23125,10.1734375 C12.9265625,10.4734375 12.5296875,10.659375 12.1078125,10.7125 C12.0453125,10.7203125 12,10.7734375 12,10.8359375 L12,11.78125 C12,11.8546875 12.0640625,11.9125 12.1375,11.90625 C13.7265625,11.7625 14.9890625,10.4375 15.0000661,8.809375 C15.009375,7.35 14.0203125,6.1203125 12.678125,5.7640625 L12.678125,5.7640625 Z M5.8890625,10.25625 C5.9171875,9.7328125 6.134375,9.2453125 6.50625,8.871875 C6.903125,8.4734375 7.44375,8.25 8.00625,8.25 C8.571875,8.25 9.1046875,8.4703125 9.50625,8.871875 C9.528125,8.89375 9.5484375,8.915625 9.5703125,8.9390625 L9.1796875,9.2453125 C9.096875,9.309375 9.125,9.440625 9.2265625,9.465625 L10.7609375,9.840625 C10.8390625,9.859375 10.915625,9.8 10.915625,9.7203125 L10.9234375,8.1375 C10.9234375,8.0328125 10.8046875,7.9734375 10.721875,8.0390625 L10.359375,8.3234375 C9.7875,7.6671875 8.946875,7.2515625 8.0078125,7.2515625 C6.3296875,7.2515625 4.9609375,8.58125 4.8921875,10.246875 C4.8890625,10.3171875 4.9453125,10.3765625 5.0171875,10.3765625 L5.765625,10.3765625 C5.83125,10.375 5.8859375,10.3234375 5.8890625,10.25625 L5.8890625,10.25625 Z M10.984375,10.375 L10.2359375,10.375 C10.1703125,10.375 10.115625,10.4265625 10.1109375,10.49375 C10.0828125,11.0171875 9.865625,11.5046875 9.49375,11.878125 C9.096875,12.2765625 8.55625,12.5 7.99375,12.5 C7.428125,12.5 6.8953125,12.2796875 6.49375,11.878125 C6.471875,11.85625 6.4515625,11.834375 6.4296875,11.8109375 L6.8203125,11.5046875 C6.903125,11.440625 6.875,11.309375 6.7734375,11.284375 L5.2390625,10.909375 C5.1609375,10.890625 5.084375,10.95 5.084375,11.0296875 L5.078125,12.6140625 C5.078125,12.71875 5.196875,12.778125 5.2796875,12.7125 L5.6421875,12.428125 C6.2140625,13.084375 7.0546875,13.5 7.99375,13.5 C9.671875,13.5 11.040625,12.1703125 11.109375,10.5046875 C11.1125,10.434375 11.05625,10.375 10.984375,10.375 Z" fill="currentColor"/></g></g></svg>