<svg width="16px" height="16px" viewBox="0 0 16 16" version="1.1" xmlns="http://www.w3.org/2000/svg" xmlns:xlink="http://www.w3.org/1999/xlink"><title>ic_use_retry</title><defs><rect id="icon-ic_use_retry-a" x="0" y="0" width="16" height="16"/></defs><g stroke-width="1" fill="none" fill-rule="evenodd"><g><mask id="icon-ic_use_retry-b" fill="white"><use xlink:href="#icon-ic_use_retry-a"/></mask><use fill="currentColor" opacity="0" xlink:href="#icon-ic_use_retry-a"/><path d="M8,0 C12.418278,0 16,3.581722 16,8 C16,12.418278 12.418278,16 8,16 C3.581722,16 0,12.418278 0,8 C0,7.03576203 0.170590271,6.11136754 0.483236845,5.25535053 L1.4231697,5.59750795 C1.14938924,6.34678156 1,7.15594491 1,8 C1,11.8659932 4.13400675,15 8,15 C11.8659932,15 15,11.8659932 15,8 C15,4.13400675 11.8659932,1 8,1 C6.09329729,1 4.36464658,1.76233123 3.10221361,2.99882796 L4.12128906,3 C4.23174601,3 4.32128906,3.08954305 4.32128906,3.2 L4.32128906,3.8 C4.32128906,3.91045695 4.23174601,4 4.12128906,4 L1.52128906,4 C1.41083211,4 1.32128906,3.91045695 1.32128906,3.8 L1.32128906,1.2 C1.32128906,1.08954305 1.41083211,1 1.52128906,1 L2.12128906,1 C2.23174601,1 2.32128906,1.08954305 2.32128906,1.2 L2.32113175,2.36524522 C3.77055229,0.904548529 5.77964183,0 8,0 Z" fill="currentColor" fill-rule="nonzero" mask="url(#icon-ic_use_retry-b)"/></g></g></svg>