<svg width="16px" height="16px" viewBox="0 0 16 16" version="1.1" xmlns="http://www.w3.org/2000/svg" xmlns:xlink="http://www.w3.org/1999/xlink"><title>icon_routing_editing</title><g stroke-width="1" fill="none" fill-rule="evenodd"><rect fill="currentColor" opacity="0" x="0" y="0" width="16" height="16"/><path d="M4.7279973,10.5937974 L4.7279973,11.6837974 L3.47172154,11.684194 L1.65439389,14.9096034 L14.3456061,14.9096034 L12.5282785,11.684194 L11.2709973,11.6837974 L11.2709973,10.5937974 L12.5282785,10.5937974 C13.061307,10.5937974 13.5162097,10.9791577 13.603839,11.5049339 L15.4211667,14.7303433 C15.5201693,15.324359 15.1188819,15.8861614 14.5248662,15.985164 C14.4656234,15.9950378 14.4056661,16 14.3456061,16 L1.65439389,16 C1.05218448,16 0.563997297,15.5118128 0.563997297,14.9096034 C0.563997297,14.8495434 0.568959516,14.7895861 0.578833316,14.7303433 L2.39616097,11.5049339 C2.48379032,10.9791577 2.93869299,10.5937974 3.47172154,10.5937974 L4.7279973,10.5937974 Z M8,1.02456894 C10.5381501,1.02456894 12.6029125,3.01195979 12.6029125,5.45478142 C12.6029125,6.26352759 12.3739067,7.05530959 11.9409302,7.74415193 L11.9409302,7.74415193 L8.31802473,12.1562554 C8.24700023,12.2616708 8.12774402,12.3252315 8.00000327,12.3252315 C7.87268119,12.3252315 7.75335826,12.2620561 7.68196546,12.1562554 L7.68196546,12.1562554 L4.06798935,7.75746422 C3.62682921,7.05727863 3.39708753,6.26432568 3.39708753,5.45447069 C3.39708753,3.01195979 5.46191535,1.02456894 8,1.02456894 Z M8,3.22049982 C6.89539815,3.22049982 6,4.11589655 6,5.22049982 C6,6.32501356 6.89539673,7.22049982 8,7.22049982 C8.16489176,7.22049982 8.32512222,7.20054498 8.47840855,7.16291869 C9.35196663,6.94849151 10,6.16014733 10,5.22049982 C10,4.11589797 9.10458906,3.22049982 8,3.22049982 Z" fill="currentColor" fill-rule="nonzero"/><g transform="translate(3.397088, 1.024569)"/></g></svg>