<svg width="16px" height="16px" viewBox="0 0 16 16" version="1.1" xmlns="http://www.w3.org/2000/svg" xmlns:xlink="http://www.w3.org/1999/xlink"><defs><rect id="icon-overview-a" x="0" y="0" width="16" height="16"/></defs><g stroke-width="1" fill="none" fill-rule="evenodd"><g transform="translate(-611.000000, -5107.000000)"><g transform="translate(498.000000, 4920.000000)"><g transform="translate(111.000000, 187.000000)"><g transform="translate(2.000000, 0.000000)"><mask id="icon-overview-b" fill="white"><use xlink:href="#icon-overview-a"/></mask><use fill="currentColor" opacity="0" xlink:href="#icon-overview-a"/><path d="M7.5,8.5 L7.5,15.5 L0.5,15.5 L0.5,8.5 L7.5,8.5 Z M15.5,14.5 L15.5,15.5 L8.5,15.5 L8.5,14.5 L15.5,14.5 Z M6.5,9.5 L1.5,9.5 L1.5,14.5 L6.5,14.5 L6.5,9.5 Z M15.5,11.5 L15.5,12.5 L8.5,12.5 L8.5,11.5 L15.5,11.5 Z M15.5,8.5 L15.5,9.5 L8.5,9.5 L8.5,8.5 L15.5,8.5 Z M7.5,0.5 L7.5,7.5 L0.5,7.5 L0.5,0.5 L7.5,0.5 Z M15.5,0.5 L15.5,7.5 L8.5,7.5 L8.5,0.5 L15.5,0.5 Z M6.5,1.5 L1.5,1.5 L1.5,6.5 L6.5,6.5 L6.5,1.5 Z M14.5,1.5 L9.5,1.5 L9.5,6.5 L14.5,6.5 L14.5,1.5 Z" fill="currentColor" fill-rule="nonzero" mask="url(#icon-overview-b)"/></g></g></g></g></g></svg>