<svg t="1689753710361" viewBox="0 0 1024 1024" version="1.1" xmlns="http://www.w3.org/2000/svg" p-id="5887" xmlns:xlink="http://www.w3.org/1999/xlink" width="200" height="200"><path d="M187.456 425.024a336 336 0 0 0 368.384 420.224 48 48 0 0 1 12.544 95.168 432 432 0 0 1-473.664-540.16l-57.28-15.36a12.8 12.8 0 0 1-6.272-20.928l159.168-179.456a12.8 12.8 0 0 1 22.144 5.888l48.064 235.072a12.8 12.8 0 0 1-15.808 14.912l-57.28-15.36zM836.48 599.04a336 336 0 0 0-368.384-420.224 48 48 0 1 1-12.544-95.168 432 432 0 0 1 473.664 540.16l57.28 15.36a12.8 12.8 0 0 1 6.272 20.928l-159.168 179.456a12.8 12.8 0 0 1-22.144-5.888l-48.064-235.072a12.8 12.8 0 0 1 15.808-14.912l57.28 15.36z" fill="currentColor" p-id="5888"/></svg>